<?xml version="1.0" encoding="UTF-8" standalone="no"?>
<svg
   xmlns:svg="http://www.w3.org/2000/svg"
   xmlns="http://www.w3.org/2000/svg"
   viewBox="0 0 5333.3335 714.66669"
   height="714.66669"
   width="5333.3335"
   id="svg2"
   version="1.1">
  <defs
     id="defs6" />
  <g
     id="g8">
    <path
       style="color:#000000;fill:none;stroke-width:20;stroke-linecap:round;paint-order:fill markers stroke"
       d="M 10,10 H 5323.9395 V 704.95728 H 10 Z"
       id="path1539" />
    <path
       style="color:#000000;fill:#000000;stroke-width:20;stroke-linecap:round;paint-order:fill markers stroke"
       d="M 0,0 V 10 714.95703 H 5333.9395 V 0 Z M 20,20 H 5313.9395 V 694.95703 H 20 Z"
       id="path1543" />
    <path
       style="color:#000000;fill:none;stroke-width:20"
       d="M 408.90029,8.0896001 V 705.93502"
       id="path1939" />
    <path
       style="color:#000000;fill:#000000;stroke-width:20"
       d="M 398.90039,8.0898438 V 705.93555 h 20 V 8.0898438 Z"
       id="path1943" />
    <path
       style="color:#000000;fill:none;stroke-width:20"
       d="M 822.90029,8.0896001 V 705.93502"
       id="path1931" />
    <path
       style="color:#000000;fill:#000000;stroke-width:20"
       d="M 812.90039,8.0898438 V 705.93555 h 20 V 8.0898438 Z"
       id="path1935" />
    <path
       style="color:#000000;fill:none;stroke-width:20"
       d="M 1228.9003,8.0896001 V 705.93502"
       id="path1923" />
    <path
       style="color:#000000;fill:#000000;stroke-width:20"
       d="M 1218.9004,8.0898438 V 705.93555 h 20 V 8.0898438 Z"
       id="path1927" />
    <path
       style="color:#000000;fill:none;stroke-width:20"
       d="M 1642.9003,8.0896001 V 705.93502"
       id="path1915" />
    <path
       style="color:#000000;fill:#000000;stroke-width:20"
       d="M 1632.9004,8.0898438 V 705.93555 h 20 V 8.0898438 Z"
       id="path1919" />
    <path
       style="color:#000000;fill:none;stroke-width:20"
       d="M 2056.9003,8.0896001 V 705.93502"
       id="path1907" />
    <path
       style="color:#000000;fill:#000000;stroke-width:20"
       d="M 2046.9004,8.0898438 V 705.93555 h 20 V 8.0898438 Z"
       id="path1911" />
    <path
       style="color:#000000;fill:none;stroke-width:20"
       d="M 2456.9003,8.0896001 V 705.93502"
       id="path1899" />
    <path
       style="color:#000000;fill:#000000;stroke-width:20"
       d="M 2446.9004,8.0898438 V 705.93555 h 20 V 8.0898438 Z"
       id="path1903" />
    <path
       style="color:#000000;fill:none;stroke-width:20"
       d="M 2870.9003,8.0896001 V 705.93502"
       id="path1891" />
    <path
       style="color:#000000;fill:#000000;stroke-width:20"
       d="M 2860.9004,8.0898438 V 705.93555 h 20 V 8.0898438 Z"
       id="path1895" />
    <path
       style="color:#000000;fill:none;stroke-width:20"
       d="M 3284.9003,8.0896001 V 705.93502"
       id="path1883" />
    <path
       style="color:#000000;fill:#000000;stroke-width:20"
       d="M 3274.9004,8.0898438 V 705.93555 h 20 V 8.0898438 Z"
       id="path1887" />
    <path
       style="color:#000000;fill:none;stroke-width:20"
       d="M 3694.9003,8.0896001 V 705.93502"
       id="path1875" />
    <path
       style="color:#000000;fill:#000000;stroke-width:20"
       d="M 3684.9004,8.0898438 V 705.93555 h 20 V 8.0898438 Z"
       id="path1879" />
    <path
       style="color:#000000;fill:none;stroke-width:20"
       d="M 4098.3059,8.0896001 V 705.93502"
       id="path1867" />
    <path
       style="color:#000000;fill:#000000;stroke-width:20"
       d="M 4088.3066,8.0898438 V 705.93555 h 20 V 8.0898438 Z"
       id="path1871" />
    <path
       style="color:#000000;fill:none;stroke-width:20"
       d="M 4514.3059,8.0896001 V 705.93502"
       id="path1859" />
    <path
       style="color:#000000;fill:#000000;stroke-width:20"
       d="M 4504.3066,8.0898438 V 705.93555 h 20 V 8.0898438 Z"
       id="path1863" />
    <path
       style="color:#000000;fill:none;stroke-width:20"
       d="M 4916.3059,8.0896001 V 705.93502"
       id="path1851" />
    <path
       style="color:#000000;fill:#000000;stroke-width:20"
       d="M 4906.3066,8.0898438 V 705.93555 h 20 V 8.0898438 Z"
       id="path1855" />
    <path
       style="color:#000000;fill:none;stroke-width:20"
       d="M 5325.2286,361.01231 H 10.868888"
       id="path1843" />
    <path
       style="color:#000000;fill:#000000;stroke-width:20"
       d="m 10.869141,351.01172 v 20 H 5325.2285 v -20 z"
       id="path1847" />
    <path
       style="color:#000000;fill:none;stroke-width:26;stroke-linecap:square"
       d="m 128.1777,280.49019 81.92456,-144.55237 81.08229,144.6448"
       id="path1835" />
    <path
       style="color:#000000;fill:#000000;stroke-width:26;stroke-linecap:square"
       d="m 210.16406,109.46289 -93.29687,164.61719 -6.41016,11.31054 29.90216,0.2034 v 0 l 69.67987,-123.17996 68.93378,123.21902 v 0 l 29.90802,-0.0667 -6.35742,-11.33985 z"
       id="path1839" />
    <path
       style="color:#000000;fill:none;stroke-width:20"
       d="m 171.54435,218.35184 h 77.9389"
       id="path1827" />
    <path
       style="color:#000000;fill:#000000;stroke-width:20"
       d="m 171.54492,208.35156 v 20 h 77.9375 v -20 z"
       id="path1831" />
    <path
       style="color:#000000;fill:none;stroke-width:20"
       d="M 567.30534,277.49321 V 115.21753 h 48.02498 c 51.48276,0 48.7702,65.53666 0.18561,66.19264 -26.22622,0.3541 -47.85307,-0.17018 -47.85307,-0.17018 0,0 3.73781,-0.30381 41.17503,0.18516 76.19037,0.99512 70.25518,96.02088 4.26057,96.02088 -42.32157,0 -45.79312,0.0472 -45.79312,0.0472 z"
       id="path1819" />
    <path
       style="color:#000000;fill:#000000;stroke-width:20"
       d="m 557.30469,105.2168 v 172.27734 10.13672 l 10.13672,-0.13867 c 0,0 3.34215,-0.0469 45.65625,-0.0469 37.79694,0 60.93663,-28.70668 61.18945,-57.54883 0.12641,-14.42107 -5.18723,-29.11255 -16.32031,-40.15039 -3.41493,-3.38571 -7.41694,-6.33547 -11.85157,-8.88476 10.44638,-8.27419 16.59647,-20.32144 16.83204,-32.60156 0.20647,-10.76351 -3.74665,-21.74061 -12.00586,-29.9043 -8.25922,-8.16369 -20.61902,-13.13867 -35.61133,-13.13867 z m 20,20 h 38.02539 c 10.74904,0 17.35735,3.21836 21.55078,7.36328 4.19342,4.14492 6.17971,9.59423 6.07031,15.29687 -0.21878,11.40529 -7.77069,23.26588 -27.57031,23.53321 -2.76589,0.0373 -4.47861,-0.01 -7.12109,0.01 -16.23461,-0.20854 -24.96304,-0.23687 -30.95508,-0.22851 z m 0,66.17382 c 7.08354,0.10653 17.16351,0.12546 30.79492,0.0293 0.54862,0.007 0.0432,-0.003 0.60742,0.004 16.96772,0.22161 28.05943,5.46604 35.17969,12.52539 7.12026,7.05935 10.48331,16.31175 10.40039,25.77148 -0.16584,18.91947 -12.99185,37.72461 -41.18945,37.72461 -32.98833,0 -33.22164,0.0242 -35.79297,0.0371 z"
       id="path1823" />
    <path
       id="path1815"
       d="m 1056.0527,101.99023 c -51.7026,1e-5 -93.832,42.13137 -93.832,93.83399 1e-5,51.70262 42.1294,93.83397 93.832,93.83398 26.627,0 50.7141,-11.17486 67.8164,-29.07617 l -16.58,-11.97461 c -13.2238,12.83575 -31.2706,20.73242 -51.2364,20.73242 -40.722,0 -73.51559,-32.7936 -73.51559,-73.51562 0,-40.72203 32.79359,-73.51562 73.51559,-73.51563 19.108,1e-5 36.4694,7.22198 49.5176,19.09375 l 16.6445,-12.02148 c -16.9843,-16.91318 -40.382,-27.39062 -66.1621,-27.39063 z"
       style="color:#000000;fill:#000000;stroke-width:20.3179;stroke-linecap:round;paint-order:fill markers stroke" />
    <path
       id="path1811"
       d="m 1420.957,101.99023 c -11.0192,0 -21.6013,1.91926 -31.4355,5.43165 v 21.89648 133.00195 21.90625 c 9.834,3.51289 20.4162,5.43164 31.4355,5.43164 51.7026,0 93.8321,-42.13138 93.8321,-93.83398 0,-51.7026 -42.1295,-93.83399 -93.8321,-93.83399 z m 0,20.31836 c 40.722,0 73.5157,32.79363 73.5157,73.51563 0,40.722 -32.7937,73.51562 -73.5157,73.51562 -3.8688,0 -7.6623,-0.30535 -11.3652,-0.8789 V 123.18359 c 3.7033,-0.57172 7.4967,-0.875 11.3652,-0.875 z"
       style="color:#000000;fill:#000000;stroke-width:20.3179;stroke-linecap:round;paint-order:fill markers stroke" />
    <path
       style="color:#000000;fill:none;stroke-width:20"
       d="M 1399.5923,283.11144 V 110.82949"
       id="path1807" />
    <path
       style="color:#000000;fill:none;stroke-width:20"
       d="m 1903.398,115.16803 h -89.6939 V 277.7767 h 89.2594"
       id="path1799" />
    <path
       style="color:#000000;fill:#000000;stroke-width:20"
       d="m 1803.7031,105.16797 v 182.60937 h 99.2598 v -20 h -79.2598 V 125.16797 h 79.6953 v -20 z"
       id="path1803" />
    <path
       style="color:#000000;fill:none;stroke-width:20"
       d="m 1814.1139,197.72242 h 85.4614"
       id="path1791" />
    <path
       style="color:#000000;fill:#000000;stroke-width:20"
       d="m 1814.1133,187.72266 v 20 h 85.4629 v -20 z"
       id="path1795" />
    <path
       style="color:#000000;fill:none;stroke-width:20;stroke-linecap:square"
       d="m 2300.0975,115.16803 h -81.4102 V 277.7767"
       id="path1783" />
    <path
       style="color:#000000;fill:#000000;stroke-width:20;stroke-linecap:square"
       d="m 2208.6875,105.16797 v 172.60937 10 h 20 v -10 -152.60937 h 71.4102 10 v -20 h -10 z"
       id="path1787" />
    <path
       style="color:#000000;fill:none;stroke-width:20;stroke-linecap:square"
       d="m 2219.0971,197.72242 h 77.1777"
       id="path1775" />
    <path
       style="color:#000000;fill:#000000;stroke-width:20;stroke-linecap:square"
       d="m 2209.0977,187.72266 v 20 h 10 77.1777 10 v -20 h -10 -77.1777 z"
       id="path1779" />
    <path
       id="path1771"
       d="m 2677.4055,101.99023 c -51.7026,1e-5 -93.832,42.13137 -93.832,93.83399 0,51.70262 42.1294,93.83397 93.832,93.83398 26.627,0 41.728,-10.99914 58.8303,-28.90045 l -8.9757,-14.25309 c -13.2238,12.83575 -29.8888,22.83518 -49.8546,22.83518 -40.722,0 -73.5156,-32.7936 -73.5156,-73.51562 0,-40.72203 32.7936,-73.51562 73.5156,-73.51563 19.108,1e-5 36.4694,7.22198 49.5176,19.09375 l 16.6445,-12.02148 c -16.9843,-16.91318 -40.382,-27.39062 -66.1621,-27.39063 z"
       style="color:#000000;fill:#000000;stroke-width:20.3179;stroke-linecap:round;paint-order:fill markers stroke" />
    <path
       style="color:#000000;fill:none;stroke-width:20"
       d="m 2664.9252,212.83291 h 65.6577 v 74.95886"
       id="path1763" />
    <path
       style="color:#000000;fill:#000000;stroke-width:20"
       d="m 2664.9258,202.83203 v 20 h 55.6562 v 64.95899 h 20 v -84.95899 z"
       id="path1767" />
    <path
       style="color:#000000;fill:none;stroke-width:20"
       d="M 3479.3605,94.795686 V 275.7244"
       id="path1755" />
    <path
       style="color:#000000;fill:#000000;stroke-width:20"
       d="M 3469.3613,94.794922 V 275.72461 h 20 V 94.794922 Z"
       id="path1759" />
    <path
       style="color:#000000;fill:none;stroke-width:20"
       d="M 3123.3605,94.795686 V 275.7244"
       id="path1747" />
    <path
       style="color:#000000;fill:#000000;stroke-width:20"
       d="M 3113.3613,94.794922 V 275.72461 h 20 V 94.794922 Z"
       id="path1751" />
    <path
       style="color:#000000;fill:none;stroke-width:20"
       d="M 3020.1907,94.795686 V 275.7244"
       id="path1739" />
    <path
       style="color:#000000;fill:#000000;stroke-width:20"
       d="M 3010.1914,94.794922 V 275.72461 h 20 V 94.794922 Z"
       id="path1743" />
    <path
       style="color:#000000;fill:none;stroke-width:20"
       d="m 3128.0243,190.09018 h -107.964"
       id="path1731" />
    <path
       style="color:#000000;fill:#000000;stroke-width:20"
       d="m 3020.0605,180.08984 v 20 h 107.9629 v -20 z"
       id="path1735" />
    <path
       style="color:#000000;fill:none;stroke-width:20"
       d="M 3937.3762,87.970744 V 212.73466 c 0,36.74931 -25.7893,52.17484 -50.1749,52.17484 -25.8611,0 -46.413,-14.7218 -46.0589,-44.05888"
       id="path1723" />
    <path
       style="color:#000000;fill:#000000;stroke-width:20"
       d="M 3927.377,87.970703 V 212.73437 c 0,16.03543 -5.2348,25.85144 -12.5918,32.39844 -7.3571,6.54701 -17.4998,9.77735 -27.584,9.77735 -11.033,0 -20.1315,-3.13325 -26.2442,-8.52735 -6.1126,-5.39409 -9.963,-13.0984 -9.8144,-25.41211 l -20,-0.24023 c -0.2055,17.02334 6.042,31.34737 16.582,40.64844 10.5401,9.30106 24.6485,13.53125 39.4766,13.53125 14.3013,0 29.2468,-4.48287 40.8808,-14.83594 11.634,-10.35307 19.295,-26.626 19.295,-47.33985 V 87.970703 Z"
       id="path1727" />
    <path
       style="color:#000000;fill:none;stroke-width:20"
       d="M 4255.3605,94.795686 V 275.7244"
       id="path1715" />
    <path
       style="color:#000000;fill:#000000;stroke-width:20"
       d="M 4245.3613,94.794922 V 275.72461 h 20 V 94.794922 Z"
       id="path1719" />
    <path
       id="path1711"
       d="m 4345.3613,94.794922 -90,93.595698 90,87.33399 h 32 l -90,-87.33399 90,-93.595698 z"
       style="color:#000000;fill:#000000;stroke-width:14.0534" />
    <path
       style="color:#000000;fill:none;stroke-width:20"
       d="M 4671.7041,94.542399 V 265.7767 h 95.4976"
       id="path1703" />
    <path
       style="color:#000000;fill:#000000;stroke-width:20"
       d="M 4661.7031,94.542969 V 275.77734 h 105.4981 v -20 h -85.4981 V 94.542969 Z"
       id="path1707" />
    <path
       style="color:#000000;fill:none;stroke-width:20"
       d="M 5057.9524,94.795686 V 275.7244"
       id="path1695" />
    <path
       style="color:#000000;fill:#000000;stroke-width:20"
       d="M 5047.9531,94.794922 V 275.72461 h 20 V 94.794922 Z"
       id="path1699" />
    <path
       style="color:#000000;fill:none;stroke-width:20"
       d="M 5189.0739,94.795686 V 275.7244"
       id="path1687" />
    <path
       style="color:#000000;fill:#000000;stroke-width:20"
       d="M 5179.0742,94.794922 V 275.72461 h 20 V 94.794922 Z"
       id="path1691" />
    <path
       style="color:#000000;fill:none;stroke-width:25"
       d="m 5058.0023,102.34026 67.0398,88.86243 64.1477,-89.07655"
       id="path1679" />
    <path
       style="color:#000000;fill:#000000;stroke-width:25"
       d="m 5067.9531,94.794922 -19.946,15.084458 77.2683,102.3882 73.6674,-102.76914 -19.8686,-14.703518 -54.2656,75.341798 z"
       id="path1683" />
    <path
       style="color:#000000;fill:none;stroke-width:20;stroke-linecap:square;paint-order:fill markers stroke"
       d="m 689.38607,538.22882 a 82.884727,82.884727 0 0 1 -82.88473,82.88473 82.884727,82.884727 0 0 1 -82.88472,-82.88473 82.884727,82.884727 0 0 1 82.88472,-82.88473 82.884727,82.884727 0 0 1 82.88473,82.88473 z"
       id="path1531" />
    <path
       style="color:#000000;fill:#000000;stroke-width:20;stroke-linecap:square;paint-order:fill markers stroke"
       d="m 606.50195,445.34375 c -51.18032,0 -92.88476,41.70445 -92.88476,92.88477 0,51.18031 41.70444,92.88476 92.88476,92.88476 51.18033,0 92.88477,-41.70444 92.88477,-92.88476 0,-51.18033 -41.70444,-92.88477 -92.88477,-92.88477 z m 0,20 c 40.37153,0 72.88477,32.51323 72.88477,72.88477 0,40.37153 -32.51324,72.88476 -72.88477,72.88476 -40.37152,0 -72.88476,-32.51324 -72.88476,-72.88476 0,-40.37153 32.51324,-72.88477 72.88476,-72.88477 z"
       id="path1535" />
    <path
       style="color:#000000;fill:none;stroke-width:20;stroke-linecap:square;paint-order:fill markers stroke"
       d="m 1521.3859,538.22882 a 82.884727,82.884727 0 0 1 -82.8847,82.88473 82.884727,82.884727 0 0 1 -82.8847,-82.88473 82.884727,82.884727 0 0 1 82.8847,-82.88473 82.884727,82.884727 0 0 1 82.8847,82.88473"
       id="path1523" />
    <path
       style="color:#000000;fill:#000000;stroke-width:20;stroke-linecap:square;paint-order:fill markers stroke"
       d="m 1438.502,445.34375 c -51.1804,2e-5 -92.8848,41.70446 -92.8848,92.88477 0,51.18031 41.7044,92.88474 92.8848,92.88476 47.8003,-10e-6 92.8847,-38.10784 92.8847,-92.88476 v 0 0 l -0.5625,-10 0.5625,10 c 0,-54.7145 -45.085,-92.88475 -92.8847,-92.88477 z m 0,20 c 40.3715,10e-6 72.8847,32.51324 72.8847,72.88477 0,40.37152 -32.5132,72.88475 -72.8847,72.88476 -40.3716,-10e-6 -72.8848,-32.51324 -72.8848,-72.88476 0,-40.37153 32.5132,-72.88476 72.8848,-72.88477 z"
       id="path1527" />
    <path
       style="color:#000000;fill:none;stroke-width:22"
       d="m 1444.9982,539.43349 82.098,81.23105"
       id="path1671" />
    <path
       style="color:#000000;fill:#000000;stroke-width:22"
       d="m 1452.7344,531.61328 -15.4727,15.63867 82.0977,81.23242 15.4726,-15.63867 z"
       id="path1675" />
    <path
       id="path1667"
       d="m 3003.3307,448.77344 c -0.075,1.16629 -0.1152,88.31884 -0.1152,89.45508 0,51.18031 40.1061,91.8192 91.2865,91.81922 47.8003,-10e-6 86.2434,-35.31909 91.2567,-81.81922 h 0.5625 v -10 -89.45508 h -20.0859 c 0.053,1.14523 0.086,88.29631 0.086,89.45508 0,40.37152 -31.4477,70.75366 -71.8192,70.75367 -40.3716,-10e-6 -71.2865,-30.38215 -71.2865,-70.75367 0,-1.15877 0.033,-88.30985 0.086,-89.45508 z"
       style="color:#000000;fill:#000000;stroke-width:20;stroke-linecap:square;paint-order:fill markers stroke" />
    <path
       style="color:#000000;fill:none;stroke-width:26;stroke-linecap:square"
       d="m 3569.1601,454.60579 -81.9246,144.55237 -81.0823,-144.6448"
       id="path1659" />
    <path
       style="color:#000000;fill:#000000;stroke-width:26;stroke-linecap:square"
       d="m 3487.1737,625.63309 93.2969,-164.61719 6.4102,-11.31054 -29.9022,-0.2034 v 0 L 3487.2987,572.68192 3418.365,449.4629 v 0 l -29.9081,0.0667 6.3575,11.33985 z"
       id="path1663" />
    <path
       style="color:#000000;fill:none;stroke-width:20"
       d="M 150.52627,457.61031 V 638.53902"
       id="path1651" />
    <path
       style="color:#000000;fill:#000000;stroke-width:20"
       d="m 140.52539,457.60937 v 180.92969 h 20 V 457.60937 Z"
       id="path1655" />
    <path
       style="color:#000000;fill:none;stroke-width:20"
       d="M 254.52627,457.61031 V 638.53902"
       id="path1643" />
    <path
       style="color:#000000;fill:#000000;stroke-width:20"
       d="m 244.52539,457.60937 v 180.92969 h 20 V 457.60937 Z"
       id="path1647" />
    <path
       id="path1639"
       d="m 160.52539,457.60937 -17.43295,17.85528 101.43295,163.07441 17.80829,-17.07912 z"
       style="color:#000000;fill:#000000;stroke-width:25" />
    <path
       style="color:#000000;fill:none;stroke-width:20"
       d="M 990.54264,627.17577 V 456.68195 h 53.52186 c 22.4618,0 44.2895,20.01948 44.2895,50.99735 0,30.97786 -27.79,45.45543 -49.2387,45.45543 -21.4488,0 -44.6681,-0.29115 -44.6681,-0.29115"
       id="path1631" />
    <path
       style="color:#000000;fill:#000000;stroke-width:20"
       d="m 980.54297,446.68164 v 180.49414 h 20.00003 v -64.29101 c 5.1472,0.0601 20.0243,0.25 38.5722,0.25 12.9743,0 27.146,-4.14911 38.8028,-13.21875 11.6567,-9.06965 20.4355,-23.75711 20.4355,-42.23633 0,-35.67532 -25.8855,-60.99805 -54.289,-60.99805 z m 20.00003,20 h 43.5215 c 16.52,0 34.289,14.71769 34.289,40.99805 0,12.49861 -5.1164,20.53758 -12.7168,26.45117 -7.6004,5.91359 -18.0471,9.00391 -26.5215,9.00391 -18.4953,0 -33.5791,-0.19358 -38.5722,-0.25196 z"
       id="path1635" />
    <path
       style="color:#000000;fill:none;stroke-width:20"
       d="M 1802.5426,627.17577 V 456.68195 h 53.5219 c 22.4618,0 44.2895,20.01948 44.2895,50.99735 0,30.97786 -27.79,45.45543 -49.2387,45.45543 -21.4488,0 -44.6681,-0.29115 -44.6681,-0.29115"
       id="path1623" />
    <path
       style="color:#000000;fill:#000000;stroke-width:20"
       d="m 1792.543,446.68164 v 180.49414 h 20 v -64.29101 c 5.1472,0.0601 20.0243,0.25 38.5722,0.25 12.9743,0 27.146,-4.14911 38.8028,-13.21875 11.6567,-9.06965 20.4355,-23.75711 20.4355,-42.23633 0,-35.67532 -25.8855,-60.99805 -54.289,-60.99805 z m 20,20 h 43.5215 c 16.52,0 34.289,14.71769 34.289,40.99805 0,12.49861 -5.1164,20.53758 -12.7168,26.45117 -7.6004,5.91359 -18.0471,9.00391 -26.5215,9.00391 -18.4953,0 -33.5791,-0.19358 -38.5722,-0.25196 z"
       id="path1627" />
    <path
       id="path1619"
       d="m 1792.5426,547.84177 92,79.334 h 32 l -92,-79.334 z"
       style="color:#000000;fill:#000000;stroke-width:14.0534" />
    <path
       style="color:#000000;fill:none;stroke-width:20"
       d="M 2672.3436,453.07466 V 626.00337"
       id="path1611" />
    <path
       style="color:#000000;fill:#000000;stroke-width:20"
       d="m 2662.3438,453.07422 v 172.92969 h 20 V 453.07422 Z"
       id="path1615" />
    <path
       style="color:#000000;fill:none;stroke-width:20"
       d="M 2762.808,456.64321 H 2581.8792"
       id="path1603" />
    <path
       style="color:#000000;fill:#000000;stroke-width:20"
       d="m 2581.8789,446.64258 v 20 h 180.9297 v -20 z"
       id="path1607" />
    <path
       style="color:#000000;fill:none;stroke-width:20"
       d="M 5216.8605,456.24917 H 5035.9318"
       id="path1595" />
    <path
       style="color:#000000;fill:#000000;stroke-width:20"
       d="m 5035.9316,446.25 v 20 h 180.9297 v -20 z"
       id="path1599" />
    <path
       style="color:#000000;fill:none;stroke-width:20"
       d="M 5216.8605,618.24917 H 5035.9318"
       id="path1587" />
    <path
       style="color:#000000;fill:#000000;stroke-width:20"
       d="m 5035.9316,608.25 v 20 h 180.9297 v -20 z"
       id="path1591" />
    <path
       id="path1583"
       d="m 5216.8613,466.25 -15.8551,-19.43473 -165.0746,161.43473 20.0147,11.60632 z"
       style="color:#000000;fill:#000000;stroke-width:25" />
    <path
       id="path1579"
       d="m 3781.5625,454.91211 h -28 l 96.4531,174.78125 56.8008,-101.26563 58.5215,101.60743 97.7637,-174.91211 h -30 l -68.0899,124.25586 -58.4844,-101.54102 -56.3339,100.43555 z"
       style="color:#000000;fill:#000000;stroke-width:25" />
    <path
       id="path1575"
       d="m 4202.1489,448.91098 h 35.08 l 180,179.34171 h -35.08 z"
       style="color:#000000;fill:#000000;stroke-width:25;stroke-linecap:square;paint-order:fill markers stroke" />
    <path
       id="path1571"
       d="m 4417.2289,448.91098 h -35.08 l -180,179.34171 h 35.08 z"
       style="color:#000000;fill:#000000;stroke-width:25;stroke-linecap:square;paint-order:fill markers stroke" />
    <path
       style="color:#000000;fill:none;stroke-width:20"
       d="m 2308.5569,489.11209 c 0,-11.46034 -16.9377,-37.48894 -54.049,-37.48894 -35.3639,0 -51.9976,18.76638 -51.9976,40.99248 0,50.09647 114.0523,24.79404 114.0523,85.07995 0,27.17836 -23.3904,41.78894 -57.6329,41.78894 -34.3981,0 -60.0366,-19.61758 -60.0366,-41.63542"
       id="path1563" />
    <path
       style="color:#000000;fill:#000000;stroke-width:20"
       d="m 2254.5078,441.62305 c -19.4508,0 -35.0381,5.22573 -45.8262,14.61914 -10.788,9.3934 -16.1718,22.76539 -16.1718,36.37304 0,16.31853 10.719,28.26557 23.1718,34.80469 12.4529,6.53912 27.1986,9.88712 41.3204,13.58789 14.1217,3.70077 27.532,7.74792 36.3242,13.41211 8.7922,5.66419 13.2363,11.35702 13.2363,23.27539 0,10.72042 -3.8822,17.44433 -11.6895,22.87891 -7.8073,5.43458 -20.2443,8.91015 -35.9433,8.91015 -15.298,0 -28.3446,-4.43458 -37.1016,-10.69531 -8.7569,-6.26072 -12.9355,-13.81201 -12.9355,-20.93945 h -20 c 0,14.89038 8.6409,28.15648 21.3027,37.20898 12.6618,9.05251 29.6343,14.42578 48.7344,14.42578 18.5435,0 34.9226,-3.82885 47.3711,-12.49414 12.4485,-8.66528 20.2617,-22.837 20.2617,-39.29492 0,-18.22455 -9.8117,-31.97537 -22.4043,-40.08789 -12.5926,-8.11251 -27.6946,-12.1739 -42.0859,-15.94531 -14.3913,-3.77141 -28.1599,-7.25899 -37.0918,-11.94922 -8.9319,-4.69023 -12.4707,-10.36797 -12.4707,-19.09766 0,-8.61842 2.9349,-13.74276 9.3047,-19.28906 6.3697,-5.54629 16.7803,-9.70312 32.6933,-9.70312 16.2178,0 27.1362,5.51219 34.2735,11.89843 7.1372,6.38625 9.7753,14.78615 9.7753,15.58985 h 20 c 0,-10.65663 -5.83,-21.00101 -16.4394,-30.49414 -10.6095,-9.49313 -26.7159,-16.99414 -47.6094,-16.99414 z"
       id="path1567" />
    <path
       style="color:#000000;fill:none;stroke-width:20"
       d="M 4715.3605,448.79569 V 629.7244"
       id="path1547" />
    <path
       style="color:#000000;fill:#000000;stroke-width:20"
       d="m 4705.3613,528.79492 v 100.92969 h 20 V 528.79492 Z"
       id="path1551" />
    <path
       style="color:#000000;fill:#000000;stroke-width:20"
       d="m 4615.3613,450.79492 90,98.92969 20,-10 -80,-88.92969 z"
       id="path1555" />
    <path
       style="color:#000000;fill:#000000;stroke-width:20"
       d="m 4813.3613,450.79492 -90,98.92969 -20,-10 80,-88.92969 z"
       id="path1559" />
  </g>
</svg>
