<?xml version="1.0" encoding="UTF-8" standalone="no"?>
<svg
   xmlns:svg="http://www.w3.org/2000/svg"
   xmlns="http://www.w3.org/2000/svg"
   viewBox="0 0 359 262"
   height="262"
   width="359"
   id="svg2"
   version="1.1">
  <defs
     id="defs6" />
  <g
     id="g8">
    <g
       transform="matrix(0.74108557,0,0,0.74108557,89.55924,10.129585)"
       id="g836">
      <path
         d="m 132.0419,286.51364 c -2.07791,-0.63203 -0.18398,-4.26897 0.67475,-5.32009 2.99026,-1.26313 6.14232,-1.82689 9.07769,-3.2765 1.44463,0.46304 2.43244,-0.50917 3.81126,-0.70031 1.63948,-0.12067 3.18387,-0.16433 4.48475,0.97439 2.31675,0.19116 3.95967,2.12312 6.33722,1.66506 1.64916,-0.0293 3.2849,-0.11192 4.62476,1.01588 1.97312,0.25196 8.5919,5.73544 3.62602,5.66963 -2.65631,-0.17773 -5.4919,0.0645 -8.05965,-0.57248 -2.03268,-0.5176 -4.16296,-1.16181 -6.31163,-1.15713 -6.43357,-1.02429 -12.79385,2.10254 -18.26517,1.70155 z m 70.82717,-2.32515 c -0.68724,-3.5565 3.94252,-6.64654 6.23493,-9.3468 4.60762,-2.16084 8.15195,-10.247 13.33953,-15.08877 2.7065,-2.52597 6.32256,-5.79872 10.57221,-3.41151 2.10345,-0.0708 4.07192,0.70531 5.37497,2.36165 0.86962,3.94501 -4.09718,4.40804 -6.39802,6.50527 -1.93417,1.46053 -4.59326,0.0901 -6.52742,1.68096 -2.27527,1.34952 -6.51993,2.13745 -6.16073,5.5552 0.0892,1.96223 -2.13121,2.85867 -3.16923,4.3008 -3.94751,2.23036 -5.22032,5.91719 -9.81327,7.15602 -1.1278,0.19364 -2.52753,1.62952 -3.45297,0.28718 z m 41.17941,-16.89102 c -0.70655,-3.54217 6.03756,-4.9793 7.364,-7.62718 2.50072,3.84149 -2.67096,7.12639 -5.9487,7.94864 l -0.80633,-0.011 z"
         style="fill:#000000;fill-opacity:1;fill-rule:nonzero;stroke:none;stroke-width:0.311809"
         id="path12" />
      <path
         d="m -34.991556,222.85964 c -0.454307,-0.11194 -1.207016,-0.48487 -1.672545,-0.82817 l -0.845005,-0.62611 -4.0635,0.16682 -4.061939,0.16681 -0.665089,-0.25194 -0.663843,-0.25225 v -1.06701 c 0,-0.58714 -0.122852,-1.39223 -0.274081,-1.78792 l -0.27408,-0.72121 -0.870884,0.13034 -0.870883,0.13158 -0.992489,-0.5017 c -0.545666,-0.27533 -1.068259,-0.62487 -1.160866,-0.77485 -0.09261,-0.15092 -0.55159,-0.27283 -1.018057,-0.27283 h -0.850304 l -0.571236,-0.71717 -0.572482,-0.71747 -0.317732,0.19613 c -0.175549,0.1082 -0.492348,0.61364 -0.705312,1.12283 l -0.387268,0.927 -0.704066,0.26785 c -0.387267,0.14748 -1.036454,0.26815 -1.442119,0.26815 h -0.738053 l -0.861215,-0.88927 -0.861219,-0.88804 v -3.03141 l -0.728387,-0.8662 c -1.572452,-1.86837 -3.650351,-3.59298 -5.378709,-4.46262 l -1.810988,-0.91111 h -3.595786 l -0.685668,-0.53849 -0.684423,-0.53943 h -0.950084 c -0.523839,0 -1.244741,-0.11069 -1.60301,-0.24727 l -0.652617,-0.24851 -0.465533,-1.30087 c -0.255682,-0.71622 -0.651369,-1.81847 -0.880548,-2.45175 l -0.41533,-1.14964 -1.946315,-1.8138 -1.946312,-1.81473 -1.186437,-0.40317 -1.186433,-0.40442 v -1.61766 l 1.144964,-0.51761 1.14621,-0.5176 v -0.5017 c 0,-0.71373 -0.691903,-1.67722 -1.824707,-2.54218 l -0.97534,-0.74398 -1.873351,-0.14749 -1.873349,-0.14842 -1.079173,-1.4496 0.982824,-1.99028 c 0.540988,-1.09382 0.984381,-2.09723 0.984381,-2.22881 0,-0.13158 -0.305885,-0.48611 -0.678497,-0.78825 l -0.678498,-0.5491 0.27408,-0.94166 c 0.150918,-0.51761 0.274081,-1.76485 0.274081,-2.77324 v -1.83188 l -1.241313,-1.32643 -1.239753,-1.32644 -0.348291,-2.84775 -0.942911,-0.47146 c -0.518852,-0.25943 -1.060776,-0.51012 -1.205767,-0.55908 -0.143745,-0.0486 -0.326464,-0.80384 -0.404418,-1.67815 l -0.14125,-1.5921 -1.616419,-0.85872 -1.617355,-0.85997 -1.489513,-0.0218 -1.488572,-0.0218 -0.5993,-0.41907 -0.5993,-0.42032 -0.77329,0.45805 -0.77453,0.4568 -1.36198,-0.34112 -0.006,-1.01214 c -0.0109,-2.0121 -0.52384,-4.61976 -1.08884,-5.53336 -0.3168,-0.51293 -0.57623,-1.31896 -0.57623,-1.79291 0,-1.13997 -0.39818,-1.83687 -1.72711,-3.01956 l -1.10225,-0.9791 v -3.84273 l 1.43246,-1.31802 1.43214,-1.31677 -0.0839,-4.71955 -0.0854,-4.71861 -0.60647,-0.81975 c -0.33364,-0.45056 -0.60647,-1.17427 -0.60647,-1.60769 v -0.7895 l 4.59919,-4.10216 h 0.56499 c 1.22666,0 3.728309,-2.2996 3.728309,-3.42866 0,-0.18646 -0.424997,-0.89645 -0.945095,-1.57744 -0.520094,-0.68068 -0.875874,-1.34826 -0.792934,-1.48328 0.26567,-0.42998 1.492012,-0.26691 2.203248,0.29217 0.822241,0.64669 1.62858,0.68567 2.436166,0.12067 0.328959,-0.23012 1.269064,-0.52758 2.090059,-0.66135 0.820993,-0.13283 1.808805,-0.49079 2.193579,-0.79418 l 0.701571,-0.5519 h 3.349454 l 1.26813,-0.67351 c 0.696582,-0.37012 1.613924,-0.67351 2.038922,-0.67351 0.65168,0 2.583338,-0.87337 5.210645,-2.35322 0.323969,-0.18397 1.467686,-0.33488 2.539376,-0.33738 l 1.948807,-0.004 0.850304,-0.75988 0.849058,-0.75895 0.04241,-1.63824 c 0.02308,-0.90113 0.193634,-1.82066 0.377602,-2.0436 l 0.334883,-0.40442 7.105823,0.14843 7.104886,0.14748 2.435855,-1.42746 h 3.437387 l 0.913289,-0.67351 c 0.502014,-0.37043 1.054851,-0.67351 1.226657,-0.67351 0.173054,0 0.74429,-0.29123 1.267818,-0.647 0.52384,-0.35546 1.237571,-0.73307 1.587108,-0.84033 0.348293,-0.10601 0.852488,-0.38602 1.120643,-0.62237 0.583396,-0.51168 1.868363,-0.46148 2.734256,0.10601 l 0.626115,0.4091 1.579938,-0.75146 1.578378,-0.75271 0.362946,-1.14496 0.361699,-1.14622 0.716225,-0.0365 c 0.393504,-0.0206 1.593347,-0.008 2.665034,0.0268 l 1.950057,0.0658 1.263139,-0.83658 c 0.692841,-0.4593 1.372584,-0.83565 1.509156,-0.83565 0.136262,0 0.55658,-0.24228 0.934182,-0.5385 l 0.684422,-0.53943 h 3.303307 l 0.965673,0.51761 0.967233,0.5176 1.429958,-0.7075 1.431205,-0.70905 0.966922,0.0243 c 0.532258,0.0147 1.419044,0.0511 1.969698,0.0829 l 1.002467,0.0583 1.76827,-1.062018 1.857449,-0.163077 c 1.022112,-0.08887 2.052329,-0.328958 2.289928,-0.532259 0.649187,-0.554395 1.1742733,-0.674755 1.8477813,-0.425306 l 0.606471,0.225438 v 1.373835 c 0,2.259367 0.863711,3.133987 1.755174,1.774817 l 0.420318,-0.64202 -0.107261,-0.96942 -0.107263,-0.968472 0.38259,-0.545668 c 0.209536,-0.299648 0.539431,-0.544419 0.734311,-0.544419 0.193945,0 0.651683,-0.235103 1.017121,-0.52259 0.365442,-0.287176 1.305858,-0.767051 2.09006,-1.064517 l 1.42527896,-0.541926 1.476105,0.29466 0.83190704,-0.429673 0.833155,-0.429986 H 13.859019 l 0.992489,-0.673819 0.9928,-0.674755 h 3.359122 l 1.320513,0.925761 1.757356,-0.07795 1.75767,-0.0792 0.424997,-0.383526 c 0.233857,-0.212028 0.937921,-0.385083 1.564036,-0.385083 h 1.13748 l 0.991554,0.674755 0.991554,0.673819 h 4.597939 l 1.006208,-0.539742 c 1.25815,-0.673508 1.704974,-0.673508 3.027669,0 l 1.057345,0.539742 0.549409,-0.171805 c 0.302144,-0.0951 0.837831,-0.398493 1.192358,-0.674757 l 0.642017,-0.502012 h 2.119055 l 0.883044,0.674755 c 0.486112,0.37043 1.091334,0.673819 1.347328,0.673819 0.534753,0 1.46644,-0.461788 1.991526,-0.986563 0.198311,-0.198624 0.831909,-0.362011 1.407819,-0.362011 h 1.046433 l 1.023047,0.699387 1.021799,0.697829 1.482342,-0.180224 c 1.712455,-0.208289 1.577443,-0.209536 7.957373,0.0608 l 4.857366,0.204545 0.769857,0.606782 c 1.00465,0.791683 2.079143,0.768298 3.072881,-0.06704 0.439651,-0.371676 0.885537,-0.673508 0.990305,-0.673508 0.103522,0 0.608964,-0.199868 1.121578,-0.443393 l 0.933246,-0.442144 1.494503,0.507938 1.495436,0.508873 0.846563,1.030528 0.846557,1.031777 1.83313,0.923266 1.83437,0.924517 h 3.27525 l 0.9744,0.60272 0.97441,0.60429 3.56616,-0.10726 0.44714,0.32771 c 0.24601,0.18023 0.60646,0.93293 0.80135,1.67223 l 0.35327,1.34577 -0.25225,0.75053 -0.25069,0.75021 0.32771,0.39475 c 0.18022,0.21796 0.48455,0.39569 0.67475,0.39569 0.19114,0 0.93637,0.46522 1.65758,1.0352 1.58586,1.25348 2.31425,1.65914 2.97934,1.65914 0.63079,0 2.22507,1.61361 2.22507,2.25314 0,0.80384 0.53974,1.58336 2.326407,3.35943 l 1.7162,1.70622 v 1.36666 l 1.04643,1.04643 c 0.57466,0.57467 1.29089,1.04612 1.59179,1.04612 0.29965,0 1.1936,0.52634 1.98529,1.16929 0.79168,0.64326 1.80288,1.28871 2.24721,1.4337 l 0.80883,0.2641 0.5385,0.94884 c 0.29715,0.52134 0.89021,1.45552 1.3202,2.07571 l 0.78201,1.12781 -0.31056,0.67944 c -0.42749,0.93917 -0.38726,2.33514 0.0864,2.96 0.51636,0.68318 0.51761,1.86462 0.003,2.65163 l -0.41035,0.6258 0.72933,1.45334 c 0.40192,0.79761 0.98064,1.73304 1.28621,2.0779 l 0.5544,0.62705 v 3.68465 l -0.56157,0.76362 c -0.30932,0.42126 -0.64326,1.08884 -0.74055,1.48484 l -0.17898,0.71965 -3.32045,1.65914 -0.96693,-0.004 c -1.15587,-0.005 -1.26937,-0.078 -2.40062,-1.53098 -0.48361,-0.62113 -1.12563,-1.20827 -1.42652,-1.30337 l -0.54816,-0.1743 -0.51886,0.47021 c -0.59555,0.53849 -0.66134,1.43963 -0.19831,2.71991 l 0.32273,0.89022 -0.52384,0.9769 c -0.28874,0.53725 -0.77204,1.44835 -1.07419,2.02551 -0.30214,0.57747 -1.07075,1.57994 -1.70653,2.22788 l -1.15712,1.17895 0.18022,6.76252 1.31553,1.39816 -0.039,2.56743 -0.70625,1.03895 c -0.38758,0.57248 -0.70531,1.18519 -0.70531,1.36074 0,0.17648 -0.62362,0.95101 -1.386297,1.72212 l -1.38724,1.40189 0.17554,2.49697 0.17649,2.49822 -0.36544,0.50045 -0.36669,0.49952 -1.55032,0.12909 -1.55063,0.12784 -0.40691,0.97441 c -0.50544,1.21418 -0.74522,1.37009 -2.12155,1.37508 l -1.10349,0.004 -0.42531,0.47239 c -0.23385,0.25943 -0.50887,0.81008 -0.61239,1.22416 -0.10352,0.41409 -1.07917,1.7003 -2.16926,2.85867 l -1.98061,2.10596 -3.04513,0.35796 -1.35419,1.06483 H 74.26167 l -0.525089,1.18612 -0.523839,1.18768 -0.826919,0.28749 -0.825983,0.28749 -0.4225,1.07792 -0.422502,1.07668 -0.91859,0.30183 c -0.997478,0.33021 -2.047341,1.30461 -2.673454,2.48356 l -0.396932,0.74928 -0.884293,-0.0599 -0.883044,-0.0596 -0.928256,0.57373 c -1.173026,0.72464 -2.098475,1.96689 -2.309258,3.09845 -0.208289,1.12189 -1.526307,2.52503 -2.565257,2.73332 -0.443393,0.0889 -1.114405,0.40441 -1.493254,0.70157 -0.378848,0.2984 -0.890216,0.54192 -1.138727,0.54192 -0.247266,0 -0.861218,0.30339 -1.362918,0.67351 l -0.912356,0.67351 -1.767335,0.004 -1.766088,0.005 -0.673508,0.38852 c -0.370429,0.21421 -0.976898,0.52851 -1.347327,0.69907 -0.370119,0.17056 -0.976587,0.48362 -1.347017,0.69658 -0.371365,0.21328 -1.159619,0.61146 -1.751434,0.88554 -0.593062,0.27284 -1.557799,0.9953 -2.143688,1.60426 l -1.064517,1.10724 h -0.583396 c -0.320541,0 -0.890527,-0.24384 -1.266881,-0.53974 l -0.685668,-0.53819 h -0.934182 c -0.51511,0 -1.076677,0.16931 -1.248485,0.3776 -0.173054,0.20704 -0.633285,0.45774 -1.023045,0.55534 l -0.707808,0.17773 -0.725892,-0.53725 c -0.93917,-0.69284 -2.365387,-0.95102 -3.966839,-0.71716 l -1.277793,0.1874 -3.503178,3.73703 -1.482031,0.2482 c -0.815069,0.13782 -1.962215,0.49952 -2.549352,0.80416 -0.587138,0.30557 -1.318018,0.55533 -1.624839,0.55533 -0.820995,0 -1.666308,-0.69315 -1.879275,-1.54096 -0.265661,-1.05828 -0.643263,-1.42247 -1.470182,-1.42247 -0.952576,0 -1.369153,0.4568 -1.369153,1.50291 v 0.85748 l -0.987812,0.75396 -0.987812,0.7527 -1.456775,0.22918 c -0.801348,0.12535 -1.78199,0.46023 -2.178922,0.74398 -0.7015707,0.50201 -1.4383777,0.63578 -3.1923047,0.57747 l -0.855292,-0.0293 -1.600207,-1.34701 h -0.939169 c -1.072001,0 -1.403143,0.30931 -1.670051,1.5553 -0.103521,0.48611 -0.492035,1.2435 -0.8634,1.68439 l -0.67475404,0.80291 H -3.6507507 l -1.244744,1.24849 c -0.68442,0.68567 -1.746444,1.46394 -2.360396,1.72836 -0.612705,0.2641 -1.196101,0.61239 -1.295879,0.77204 -0.09884,0.16089 -0.783266,0.29247 -1.5200703,0.29247 h -1.341617 l -0.676003,-0.44214 -0.674755,-0.4434 -0.674754,0.30807 c -0.916098,0.41783 -2.02302,0.37386 -2.655369,-0.10476 -0.567494,-0.42999 -2.488239,-0.52852 -3.072881,-0.1584 l -0.362947,0.23042 -1.36666,-0.52009 c -0.75146,-0.285 -1.666308,-0.75396 -2.03175,-1.04145 -0.869637,-0.68348 -1.957226,-0.66384 -2.869582,0.0536 l -0.733062,0.57716 -1.955044,0.19114 -1.953798,0.19145 -0.7842,0.55908 c -0.902688,0.6417 -2.56775,0.91703 -3.76728,0.62112 z m 30.8616393,-11.66011 c 0.302143,-0.32397 0.549409,-0.73307 0.549409,-0.90986 0,-0.47489 -0.762374,-2.21167 -1.048615,-2.38846 -0.136572,-0.0839 -0.185214,-0.84999 -0.109758,-1.70279 l 0.137821,-1.54907 -0.587137,-0.74055 c -0.322723,-0.40816 -0.790437,-0.73961 -1.03895,-0.73712 -0.604286,0.006 -1.587108,1.07575 -1.812546,1.9722 l -0.181473,0.72215 0.908611,1.38599 -0.175236,1.03178 -0.174303,1.03271 0.427491,0.82598 c 0.40816,0.78795 1.532231,1.61393 2.229125,1.637 0.17898,0.006 0.573731,-0.25475 0.875561,-0.57996 z m 7.250813,-1.05454 c 0.912356,-0.31805 1.382563,-0.94167 1.382563,-1.83438 0,-0.30214 0.310562,-0.75395 0.68941,-1.00246 l 0.69066,-0.45182 0.935428,0.44558 c 0.515107,0.24508 1.21169,0.44589 1.549068,0.44589 0.67725,0 1.7929017,-0.9002 1.7929017,-1.44586 0,-0.45649 -1.0545377,-1.40782 -1.8184717,-1.63918 -0.787941,-0.2401 -0.767362,-0.71155 0.06704,-1.49575 l 0.673508,-0.63235 v -1.89767 l -0.723397,-0.75489 c -0.398181,-0.41658 -0.917032,-0.75645 -1.152136,-0.75645 -0.642014,0 -2.115938,1.46145 -2.328905,2.30676 -0.235103,0.93668 0.09853,1.46519 1.337351,2.11937 1.029282,0.54442 1.196102,0.90986 0.657606,1.44835 -0.482369,0.48206 -1.131556,0.3932 -1.979054,-0.27408 l -0.76019,-0.59805 -1.76983,-0.18396 c -0.973158,-0.0998 -1.95972104,-0.0817 -2.19233204,0.0427 -0.232608,0.1241 -0.640768,0.70999 -0.907365,1.30056 l -0.48486296,1.0745 -1.580873,0.65511 0.08169,0.67974 0.08138,0.68099 0.86496,0.29092 c 0.476133,0.1609 1.02179896,0.48985 1.21324996,0.72964 0.809768,1.02304 2.12529304,1.2887 3.68059604,0.74678 z m 20.1092097,-2.26935 1.077924,-0.66384 1.347327,-0.0277 c 1.81473,-0.038 2.416524,-0.24259 3.36879,-1.14278 l 0.807585,-0.76362 v -1.00123 c 0,-0.55034 -0.145927,-1.14714 -0.323969,-1.32518 -0.395686,-0.39569 -1.950056,-0.42251 -2.657551,-0.0437 l -0.521347,0.27876 -0.559072,-0.29965 -0.559075,-0.2984 0.205794,-1.12532 c 0.319292,-1.74302 0.224192,-2.23754 -0.656359,-3.43489 -0.450877,-0.61271 -0.757697,-1.27281 -0.682239,-1.46769 0.07546,-0.19613 0.940417,-0.69658 1.921994,-1.1144 0.981886,-0.41783 2.084134,-1.09383 2.449573,-1.50417 0.364194,-0.40941 0.891463,-0.74429 1.169285,-0.74429 0.656359,0 1.829386,-1.17552 1.829386,-1.83188 0,-0.28001 -0.242587,-0.72963 -0.539742,-0.99873 l -0.539431,-0.48829 -0.605222,0.31056 c -0.333948,0.17025 -0.787006,0.41658 -1.009949,0.54692 -1.154631,0.67569 -3.14834,1.41873 -4.187289,1.56123 l -1.173027,0.16089 -0.58963,0.62861 -0.590567,0.62829 0.157152,1.02087 c 0.08762,0.56125 0.236039,1.28247 0.331142,1.6027 l 0.1743,0.58121 -5.753817,0.1849 -0.78576,0.87961 c -0.839079,0.94011 -0.997477,1.70747 -0.445888,2.16552 0.18771,0.15591 1.030531,0.54068 1.875847,0.85748 0.844067,0.31555 1.783236,0.77952 2.086315,1.03052 l 0.551903,0.45556 -0.29466,1.07792 c -0.16214,0.59307 -0.617694,1.72462 -1.012444,2.51631 l -0.717163,1.43712 0.63578,0.51667 0.635778,0.51511 1.250981,-0.009 1.249418,-0.008 z m -5.577022,-2.06698 -0.0817,-1.09726 -0.585889,-0.38727 -0.587138,-0.38758 -0.559072,0.55783 c -0.30682,0.30838 -0.557829,0.85404 -0.557829,1.21325 v 0.65418 l 0.701571,0.55283 0.70282,0.55191 0.525086,-0.28032 0.524776,-0.28125 z m 18.422317,-2.2971 c 0.394439,-0.37012 0.796362,-0.98158 0.890216,-1.35793 0.256932,-1.02087 1.50791,-2.6931 3.372843,-4.51033 1.962214,-1.91107 2.427435,-2.70401 2.427435,-4.13521 v -1.06327 l 1.313028,-0.84157 1.31303,-0.84282 0.673508,0.25568 0.674755,0.25568 0.12067,1.67255 0.120359,1.67348 0.504196,0.36762 0.50326,0.36794 h 2.931631 l 0.88554,-0.93917 c 0.486109,-0.51511 0.971909,-1.33361 1.077924,-1.81847 0.106014,-0.48331 0.419072,-1.30305 0.695334,-1.81972 0.277822,-0.51636 0.50326,-1.13374 0.50326,-1.37259 0,-0.23884 0.255685,-0.66509 0.567494,-0.94634 l 0.567494,-0.51417 h 2.483561 l 0.342367,-0.67351 c 0.188643,-0.37012 0.344548,-1.42622 0.347044,-2.3445 0.0012,-0.91952 0.148733,-1.99027 0.325215,-2.37754 l 0.321476,-0.70656 -0.321476,-0.51511 c -0.176482,-0.28375 -0.321474,-0.69908 -0.321474,-0.92327 v -0.40816 h 0.622371 c 0.342367,0 0.845316,-0.16307 1.119396,-0.36419 l 0.497959,-0.36295 -0.328646,-2.91105 0.325215,-0.55284 c 0.177732,-0.30463 0.899882,-1.07792 1.602701,-1.71869 0.704064,-0.64077 1.280288,-1.34327 1.280288,-1.56279 0,-0.21795 0.300897,-0.96099 0.667271,-1.64916 1.067012,-1.99994 2.028008,-4.23125 2.028008,-4.70738 0,-0.24259 0.303392,-0.63827 0.673508,-0.8818 l 0.675068,-0.4409 0.739299,0.1874 c 2.554032,0.64669 3.539349,0.42874 4.247157,-0.94042 l 0.412835,-0.79885 -0.571236,-1.12064 -0.572482,-1.12158 0.566248,-1.13281 0.565309,-1.1328 v -4.55179 l 0.673508,-0.91329 c 0.856228,-1.15962 0.85124,-2.00494 -0.01934,-3.26059 l -0.691903,-0.99997 v -3.09877 l 0.59805,-0.81008 0.598049,-0.80852 0.191141,-1.9538 0.191138,-1.95504 0.57747,-0.73306 c 0.723399,-0.91953 0.736806,-2.00244 0.03524,-2.89391 -0.298401,-0.37885 -0.661347,-1.31427 -0.806338,-2.07789 -0.144992,-0.76518 -0.506691,-1.69937 -0.805093,-2.07915 l -0.541924,-0.68816 v -6.99638 l -1.854954,-1.81099 -1.855264,-1.81255 -0.19956,-0.90611 -0.198622,-0.90643 -1.516328,-1.51633 c -0.833156,-0.83316 -1.877093,-1.60644 -2.319238,-1.71745 -0.442146,-0.11069 -1.412809,-0.71498 -2.15585,-1.34203 -0.743041,-0.62736 -1.724616,-1.2912 -2.181418,-1.47392 -0.4568,-0.18397 -1.603945,-1.11565 -2.550599,-2.07041 l -1.720876,-1.73709 -0.817253,-0.12286 c -0.450563,-0.067 -2.71617,-0.19238 -5.035409,-0.28031 l -4.217845,-0.1584 -0.767362,0.66758 -0.767362,0.66883 0.538493,1.01806 0.539431,1.01837 1.212004,0.4593 c 0.667582,0.25194 1.813481,0.66851 2.549352,0.92669 1.264074,0.4434 1.828137,0.87338 2.897645,2.21073 l 0.461477,0.57841 1.121889,-0.39569 c 0.617383,-0.21795 1.222918,-0.396 1.347017,-0.396 0.124412,0 0.999972,0.72371 1.945068,1.60801 0.945404,0.88522 2.28026,1.84871 2.965929,2.14244 l 1.24599,0.53475 0.162142,0.64794 c 0.228867,0.91111 2.744232,3.30923 4.031381,3.84274 0.592126,0.24477 1.167103,0.58464 1.2753,0.75271 0.318045,0.49203 0.236352,2.45924 -0.116929,2.81252 -0.507937,0.50762 -0.716224,0.39443 -1.224162,-0.66634 l -0.47364,-0.99031 -0.824734,-0.28998 c -0.45306,-0.15934 -1.284967,-0.80509 -1.849966,-1.43464 l -1.025539,-1.14621 h -1.976871 l -0.460544,0.78077 -0.46023,0.77953 -1.147457,0.1718 c -0.630792,0.0948 -1.641676,0.23854 -2.247211,0.32148 l -1.102246,0.14967 -1.434946,-1.70498 v -1.13155 c 0,-0.62237 -0.193634,-1.40938 -0.429986,-1.74676 l -0.430919,-0.61488 -0.760192,0.16806 -0.761127,0.16682 -1.16679,-0.73712 -1.165854,-0.73681 -1.077927,-0.0524 c -0.593061,-0.0281 -1.530982,-0.14499 -2.085069,-0.25818 l -1.006207,-0.20454 -1.897673,1.44679 -1.63201,0.0234 -1.631074,0.0231 -1.598024,-1.18145 -1.338597,-0.15964 -1.337349,-0.1584 -0.862154,-0.63578 c -0.475197,-0.34954 -0.997477,-0.63578 -1.162112,-0.63578 -0.165571,0 -0.711239,-0.30308 -1.212939,-0.67476 l -0.9136,-0.67351 h -7.257051 l -1.602701,1.60426 -1.603011,1.60271 c 5.71141,28.50748 -35.335482,35.43681 -44.351137,15.66342 l -1.545638,-1.62452 h -3.092525 l -1.907338,1.75143 -0.271585,1.21169 c -0.339871,1.52132 -1.107236,2.35104 -2.511624,2.71867 l -1.095076,0.28749 -1.931658,1.90484 -1.931659,1.90391 -0.87213,2.28244 -1.539715,0.54567 c -0.846562,0.30089 -1.842793,0.63328 -2.212911,0.73805 -1.548134,0.4409 -2.151171,2.05607 -1.170532,3.13898 l 0.445575,0.49204 h 0.879616 c 1.934151,0 2.182664,0.54691 0.908611,1.9962 l -0.822241,0.93793 -0.158398,1.02554 c -0.08762,0.56406 -0.505445,1.50416 -0.929194,2.08881 l -0.769857,1.06358 v 1.75018 l 0.599298,0.41908 c 0.32896,0.23011 1.122825,0.41876 1.763593,0.41876 0.642017,0 1.550629,0.19862 2.018343,0.44089 0.46896,0.24259 1.462698,0.51543 2.208234,0.60679 l 1.356682,0.16557 0.350786,1.0695 c 0.192698,0.58808 0.495776,1.1618 0.674754,1.27624 0.178045,0.1135 1.415303,0.20829 2.749223,0.21203 l 2.424941,0.005 1.617668,0.87431 1.665997,-0.007 1.667555,-0.007 0.616447,-0.43123 c 0.770793,-0.54099 2.277457,-0.55315 3.288654,-0.0256 0.423749,0.2217 0.92545,0.40192 1.114406,0.40192 0.187399,0 0.68941,-0.18022 1.114408,-0.40192 l 0.771104,-0.40317 4.639412,-0.002 4.6378523,-0.002 2.441153,-0.82817 0.47364,0.25319 c 0.259425,0.13907 1.042689,0.33863 1.739272,0.44215 0.695647,0.10477 1.659138,0.48112 2.140259,0.83565 l 0.874315,0.64544 h 2.75389696 l 0.91360204,-0.67475 0.913603,-0.67351 h 6.432314 l 2.4894847,-2.50913 1.302115,-0.48112 1.301805,-0.48237 0.668831,0.25475 c 0.986566,0.3751 2.344807,0.30931 2.940361,-0.14125 0.719658,-0.54442 1.455526,-0.50545 2.409041,0.12659 0.974403,0.64545 2.343558,0.69316 3.229098,0.11194 0.357955,-0.23386 0.84999,-0.99124 1.093826,-1.68315 0.243522,-0.6919 0.598049,-1.56154 0.785448,-1.93165 0.188957,-0.37043 0.426242,-1.02461 0.528517,-1.4521 0.102584,-0.42749 0.497024,-1.18488 0.877118,-1.68439 l 0.69066,-0.90612 h 4.539318 l 1.294944,-1.21076 1.295881,-1.21075 0.873376,-0.17524 c 0.956008,-0.19145 2.711184,-1.80881 2.711184,-2.49822 0,-0.23884 0.30339,-1.00246 0.673508,-1.6978 0.37043,-0.69689 0.673508,-1.46768 0.673508,-1.71402 0,-0.24601 0.931998,-1.40407 2.070725,-2.57461 l 2.070726,-2.12809 0.970664,-0.26068 c 0.534751,-0.14343 1.537219,-0.76112 2.227565,-1.37258 0.691905,-0.61021 1.651655,-1.31054 2.134022,-1.55406 l 0.87712,-0.44339 0.219202,-0.86964 c 0.272834,-1.07668 0.697829,-1.30211 2.858668,-1.51757 0.937923,-0.0926 2.057006,-0.37761 2.486992,-0.63111 l 0.780771,-0.46023 0.813822,0.77828 c 0.446822,0.42874 0.812263,0.92077 0.812263,1.09258 0,0.17149 -0.484863,0.53101 -1.077924,0.79885 -0.591815,0.26691 -1.077927,0.57124 -1.077927,0.67601 0,0.10601 -0.414081,0.71622 -0.922018,1.35699 -0.506691,0.64046 -1.001222,1.58337 -1.096322,2.09255 l -0.173989,0.92795 0.328646,0.79293 0.328959,0.79418 1.25472,-0.17181 1.254409,-0.17274 0.605222,0.49079 0.605533,0.48954 0.04272,0.94291 c 0.02308,0.51885 -0.05488,2.0436 -0.174301,3.39061 l -0.216708,2.44833 0.896451,0.89645 1.126569,-0.0122 c 0.618629,-0.006 1.60301,-0.18147 2.18516,-0.38851 0.583393,-0.20829 1.159306,-0.3168 1.279976,-0.24228 0.365439,0.22513 0.247264,1.36292 -0.176485,1.71495 -0.522591,0.43342 -0.77578,1.86088 -0.473948,2.6747 l 0.240091,0.64794 -0.347354,0.96817 -0.345798,0.96973 -0.03149,5.65872 -0.388827,0.6735 c -0.212967,0.37043 -0.51511,0.9769 -0.669766,1.34733 -0.507938,1.21917 -0.693153,1.41406 -1.634504,1.71838 l -0.932935,0.30215 -0.460542,0.98063 -0.461477,0.97909 -0.880862,0.30713 c -1.238507,0.43217 -2.340752,1.57588 -2.539376,2.63822 -0.199868,1.06202 -0.761439,1.42746 -2.193579,1.42746 -1.381314,0 -1.755174,0.3433 -2.634787,2.42494 -0.405354,0.96349 -1.116901,2.56152 -1.579627,3.55058 l -0.840326,1.80007 -0.978146,0.38851 -0.978147,0.38977 -0.317732,0.96224 -0.318046,0.96349 -1.509158,0.4384 c -0.829412,0.24134 -1.75611,0.37386 -2.058253,0.29591 -0.300897,-0.0789 -0.701571,-0.0168 -0.888032,0.13782 l -0.339874,0.28125 0.143745,0.71748 c 0.0792,0.39475 -0.07795,1.31303 -0.34829,2.04141 l -0.490789,1.32394 -0.943847,0.31556 c -0.518851,0.17399 -1.100063,0.60896 -1.291202,0.96692 l -0.347043,0.65043 0.142496,1.16336 c 0.0792,0.64046 0.320227,1.4153 0.535689,1.72337 l 0.392255,0.56032 -0.540677,1.06078 c -0.298402,0.58339 -0.917344,1.26314 -1.375079,1.5104 -0.459295,0.24727 -1.056098,0.65886 -1.326437,0.91579 l -0.492035,0.46771 0.108198,2.88798 0.10851,2.88922 0.478626,0.35079 c 0.598052,0.43716 1.373832,0.21671 2.30583,-0.65542 z m 14.539357,-16.52964 -0.843131,-0.51261 v -0.65543 c 0,-1.59178 0.808834,-1.9803 1.839362,-0.88429 l 0.585892,0.62362 v 0.82972 c 0,1.05454 -0.512928,1.24943 -1.582123,0.59899 z m -19.762163,12.4493 c -0.11568,-0.59805 -0.983135,-0.71747 -1.196099,-0.16308 l -0.173054,0.45057 0.352032,0.21795 c 0.502949,0.31056 1.115655,0.006 1.017121,-0.50544 z m -60.207264,-73.3519 0.393504,-0.56157 -0.515421,-1.52599 c -0.869637,-2.57118 -3.437073,-5.43359 -4.874515,-5.43359 -0.711237,0 -1.834061,1.28746 -1.834061,2.10222 0,0.92576 1.411561,3.82215 2.23723,4.58952 0.767364,0.71498 2.398438,1.36292 3.473869,1.38007 l 0.725892,0.0122 z m 27.9190983,-0.9136 c 0.95475796,-0.49453 1.89642296,-1.65883 1.89642296,-2.34699 0,-0.28375 -0.823487,-1.38849 -1.82938596,-2.4555 -1.006207,-1.06701 -1.984354,-2.31799 -2.174246,-2.78071 -0.352032,-0.85997 -1.255655,-1.44929 -2.224136,-1.44929 -0.902375,0 -1.610183,-0.53008 -2.021771,-1.5154 -0.214524,-0.51261 -0.537247,-0.98781 -0.71872,-1.05578 -0.180227,-0.067 -1.113159,0.27158 -2.0729093,0.75271 l -1.745508,0.87556 -0.208289,0.74054 c -0.114434,0.40816 -0.300897,1.07076 -0.414084,1.47517 l -0.205794,0.73307 -2.282445,1.53223 v 0.50076 c 0,0.27533 0.311811,0.87089 0.692842,1.32519 l 0.693152,0.82318 1.062022,0.28624 1.06327,0.28624 0.987812,-0.27283 c 0.542237,-0.14967 1.4798473,-0.75271 2.0841343,-1.33735 1.247236,-1.21169 1.969387,-1.44804 2.398126,-0.78295 l 0.297153,0.46023 -0.339561,0.93667 -0.338625,0.93792 0.405354,0.96942 0.404416,0.96973 0.885539,0.38477 c 1.158371,0.50295 2.740491,0.50544 3.705231,0.007 z m 12.8424887,-11.0605 0.891776,-0.67975 0.97191,-2.04734 0.97066,-2.0464 -0.32771,-0.79293 c -0.355463,-0.85872 -1.807247,-2.10596 -2.450511,-2.10596 -0.472702,0 -1.449289,0.9928 -2.2266287,2.26186 -0.306821,0.50077 -0.906119,1.40813 -1.332361,2.01585 l -0.774534,1.10599 0.339871,0.81974 c 0.396933,0.95851 1.79384,2.14245 2.5322037,2.14744 0.282499,9.3e-4 0.914537,-0.30339 1.405324,-0.6785 z m -18.1750527,-1.65166 c 0.270649,-0.24477 0.493281,-0.58963 0.493281,-0.76611 0,-0.5176 -1.021798,-1.29245 -1.474856,-1.11815 -0.543173,0.20829 -1.065766,1.37134 -0.859972,1.90859 0.212031,0.55283 1.219176,0.53974 1.841547,-0.0243 z m 219.7208147,53.23303 -0.71967,-0.56656 -2.01585,-0.0583 c -1.10848,-0.0331 -2.11935,-0.1718 -2.2472,-0.30962 -0.12785,-0.13876 -0.38477,-0.73681 -0.57124,-1.32987 l -0.33987,-1.07668 -5.50282,-5.52495 h -1.51539 l -1.64041,-1.70154 c -0.90269,-0.93667 -2.33764,-2.453 -3.19014,-3.3691 l -1.54937,-1.66506 h -4.61136 l -0.79292,-0.86839 c -0.4359,-0.47738 -0.79293,-1.09009 -0.79293,-1.36042 0,-1.53598 -2.9622,-4.50534 -4.49567,-4.50908 -0.2691,0 -0.87432,-0.3617 -1.34452,-0.8026 l -0.85498,-0.80166 -0.43871,-1.51009 -0.43965,-1.51041 0.25941,-0.3143 c 0.14249,-0.17305 0.33021,-0.73805 0.41533,-1.2569 l 0.15592,-0.94292 -0.87807,-1.61735 -0.87806,-1.61642 -0.87088,-0.28375 c -0.47894,-0.1559 -0.98781,-0.40067 -1.13154,-0.54441 -0.37761,-0.37761 -0.83941,-3.97183 -0.63829,-4.97555 l 0.16931,-0.85124 -1.92448,-1.79664 -1.92574,-1.79665 v -5.44918 l -0.44463,-0.36918 c -0.24478,-0.2033 -0.82101,-0.49079 -1.27997,-0.63952 l -0.83441,-0.26909 -0.27033,-1.48234 c -0.1475,-0.81476 -0.46772,-1.78542 -0.71126,-2.15585 -0.24382,-0.37012 -0.52758,-1.2753 -0.63108,-2.00961 -0.10477,-0.73587 -0.42001,-1.63108 -0.70284,-1.99028 -0.62704,-0.79668 -0.64044,-1.17771 -0.0792,-2.3604 0.24008,-0.50451 0.37043,-1.1671 0.28998,-1.47143 -0.0792,-0.30588 0.0281,-0.96848 0.23884,-1.47267 l 0.38353,-0.91703 V 90.55863 l 0.6735,-0.99249 c 0.37043,-0.545665 0.67351,-1.147459 0.67351,-1.336415 0,-0.189892 0.49234,-0.869635 1.09382,-1.511338 0.60055,-0.643264 1.45305,-1.956294 1.89394,-2.919785 0.44122,-0.963177 0.95257,-2.05108 1.1353,-2.416521 l 0.33362,-0.664779 1.87587,-0.521344 7.43945,-7.464091 0.80291,-0.160583 c 0.85622,-0.171807 1.59303,-0.984381 1.59303,-1.757669 0,-0.258178 0.36295,-0.883044 0.80758,-1.388486 l 0.8076,-0.920772 1.62358,-0.116929 1.62359,-0.118177 1.13872,-1.103492 c 0.62613,-0.606782 1.6236,-1.302116 2.21666,-1.544391 0.59337,-0.24259 1.502,-0.849058 2.02083,-1.34733 0.51886,-0.497959 1.38133,-1.085097 1.91702,-1.305544 l 0.97439,-0.398493 0.1927,-0.768299 c 0.29092,-1.158371 0.65045,-1.445859 1.81225,-1.445859 1.26687,0 2.23628,-0.467714 3.30922,-1.596775 0.43747,-0.460544 1.24505,-0.957568 1.79415,-1.10599 l 0.99873,-0.26909 0.83316,-0.947588 0.83314,-0.948838 v -0.682238 c 0,-0.376353 0.30341,-1.081665 0.67477,-1.568712 l 0.67599,-0.88554 4.60668,-0.35328 0.72589,-0.532259 0.72713,-0.532259 0.58341,0.155906 c 0.32148,0.08637 0.72839,0.504196 0.90486,0.93044 0.1768,0.425306 0.48862,0.9136 0.69441,1.084161 l 0.37385,0.310562 0.66509,-0.43591 c 0.36669,-0.240094 1.23135,-0.628607 1.9245,-0.863713 l 1.25815,-0.427491 1.20203,0.303392 1.20233,0.302144 1.16678,-0.683487 1.16804,-0.684422 h 4.49443 l 0.99156,-0.673509 0.99029,-0.673819 h 4.63443 l 2.53094,-1.347016 h 2.0963 l 1.24475,-1.250978 1.24349,-1.250668 1.67722,-0.176796 1.67598,-0.177731 0.63079,-0.591815 c 0.75645,-0.711549 2.07915,-3.969645 2.07915,-5.124274 0,-0.453059 0.11349,-1.12189 0.251,-1.486082 l 0.25226,-0.661348 2.18516,-0.09853 2.18485,-0.09978 0.46054,-0.745536 -0.26442,-0.758945 -0.2641,-0.757383 0.47363,-0.800416 c 0.4908,-0.83066 1.05984,-1.099752 2.34732,-1.105987 0.41407,-0.0012 1.12656,-0.196129 1.58335,-0.432168 0.45649,-0.236352 1.14496,-0.369183 1.53099,-0.294973 0.38603,0.07452 1.04144,-0.04147 1.45553,-0.255683 1.01463,-0.525086 1.27655,-0.289982 1.27655,1.14746 0,1.617355 -0.33645,2.159278 -1.47142,2.372556 -1.05861,0.198622 -1.49201,0.790437 -1.49201,2.037673 v 0.840639 l 1.54907,0.678185 c 0.85154,0.374172 2.2656,1.03427 3.14147,1.467687 1.83781,0.909858 3.0523,0.997788 3.96217,0.286241 0.3542,-0.275329 0.94258,-0.595557 1.30927,-0.70999 0.36545,-0.115682 1.30087,-0.859972 2.07665,-1.654148 0.7758,-0.795427 1.57372,-1.444614 1.77327,-1.444614 0.19987,0 0.77483,-0.303079 1.27655,-0.673508 l 0.91359,-0.673508 h 2.25438 l 0.33395,0.401923 c 0.35546,0.42749 0.27751,1.074495 -0.29841,2.491044 l -0.35452,0.871819 0.32398,0.323034 0.32273,0.323969 2.39937,0.03274 2.39844,0.03399 0.69408,0.455553 c 1.06452,0.696894 1.60176,0.557827 2.88423,-0.743978 0.64919,-0.659164 1.48857,-1.274051 1.86244,-1.366658 0.37511,-0.09386 0.94759,-0.416579 1.27155,-0.719969 l 0.59089,-0.550342 3.03265,0.03149 3.03423,0.03305 1.92198,1.001219 0.93542,-0.500765 0.93419,-0.501703 h 4.05852 l 1.00589,0.538185 c 0.55314,0.297152 1.1328,0.539742 1.28745,0.539742 0.15468,0 0.85625,-0.537249 1.55782,-1.193606 l 1.27529,-1.193607 6.19003,-0.15497 c 3.4053,-0.08512 6.99016,-0.150915 7.96675,-0.14468 0.97689,0.0059 2.08787,-0.107261 2.46766,-0.252252 l 0.68941,-0.26192 1.17178,0.4568 c 0.64325,0.251006 1.49699,0.67725 1.89642,0.947589 0.39943,0.270338 1.36916,0.588384 2.15586,0.707808 0.78576,0.118174 1.90607,0.471142 2.48978,0.782953 l 1.05954,0.567805 0.69191,-0.149982 c 0.38009,-0.08263 0.99997,-0.197376 1.37632,-0.254437 l 0.68567,-0.103519 0.3592,1.216679 0.35951,1.217927 -0.77608,0.844067 c -0.42625,0.465532 -0.9267,1.012133 -1.11192,1.215745 -0.48485,0.534754 -0.45679,0.600545 0.87713,2.071662 1.29337,1.426528 1.46394,2.091304 0.78669,3.05729 l -0.42375,0.605222 0.17399,0.794179 0.17554,0.794178 -0.48236,0.816004 c -0.26566,0.448384 -0.57374,0.816318 -0.68693,0.816318 -0.11225,0 -0.4019,0.38103 -0.64201,0.847498 l -0.43841,0.847811 0.17649,3.261837 c 0.0976,1.792902 0.16464,4.093744 0.14874,5.110866 l -0.0293,1.849965 0.39723,0.439651 c 0.21795,0.242587 0.47365,0.749278 0.5675,1.12688 l 0.17181,0.68442 -0.5544,0.705313 c -0.30559,0.387267 -0.55408,0.816006 -0.55408,0.952265 0,0.136573 -0.39475,0.842821 -0.87589,1.570273 l -0.87556,1.321449 v 4.173877 l 1.76235,1.76266 5.03541,-0.163389 0.70999,0.843132 c 0.391,0.463972 0.70998,0.998726 0.70998,1.187371 0,0.358269 -3.04262,1.772323 -3.80999,1.771077 -0.24228,0 -0.72807,0.231361 -1.07792,0.515109 l -0.63579,0.515421 0.0318,1.93041 0.0327,1.931659 0.58123,0.784513 c 0.31898,0.432479 0.69656,1.401896 0.84031,2.155851 0.14249,0.753955 0.50296,1.680964 0.80136,2.059499 l 0.54222,0.688164 v 6.23151 l 1.42747,2.060747 v 4.558963 l -0.71374,1.02928 -0.71373,1.03053 v 8.92554 l -0.55064,0.70033 c -0.3034,0.38477 -0.62238,1.30211 -0.70875,2.03892 l -0.15965,1.34109 -1.04144,1.15089 c -1.13156,1.24973 -1.29119,1.71869 -0.91485,2.68437 l 0.16932,0.43248 -0.95351,1.24973 -0.95383,1.24848 -0.17523,1.14746 c -0.24478,1.60894 -0.50078,1.99496 -1.44711,2.18485 -0.94043,0.18771 -2.15709,1.36416 -2.15709,2.08538 0,0.2666 0.26566,0.66976 0.59086,0.8977 0.8051,0.56375 0.53446,0.73181 -1.52255,0.94509 -0.96974,0.0998 -1.8796,0.2984 -2.02085,0.43965 -0.14125,0.14125 -0.29216,1.28622 -0.33613,2.54561 l -0.0792,2.28868 -1.07792,0.25569 -1.07792,0.25475 -2.82936,2.8755 c -3.04014,3.0891 -3.58332,3.48478 -4.78067,3.48478 -0.42623,0 -0.99747,0.16339 -1.27031,0.36295 l -0.49702,0.36295 -0.0536,1.81005 -1.07794,0.21203 c -0.5918,0.11568 -1.38006,0.37885 -1.75143,0.58339 -0.37043,0.20455 -1.12532,0.51761 -1.67722,0.69534 l -1.00495,0.32272 -1.52134,1.7321 -1.52007,1.73335 h -0.95724 c -0.52478,0 -1.15963,-0.18521 -1.40906,-0.41065 -0.59931,-0.54317 -1.2485,-0.26286 -1.47019,0.63235 -0.0988,0.39568 -0.48362,1.04144 -0.85498,1.43339 l -0.67725,0.71154 -1.86244,-0.0892 c -1.02429,-0.0487 -1.98778,-0.16682 -2.14119,-0.26068 -0.26316,-0.16307 -2.04017,0.52759 -3.4957,1.36074 -0.37043,0.21172 -1.09882,0.5809 -1.61766,0.821 -0.51886,0.23978 -1.12408,0.59555 -1.34701,0.79043 -0.2217,0.19488 -1.05486,0.60148 -1.85122,0.90238 l -1.44837,0.54816 -1.4761,-0.29466 -0.8319,0.42998 -0.8319,0.43092 h -7.17537 l -1.00621,0.5385 c -1.14714,0.6152 -2.02301,0.6785 -3.02892,0.22045 l -0.70157,-0.32023 -0.76735,0.45431 -0.76862,0.4543 H 259.5279 l -0.53225,-0.37261 c -0.50544,-0.35328 -1.19829,-0.48019 -4.79751,-0.87213 l -1.57119,-0.17056 -0.85405,0.63952 -0.8525,0.64046 -3.36908,0.1902 c -3.18483,0.17898 -5.72078,0.48829 -7.3079,0.89271 l -0.70655,0.17898 -0.82942,-0.42874 c -1.1752,-0.60772 -1.31802,-0.55907 -1.93914,0.6601 l -0.55532,1.08884 -0.73089,0.30963 c -0.40067,0.17056 -0.97439,0.52477 -1.27406,0.78544 l -0.54315,0.47645 -8.08617,0.0789 -8.08521,0.0792 -0.7711,0.60678 -0.76985,0.60522 h -2.27997 z m -0.73557,-45.46211 c 0.5385,-0.56656 1.53847,-1.66756 2.2229,-2.44708 l 1.24349,-1.41905 2.43118,0.36544 0.85498,-0.76736 0.85404,-0.76611 0.22888,-1.61736 c 0.12535,-0.88928 0.37634,-1.93789 0.55658,-2.3314 l 0.32894,-0.71373 -0.83814,-1.21917 c -0.46147,-0.66977 -1.15837,-1.47019 -1.55031,-1.77701 l -0.71029,-0.56032 h -3.02176 l -1.91824,0.94884 c -1.05486,0.52134 -2.13278,1.18394 -2.3947,1.47236 l -0.47519,0.52634 -0.36295,3.51284 -0.76611,0.79886 -0.76612,0.80041 -0.73057,-0.99904 c -1.0268,-1.40189 -1.65914,-1.90858 -2.62731,-2.10221 l -0.84065,-0.16807 -0.69158,0.6919 c -0.73712,0.73681 -0.86371,1.5762 -0.41409,2.75765 l 0.27751,0.73057 -0.5968,1.80755 0.30713,0.93075 c 0.169,0.51137 0.54067,1.00465 0.82691,1.09477 l 0.51886,0.16588 3.23004,-1.72243 0.32396,-0.89895 0.32522,-0.89863 0.35329,0.29341 c 0.19487,0.16183 0.35453,0.81974 0.35453,1.46394 v 1.16929 l 0.83564,0.95258 c 0.46023,0.52508 1.02055,0.95257 1.24475,0.95257 0.22387,0 0.8475,-0.46303 1.38598,-1.02803 z m 15.26026,-11.63922 c 0.44464,10e-4 1.38381,-0.24384 2.08664,-0.54348 l 1.27747,-0.54442 2.30957,-0.1082 2.30803,-0.10976 0.45555,-0.34205 c 0.24976,-0.18896 0.78576,-0.64202 1.19111,-1.00871 l 0.73587,-0.66509 0.56624,0.51168 0.5653,0.51168 2.64914,0.005 2.65039,0.006 0.89895,-0.67132 0.89862,-0.67226 1.81255,0.0231 1.81349,0.0243 -0.14125,-0.56375 c -0.078,-0.31056 0.0159,-0.76362 0.20828,-1.00839 l 0.3483,-0.4434 1.88676,0.23854 c 2.50194,0.3168 2.559,0.34829 2.559,1.43245 v 0.93668 l 0.59931,0.42031 c 0.89771,0.6283 1.77825,0.50888 2.64789,-0.36076 l 0.77952,-0.78077 0.17555,-1.101 c 0.0973,-0.60522 0.34953,-1.24474 0.56033,-1.42029 l 0.38476,-0.31773 2.36663,0.0511 2.3654,0.0524 1.36292,-1.08416 1.36165,-1.083847 1.14249,0.401917 c 0.62734,0.2217 1.59551,0.40317 2.14991,0.40317 h 1.00716 l 0.68814,-0.54193 c 0.37885,-0.297457 1.29714,-0.656663 2.03893,-0.797913 0.74304,-0.140001 1.8113,-0.502947 2.37505,-0.80509 0.56407,-0.302143 1.43371,-0.54941 1.93417,-0.54941 h 0.90984 l 1.58712,-0.846561 c 0.87212,-0.465219 1.59927,-0.980329 1.61391,-1.144651 0.0159,-0.164635 0.007,-0.672572 -0.0171,-1.128126 l -0.0437,-0.829413 0.43467,-0.360451 0.43622,-0.360453 1.3994,0.423749 1.40066,0.423748 4.85019,-0.029 0.60179,-0.392255 c 0.77577,-0.506691 1.68908,-1.986538 1.68908,-2.737998 0,-0.321787 0.26439,-0.942911 0.58712,-1.380067 l 0.58838,-0.795428 -0.63452,-0.676001 c -0.78452,-0.834401 -0.85031,-0.834401 -1.83936,-0.0025 -0.44091,0.37043 -1.04861,0.673508 -1.35202,0.673508 -0.30308,0 -1.11066,0.484863 -1.79632,1.077924 l -1.24476,1.077927 h -2.89889 l -0.21826,-0.336132 c -0.1191,-0.18615 -0.20579,-1.39441 -0.19113,-2.686861 l 0.0243,-2.349484 1.48857,-2.248455 -0.19987,-0.97191 c -0.10945,-0.534754 -0.22886,-1.458021 -0.2644,-2.049836 -0.0352,-0.593373 -0.26038,-1.442117 -0.50046,-1.886758 l -0.43717,-0.808832 -0.003,-2.611404 -0.003,-2.612651 -0.62613,-0.727138 c -0.3433,-0.399428 -1.15088,-0.922021 -1.79539,-1.15962 l -1.16928,-0.433414 -0.29342,-0.863711 c -0.1609,-0.474887 -0.43715,-1.007145 -0.61395,-1.182695 l -0.32022,-0.318981 -6.80369,-0.189892 -0.787,0.406601 c -0.43247,0.222942 -0.97909,0.780771 -1.21669,1.238817 l -0.42997,0.833156 c 6.15325,28.514651 -39.5683,37.382821 -48.30864,8.955787 l -0.66258,-0.661347 -1.02179,0.0012 c -0.56283,0 -1.44711,0.236352 -1.96597,0.52384 -0.51886,0.288736 -1.3676,0.724646 -1.88676,0.969414 -0.51886,0.246018 -1.12408,0.599299 -1.34702,0.787009 -0.22169,0.187396 -0.75987,0.426241 -1.1961,0.529763 -1.13748,0.271585 -2.23628,1.130308 -3.00584,2.349484 l -0.66883,1.05984 0.078,0.961931 0.078,0.963491 -0.536,0.305885 c -0.29466,0.168066 -0.82692,0.518851 -1.18144,0.778276 l -0.64545,0.471456 h -4.22158 l -1.36543,1.21169 -1.36415,1.21325 h -1.05236 c -0.57749,0 -1.35824,0.116929 -1.73335,0.259427 l -0.68192,0.259425 -0.84907,1.680964 -0.84874,1.681899 0.46398,0.861219 c 0.25443,0.472391 0.85872,1.072935 1.34327,1.334855 l 0.88085,0.473949 1.42872,-0.467714 1.4287,-0.466465 0.61271,0.3274 c 0.33612,0.180224 0.97783,0.782017 1.42496,1.338596 l 0.81352,1.012133 2.02925,1.003717 2.02927,1.002457 2.76356,-0.17773 c 1.52007,-0.0976 3.73329,-0.20829 4.91848,-0.24602 1.18612,-0.0368 2.27746,-0.11225 2.42493,-0.16806 0.14843,-0.0549 0.73307,-0.005 1.29964,0.11319 l 1.02927,0.21296 1.09258,-0.42874 1.09228,-0.429665 0.48736,0.261608 c 0.80383,0.429977 1.87085,0.297147 2.77228,-0.345797 l 0.85,-0.60647 2.45082,0.0097 2.45175,0.0084 0.86965,0.732127 0.87088,0.732117 h 3.90228 l 1.12689,0.8659 c 0.61988,0.47613 1.12656,0.9585 1.12656,1.07075 0,0.11319 -0.36045,0.3907 -0.8001,0.61863 -0.44089,0.22762 -0.93667,0.66759 -1.10256,0.97815 l -0.30058,0.5625 -0.73214,-0.70032 c -0.4019,-0.38602 -0.90736,-0.70157 -1.12064,-0.70282 -0.21421,-0.001 -0.75395,-0.24228 -1.19859,-0.53693 -0.88398,-0.5859 -2.12903,-0.68942 -3.23377,-0.26941 l -0.70875,0.26941 -0.52852,-0.28406 c -0.29122,-0.15466 -1.52629,-0.34829 -2.74422,-0.42749 l -2.21572,-0.14593 -1.6844,1.58336 -1.68314,1.58337 v 1.96347 l 0.93292,0.98906 0.93169,0.98906 1.42498,-0.16339 c 0.7845,-0.0901 1.78948,-0.16308 2.23381,-0.16183 v -0.001 z m 20.49056,-36.226007 0.66134,-0.661345 v -1.372586 c 0,-2.160839 -1.14372,-3.77601 -2.95471,-4.174191 l -0.77484,-0.170559 -1.43588,0.600545 c -0.7892,0.328646 -1.82939,0.888967 -2.31175,1.242248 l -0.87589,0.643261 v 2.044846 l 0.47146,0.424062 c 0.25944,0.233857 1.26065,0.793865 2.2229,1.247237 l 1.75143,0.821927 1.29246,0.0075 1.29213,0.0084 z m 18.1763,-41.374292 c 0,-0.197375 0.0804,-0.277822 0.17897,-0.179289 0.10009,0.09884 0.10009,0.260671 0,0.359516 -0.0985,0.09853 -0.17897,0.01808 -0.17897,-0.180227 z m 0.60054,-0.858723 c 0.13407,-0.401921 0.74678,-0.623617 0.74678,-0.27065 0,0.144992 -0.1927,0.337379 -0.42656,0.427802 l -0.42749,0.163078 z"
         style="fill:#000000;fill-opacity:1;fill-rule:nonzero;stroke:none;stroke-width:0.311809"
         id="path14" />
    </g>
  </g>
</svg>
