<?xml version="1.0" encoding="UTF-8" standalone="no"?>
<svg
   xmlns:dc="http://purl.org/dc/elements/1.1/"
   xmlns:cc="http://creativecommons.org/ns#"
   xmlns:rdf="http://www.w3.org/1999/02/22-rdf-syntax-ns#"
   xmlns:svg="http://www.w3.org/2000/svg"
   xmlns="http://www.w3.org/2000/svg"
   viewBox="0 0 9354.667 9354.667"
   height="9354.667"
   width="9354.667"
   id="svg2"
   version="1.1">
  <metadata
     id="metadata8">
    <rdf:RDF>
      <cc:Work
         rdf:about="">
        <dc:format>image/svg+xml</dc:format>
        <dc:type
           rdf:resource="http://purl.org/dc/dcmitype/StillImage" />
        <dc:title></dc:title>
      </cc:Work>
    </rdf:RDF>
  </metadata>
  <defs
     id="defs6" />
  <g
     id="g10">
    <path
       id="path837"
       d="m 4942.427,6621.3701 c -9.4746,-0.748 -13.9194,-3.0599 -19.0111,-9.8879 -4.1092,-5.5104 -3.878,-24.7077 0.4513,-37.482 4.3228,-12.7545 10.7787,-26.1424 18.1304,-37.5982 l 6.1598,-9.5983 13.6457,-5.2708 c 7.5052,-2.8989 28.0199,-9.8583 45.5881,-15.4652 48.4082,-15.4496 66.3435,-21.7433 84.609,-29.6903 9.1666,-3.9882 17.2666,-7.2437 18,-7.2344 0.7333,0.013 5.5333,0.3963 10.6666,0.8598 10.2399,0.9246 14.7334,-0.116 40.6667,-9.4127 13.9767,-5.0108 14.0367,-5.0193 36,-5.1141 16.8435,-0.072 23.9484,0.4388 30.313,2.1818 9.0333,2.4742 20.0285,7.6428 26.3537,12.3886 2.2,1.6506 6.7,3.4377 10,3.9712 10.4016,1.6816 22.0553,5.811 43.3011,15.3434 30.8964,13.8626 36.0078,14.9344 66.0322,13.8475 37.1292,-1.3441 56.7402,2.1515 73.4694,13.0957 3.9585,2.5898 9.5973,5.4542 12.5306,6.3656 23.5746,7.3247 66.9556,40.8663 82.7483,63.9798 5.2545,7.6902 6.4697,10.6061 6.9789,16.7454 0.5555,6.699 0.2587,7.8075 -3.0028,11.2116 -6.7482,7.0438 -10.0296,7.2984 -72.5241,5.6287 -67.0471,-1.7915 -76.2585,-2.8399 -118.8669,-13.5295 -17.2334,-4.3234 -37.9334,-9.1293 -46,-10.6797 -31.8987,-6.1307 -101.8458,-9.7293 -132.2404,-6.8033 -23.6986,2.2813 -54.9654,7.3745 -103.3163,16.8298 -53.1664,10.3971 -75.5628,13.8095 -96.4434,14.6948 -8.8,0.3731 -18.1,0.824 -20.6666,1.002 -2.5667,0.1782 -8.6747,0.013 -13.5732,-0.3793 z m 1268.3982,-32.1117 c -2.4798,-0.5462 -6.3596,-2.844 -8.622,-5.1066 -3.6554,-3.6553 -4.1722,-5.1488 -4.6387,-13.4064 -1.1015,-19.4918 7.3351,-41.6362 24.6667,-64.7452 4.9498,-6.6 26.7229,-30 48.3844,-52 32.881,-33.3948 41.1196,-41.0426 49.8908,-46.3144 33.3197,-20.0254 56.7588,-45.798 117.3112,-128.9894 60.8606,-83.6152 80.1854,-106.883 116.5066,-140.2776 33.2943,-30.6118 53.4167,-45.4187 76.6791,-56.4239 20.332,-9.6188 30.6399,-11.9928 51.6636,-11.8987 15.9999,0.072 19.2593,0.4956 29.3333,3.8144 6.2334,2.0536 14.0334,5.0788 17.3334,6.7227 4.4158,2.1997 9.4334,3.2055 19.004,3.8092 31.343,1.9768 58.3513,14.3605 77.3106,35.4479 5.258,5.8481 6.1071,7.6556 6.9036,14.6968 1.9416,17.1606 -3.7113,32.7861 -16.4808,45.5556 -10.0609,10.0609 -20.533,16.6757 -53.5885,33.8492 -15.1739,7.8834 -32.2197,17.8557 -38,22.2308 -20.322,15.3821 -27.7921,17.6665 -64.4823,19.7192 -33.4654,1.8721 -42.6765,4.2673 -58.64,15.2482 -3.3473,2.3026 -14.4728,8.0244 -24.723,12.7152 -44.0228,20.1458 -58.8267,28.8224 -69.9599,41.004 -11.7184,12.8218 -14.6459,20.7899 -15.8469,43.1322 -1.2196,22.6873 -3.8142,28.0193 -22.0392,45.292 -7.3508,6.9666 -18.3618,17.6406 -24.4687,23.7198 -6.1069,6.0794 -14.5277,13.231 -18.7129,15.8924 -19.4603,12.3759 -29.394,21.0134 -76.3272,66.3671 -30.61,29.58 -52.2167,43.7008 -80.6155,52.6856 -7.3333,2.3201 -20.2333,7.0957 -28.6667,10.6125 -16.5665,6.9086 -22.1812,8.1878 -29.175,6.6474 z m 735.7814,-305.1208 c -4.0665,-0.4423 -9.0165,-1.8679 -11,-3.1682 -3.369,-2.2084 -3.6062,-2.9981 -3.6053,-12 0,-12.6264 4.5875,-22.5456 16.1711,-34.9757 10.9366,-11.736 23.2449,-20.8188 54.8696,-40.4904 14.0937,-8.7669 29.5249,-18.9095 34.2916,-22.5392 8.772,-6.6797 20.2461,-18.2093 24.1625,-24.2796 l 2.1394,-3.3156 3.367,6.6489 c 10.102,19.9488 10.1832,39.855 0.2426,59.486 -11.1988,22.1158 -40.711,46.9292 -74.2213,62.4043 -10.3632,4.7857 -35.8793,13.6597 -38.0396,13.2295 -0.5412,-0.108 -4.3112,-0.5579 -8.3776,-1 z M 1962.7419,5487.9662 c -8.9858,-1.8935 -23.4609,-9.3341 -36.0752,-18.5439 l -11.3333,-8.2745 -12,0.6997 c -6.6,0.385 -39.3,1.7414 -72.6667,3.0144 l -60.6666,2.3146 -10,-3.7794 c -5.5,-2.0785 -10.75,-4.3666 -11.6667,-5.0846 -1.1581,-0.9072 -1.6667,-5.9072 -1.6667,-16.3884 0,-21.0083 -5.954,-46.5906 -10.8433,-46.5906 -1.0028,0 -8.1756,0.8266 -15.9395,1.8368 l -14.116,1.8368 -13.6554,-7.0142 c -7.5104,-3.8579 -16.6636,-9.3923 -20.3404,-12.2986 -8.2643,-6.5325 -12.1822,-7.6941 -25.951,-7.6941 h -10.8633 l -10.188,-12.6667 c -5.6033,-6.9666 -10.5623,-12.6666 -11.0196,-12.6666 -0.4575,0 -2.7412,1.4564 -5.0748,3.2364 -4.3256,3.2993 -11.204,15.3325 -16.6236,29.082 l -3.016,7.6517 -12.8512,4.1389 c -9.1284,2.9399 -16.5205,4.344 -25.5179,4.8472 l -12.6666,0.7083 -15.6667,-16.7061 -15.6667,-16.706 v -26.9007 -26.9007 l -11.8324,-13.5918 c -35.3914,-40.6543 -66.0466,-65.0503 -108.4852,-86.3348 l -20.9844,-10.5244 h -31.7863 -31.7863 l -11.8868,-9.3334 -11.8868,-9.3333 -10.0092,-0.041 c -14.3495,-0.059 -27.6371,-2.0354 -38.178,-5.6786 l -9.1646,-3.1674 -16,-44.0926 -16,-44.0927 -34.449,-32.035 -34.449,-32.0351 -20.8844,-7.0953 -20.8843,-7.0954 v -14.5613 -14.5613 l 20.4955,-9.3603 20.4954,-9.3601 -0.7094,-7.8235 c -1.409,-15.5387 -12.0555,-29.9795 -35.772,-48.5212 l -13.8428,-10.8224 -29.3333,-2.1835 c -16.1334,-1.2009 -31.294,-2.5028 -33.6904,-2.893 -3.6261,-0.5907 -5.9391,-2.8146 -13.7878,-13.2567 l -9.4309,-12.5468 15.9686,-33.0549 c 20.4677,-42.3684 20.1861,-41.5607 16.3646,-46.9275 -1.6458,-2.3112 -7.1349,-7.5493 -12.198,-11.6401 -9.8439,-7.9535 -9.8973,-8.1058 -6.2513,-17.8207 3.7459,-9.9813 5.2388,-23.8885 5.9439,-55.372 l 0.7474,-33.372 -22.1664,-23.6059 c -12.1915,-12.9832 -22.1939,-24.3657 -22.2276,-25.2946 -0.034,-0.9288 -1.3836,-12.1888 -3,-25.0222 l -2.9388,-23.3333 -20,-10.0427 -20,-10.0426 -2.25475,-8.9836 c -1.24012,-4.941 -2.98717,-17.3434 -3.88236,-27.561 -0.8952,-10.2176 -2.01653,-19.2066 -2.49185,-19.9757 -0.47533,-0.7692 -13.42828,-8.1012 -28.78431,-16.2935 l -27.92007,-14.895 -26.66666,-0.5434 -26.66667,-0.5433 -10.80403,-7.3333 -10.80403,-7.3335 -13.79434,8.1909 -13.79436,8.1908 -11.73495,-2.8996 -11.73496,-2.8996 -0.005,-4.8508 c -0.012,-12.2129 -2.85806,-47.6488 -4.68598,-58.3424 -3.7586,-21.9884 -8.77889,-39.6953 -14.74065,-51.9916 -8.35578,-17.2338 -9.86328,-22.1672 -11.26675,-36.8702 -1.79815,-18.8379 -5.06665,-24.9848 -22.52313,-42.358 -7.76167,-7.7246 -17.26211,-16.9156 -21.11211,-20.4244 l -7,-6.3798 v -33.0972 -33.0973 l 9,-8.5923 c 4.95,-4.7257 16.72004,-15.7091 26.15565,-24.4073 l 17.15566,-15.8151 -0.80638,-15.4043 c -0.4435,-8.4724 -1.18877,-45.7042 -1.65616,-82.7376 -0.48957,-38.7925 -1.39458,-68.3796 -2.13509,-69.8016 -0.70692,-1.3576 -4.27517,-6.5661 -7.92945,-11.5746 -8.40703,-11.5224 -13.0518,-24.3202 -13.08944,-36.0655 l -0.0281,-8.7752 9.66667,-8.6611 c 5.31667,-4.7636 23.92375,-21.3648 41.34907,-36.8914 l 31.68304,-28.2306 h 7.82987 c 10.35101,0 25.07264,-7.2601 39.24911,-19.3561 15.85313,-13.5267 28.88954,-31.782 28.88954,-40.4552 0,-4.0283 -4.33502,-11.6245 -16.08665,-28.1887 -11.50524,-16.2168 -15.67718,-24.6292 -13.73845,-27.7028 4.21266,-6.6784 23.05581,-4.1477 37.0814,4.9802 11.21666,7.2997 16.8336,9.3893 25.23954,9.3893 5.98403,0 9.18896,-1.0207 18.37616,-5.8519 10.95094,-5.7588 23.37237,-9.824 39.12801,-12.8053 18.48089,-3.4971 31.84846,-9.0673 43.55406,-18.1488 l 7.5541,-5.8607 h 29.4823 29.4823 l 19.7585,-9.7864 c 18.5912,-9.2082 32.9656,-14.2136 40.8182,-14.2136 8.5317,0 36.4775,-12.0556 72.0172,-31.0677 16.3368,-8.7395 25.087,-12.6123 31.3334,-13.8683 4.7666,-0.9584 22.1666,-2.1277 38.6666,-2.5982 l 30,-0.8558 15,-13.274 15,-13.274 v -15.566 c 0,-16.5048 1.8219,-34.8638 4.2867,-43.1964 0.8189,-2.7684 3.3394,-7.0606 5.6011,-9.5381 l 4.1122,-4.5044 48,1.0928 c 26.4,0.6009 63.0001,1.4369 81.3334,1.8577 18.3333,0.4208 53.4772,1.1592 78.0973,1.641 l 44.7642,0.8758 21.9676,-12.8621 21.9676,-12.8623 h 30.6457 30.6459 l 11.9486,-8.8058 c 13.1698,-9.706 19.4016,-13.2175 28.106,-15.8371 3.1858,-0.9588 11.6796,-5.3817 18.8751,-9.8289 7.1956,-4.4471 20.036,-11.3527 28.5343,-15.3458 8.4982,-3.9932 17.9694,-9.0842 21.047,-11.3137 13.5352,-9.8048 32.9263,-8.2648 52.3436,4.1571 l 7.6096,4.8681 28.082,-13.5253 28.0822,-13.5254 6.3778,-20.0882 6.3779,-20.0883 h 48.0389 48.0391 l 16.5581,-10.8535 c 19.7679,-12.9573 26.8307,-16.969 33.7308,-19.1589 2.845,-0.9029 10.1895,-5.4696 16.3212,-10.148 l 11.1486,-8.5063 h 28.7908 28.7908 l 17.7898,9.3892 17.7899,9.3891 25.616,-12.8215 25.616,-12.8216 34.8888,1.553 34.8887,1.5529 15.4606,-9.3372 15.4608,-9.3373 17.7994,-1.5154 c 20.9417,-1.7829 40.684,-4.8741 48.3076,-7.5638 2.9919,-1.0556 8.6363,-4.1208 12.5433,-6.8118 8.9572,-6.1691 19.4542,-7.2899 30.9484,-3.3045 l 7.3334,2.5425 0.8233,21.2099 c 0.4527,11.6655 1.5324,24.1809 2.3992,27.8124 2.8741,12.0403 8.738,19.3975 15.4605,19.3975 3.0415,0 11.3983,-8.0846 16.3448,-15.8126 l 4.574,-7.1458 -1.7036,-17.7536 -1.7037,-17.7538 5.6624,-7.4996 c 5.3481,-7.0837 7.8533,-8.8068 18.6395,-12.8201 2.4729,-0.9203 8.7729,-4.489 14,-7.9306 12.751,-8.3956 22.0542,-12.9238 43.7697,-21.3042 l 18.2663,-7.0494 13.365,2.6654 13.3651,2.6653 14.68,-7.7972 14.68,-7.7972 h 103.0153 103.0154 l 17.561,-12 17.561,-12 h 29.4572 29.457 l 12.3219,8.3453 12.322,8.3452 30.7267,-1.3452 30.7268,-1.3453 5.7048,-4.5231 c 8.4409,-6.6926 14.7586,-8.4105 33.5084,-9.1114 l 16.6666,-0.623 17.5986,12.1287 17.5985,12.1288 h 41.5368 41.5367 l 13.5314,-7.2456 c 7.4423,-3.9851 17.2756,-8.2819 21.8519,-9.5484 11.0143,-3.0483 17.3241,-1.6124 38.9216,8.8568 l 16.5214,8.0087 6.7849,-2.1862 c 8.4971,-2.7376 15.7327,-6.8532 26.8717,-15.2844 l 8.7211,-6.6009 h 18.3069 18.3068 l 11.9559,8.8571 c 16.0436,11.8854 24.4365,15.7136 32.1365,14.6582 7.6959,-1.0548 18.8075,-6.3778 27.259,-13.0582 10.0897,-7.9755 14.5964,-9.4055 31.9756,-10.1458 l 15.4152,-0.6566 18.6557,12.7542 18.6557,12.7542 20.5958,-2.6159 c 27.8158,-3.5328 56.9154,-3.3873 154.524,0.7725 l 79.2616,3.378 9.5336,7.3023 c 13.2193,10.1251 20.5816,13.2423 31.2765,13.2423 10.8561,0 17.6263,-2.9416 31.5991,-13.7292 5.7205,-4.4164 13.4009,-9.034 17.0676,-10.2611 3.6666,-1.2272 12.3042,-4.8609 19.1948,-8.0749 6.8904,-3.214 13.5549,-5.8438 14.8101,-5.8438 1.8539,0 30.0113,9.2147 48.7875,15.966 2.8414,1.0218 8.6516,7.0767 18.6666,19.4535 l 14.541,17.9701 32.9897,16.6386 32.9897,16.6385 h 29.0891 29.0891 l 17.2545,10.7786 17.2545,10.7784 31.8258,-0.8504 31.8257,-0.8504 5.1005,3.3754 c 8.4115,5.5664 13.4579,16.1656 20.5953,43.257 l 3.384,12.8448 -4.0323,11.9168 c -2.2177,6.5542 -4.0323,12.9318 -4.0323,14.1725 0,3.2443 9.9339,13.0163 14.2988,14.0657 8.2151,1.9754 14.2099,5.7796 42.2504,26.8123 17.6011,13.2021 29.5132,19.6541 39.751,21.5307 10.7966,1.9789 14.9942,4.5166 26.5125,16.0284 11.0083,11.0021 15.0057,17.499 16.4935,26.8069 2.4893,15.5736 8.902,24.2773 44.274,60.0924 l 27.0865,27.4257 v 11.9814 11.9813 l 15,14.7252 c 15.7313,15.4432 23.0005,20.552 33.8103,23.7623 8.4554,2.511 19.1966,9.0406 35.7721,21.746 17.598,13.4892 32.3535,22.2412 43.6101,25.8666 l 9.1603,2.9503 7.4521,13.1616 c 4.0987,7.2389 14.6578,23.9607 23.4647,37.1593 l 16.0124,23.9978 -3.5435,7.8957 c -5.2361,11.6679 -7.7729,25.4639 -6.6868,36.3653 0.6963,6.988 2.2718,11.7839 6.7614,20.5826 5.39,10.5632 5.8536,12.2709 5.8536,21.5645 0,12.6201 -1.2052,16.8296 -8.0727,28.1957 l -5.484,9.0763 10.3272,19.7349 c 12.4165,23.7274 19.9975,35.8651 28.7075,45.9631 l 6.522,7.5615 v 33.1338 33.1338 l -6.7998,9.3048 c -8.9033,12.1832 -13.0553,20.4294 -16.4333,32.6381 l -2.7669,10 -29.3334,14.9371 -29.3333,14.9369 -13.3333,0.031 c -22.6856,0.053 -25.6362,-1.2995 -39.2972,-18.013 -15.6956,-19.2028 -27.8968,-30.5221 -35.6899,-33.1105 l -6.9819,-2.3191 -6.1097,5.0066 c -13.7319,11.2521 -15.4844,24.747 -6.7521,51.9929 l 5.1693,16.1288 -15.8243,29.6336 c -18.0361,33.7756 -26.8912,46.3104 -48.3376,68.4242 l -15.1762,15.6486 1.659,60.3092 1.6591,60.3094 11.9728,12.7088 11.9728,12.7086 -0.9005,22.6667 -0.9004,22.6667 -9.1636,14 c -8.6367,13.1948 -15.9242,26.9328 -15.9532,30.0738 -0.021,2.3214 -13.7091,18.2023 -31.8458,36.949 l -17.0697,17.6438 3.1604,44.2718 3.1605,44.2717 -6.1685,8.3949 c -3.3928,4.6172 -6.3676,8.6007 -6.6108,8.852 -0.2433,0.2515 -12.6367,1.4654 -27.5408,2.6975 l -27.0984,2.2401 -2.3005,4.636 c -1.2654,2.5499 -4.6319,9.736 -7.4812,15.9694 -8.6046,18.824 -13.1994,21.2437 -40.4478,21.3008 l -15.5628,0.032 -4.9068,5.6666 c -2.6988,3.1167 -6.7108,9.5667 -8.9156,14.3334 -9.0444,19.554 -10.7583,22.499 -19.7861,34 -8.8639,11.2921 -42.7044,48.5281 -54.334,59.7857 l -5.2883,5.1192 -26.8105,3.2049 -26.8107,3.2051 -11.8276,9.3425 -11.8277,9.3426 h -62.0278 -62.0278 l -9.2272,21 -9.2272,21 -14.8336,5.3333 -14.8335,5.3333 -7.0004,18 c -3.8501,9.9 -7.6429,18.6786 -8.4283,19.5079 -0.7854,0.8293 -6.2386,3.0823 -12.1184,5.0064 -22.8217,7.4685 -41.0876,24.6517 -54.5809,51.3456 l -3.6361,7.1933 -15.9984,-0.9041 -15.9984,-0.9041 -11.9555,7.5436 c -25.7808,16.267 -39.4936,33.6434 -45.7151,57.9282 -3.8725,15.116 -15.2141,30.8883 -29.0768,40.4359 -3.9486,2.7195 -12.3418,6.712 -18.6517,8.8721 -6.3099,2.1602 -15.1737,6.1883 -19.6975,8.9514 -4.5237,2.7632 -10.4241,6.354 -13.112,7.9796 -2.688,1.6257 -7.7501,3.5721 -11.2492,4.3254 -8.675,1.8676 -17.079,6.326 -30.043,15.9383 l -10.9432,8.1139 h -31.4266 -31.4266 l -8.8992,5.1417 c -4.8947,2.8279 -26.8994,14.3239 -48.8994,25.5464 -22,11.2227 -44.5,23.459 -50,27.1918 -5.5,3.7326 -16.9673,13.8368 -25.4828,22.4534 l -15.4828,15.6667 -7.8505,-0.013 c -9.4687,-0.016 -17.6345,-3.55 -29.1827,-12.6307 l -7.9988,-6.2896 -14.6678,0.522 c -15.6011,0.5552 -19.2558,1.7268 -28.6679,9.1904 -4.8898,3.8776 -19.0199,9.2209 -24.3838,9.2209 -1.7241,0 -6.393,-2.4706 -10.3754,-5.4904 -21.0531,-15.9637 -43.8428,-20.1352 -82.065,-15.0213 l -16.1574,2.1617 -31.0262,33.1958 c -17.0644,18.2576 -32.2934,33.4772 -33.8425,33.8213 -1.5491,0.3443 -8.5164,1.5609 -15.4831,2.7039 -22.7609,3.7341 -37.5368,8.3621 -62.6666,19.628 -19.5506,8.7645 -31.0364,7.4718 -43.392,-4.8838 -5.645,-5.6448 -7.5806,-8.7854 -9.7566,-15.8309 -5.438,-17.6059 -10.5584,-23.7545 -21.504,-25.822 -7.0405,-1.3299 -18.5342,1.5651 -22.9285,5.7751 -4.8784,4.6738 -6.4024,10.4804 -6.4116,24.4293 -0.013,12.9693 2.7643,9.4073 -22.0264,28.2967 l -13.3524,10.1738 -17.3143,2.7844 c -21.46,3.451 -36.8312,8.2147 -47.7437,14.7963 -13.9907,8.4381 -20.8579,9.8552 -47.7077,9.8439 l -23.4706,-0.013 -14.93,-12.4445 -14.9298,-12.4445 -14.3116,0.5897 c -21.637,0.8915 -24.2351,3.1972 -32.0167,28.414 -4.3324,14.0395 -9.5896,23.2033 -20.6143,35.9323 l -6.4102,7.401 h -38.1168 -38.1168 l -16.1398,15.6667 c -20.3721,19.7752 -32.8288,29.1039 -53.1045,39.77 -8.8508,4.656 -17.3544,9.6508 -18.8969,11.0997 -4.232,3.9748 -12.901,5.3951 -33.1512,5.4311 l -18.3464,0.032 -11.4047,-7.5896 -11.4047,-7.5897 -6.2489,2.4473 c -18.3007,7.1671 -20.658,7.6875 -32.3331,7.1383 -9.8347,-0.4626 -12.4717,-1.1322 -19.0233,-4.8296 -10.9528,-6.1814 -22.8543,-8.6379 -38.3852,-7.923 -10.7614,0.4954 -13.8548,1.1655 -19.2172,4.1626 l -6.3914,3.5722 -16.116,-6.226 c -19.5516,-7.553 -32.2161,-13.7245 -42.5976,-20.7577 -9.8701,-6.6868 -16.9716,-9.2227 -25.8877,-9.2447 -10.3284,-0.025 -18.3329,3.2015 -30.2083,12.1779 -5.8177,4.3975 -11.8177,8.0131 -13.3333,8.0348 -1.5157,0.021 -16.8669,1.4148 -34.1137,3.0959 l -31.358,3.0564 -10.9651,7.5096 c -15.0256,10.2902 -28.1135,14.4225 -47.6524,15.0454 -8.0667,0.2572 -17.3328,-0.095 -20.5915,-0.7808 z m 543.9854,-204.9939 c 6.7196,-5.7517 13.2728,-15.5742 13.2728,-19.8945 0,-6.8785 -10.13,-31.0815 -16.6439,-39.766 -4.5086,-6.0111 -5.1421,-13.3003 -3.3097,-38.0827 l 1.6625,-22.4848 -3.8237,-5.0386 c -10.9728,-14.4595 -19.0748,-20.8579 -26.1563,-20.6566 -5.1949,0.1477 -14.8757,7.2544 -20.9178,15.3559 -6.7311,9.0251 -8.8014,13.2668 -11.4336,23.4251 l -2.1711,8.3782 8.1845,12.7618 8.1846,12.7616 -2.7878,15.5314 c -1.5332,8.5423 -2.7877,17.1711 -2.7877,19.1751 0,4.9139 9.5464,21.5529 16.4257,28.6295 10.9631,11.2774 25.9099,18.5045 33.0931,16.001 1.9355,-0.6745 6.0792,-3.4178 9.2084,-6.0964 z m 124.2857,-19.7285 c 15.4002,-3.9905 24.9922,-10.2292 29.6872,-19.3084 1.0756,-2.0799 2.5188,-7.758 3.2071,-12.618 1.5229,-10.7543 5.0263,-15.8021 16.2629,-23.4327 l 8.0459,-5.4638 13.5991,6.0701 c 17.5018,7.8121 28.857,10.55 36.1349,8.7123 7.9397,-2.005 19.4736,-10.5151 23.8905,-17.6272 3.57,-5.7487 3.7152,-6.4915 2.0614,-10.5467 -2.923,-7.1676 -14.804,-17.6853 -26.205,-23.1981 -5.7,-2.7563 -11.4136,-5.8888 -12.6969,-6.9612 -5.5651,-4.6504 -0.3035,-15.0309 13.4913,-26.6159 l 6.842,-5.7462 v -18.0013 -18.0015 l -10.3333,-10.3161 c -5.6833,-5.6739 -13.2007,-11.6995 -16.7052,-13.3901 l -6.3719,-3.074 -7.0989,3.4732 c -8.0933,3.9596 -21.7513,16.8901 -28.3704,26.859 -5.792,8.7234 -8.2247,19.6656 -6.0132,27.047 1.8093,6.0389 11.9187,16.0006 20.8233,20.5192 8.4206,4.2729 16.57,10.2169 18.9152,13.7961 1.7999,2.747 1.8747,3.8988 0.4734,7.2822 -2.2271,5.3766 -8.3403,10.3274 -14.0824,11.4046 -6.7328,1.2631 -14.9692,-2.3133 -28.0526,-12.181 l -11.1082,-8.3782 -20.3712,-2.1093 c -23.7184,-2.4561 -42.8968,-2.7119 -48.8087,-0.6511 -5.2535,1.8315 -12.1913,12.0042 -20.1403,29.5316 l -5.881,12.9675 -13.8951,5.6905 -13.8949,5.6906 0.8713,11.3333 c 0.4792,6.2333 1.5851,12.0127 2.4577,12.8429 0.8726,0.8303 4.8864,2.5632 8.9198,3.8511 11.9657,3.8205 20.1014,8.5243 28.6272,16.5511 9.3805,8.8317 12.728,11.0685 20.7846,13.8884 7.7267,2.7044 24.7162,2.758 34.9344,0.1106 z m 367.6538,-43.2317 19.3333,-11.718 24,-0.6675 c 34.9024,-0.9707 42.3621,-3.9279 65.8616,-26.1095 l 8.5281,-8.05 -0.7724,-13.7334 c -0.9257,-16.461 -3.1637,-24.6094 -7.6865,-27.9861 -8.8324,-6.5944 -32.8123,-5.9818 -47.5069,1.2134 l -7.245,3.5474 -9.9228,-4.9098 c -5.4576,-2.7004 -9.9228,-5.3991 -9.9228,-5.997 0,-0.5978 1.1436,-7.3528 2.5414,-15.0109 6.7694,-37.09 6.3461,-39.1877 -14.4271,-71.4797 -4.3143,-6.7064 -7.2809,-12.9466 -7.7233,-16.2451 -0.7071,-5.2716 -0.605,-5.4287 6.4801,-9.9609 3.9592,-2.5327 16.5239,-9.0759 27.9213,-14.5406 22.702,-10.8846 33.7248,-17.8077 45.309,-28.4573 8.984,-8.2593 10.8812,-9.3688 19.2133,-11.2361 14.0917,-3.158 31.352,-21.1444 31.352,-32.6708 0,-5.2627 -4.4052,-12.6375 -11.9465,-20 l -6.8287,-6.6667 -6.9457,3.8037 c -44.883,24.5795 -74.367,36.183 -102.5448,40.3564 l -15.5991,2.3104 -10.2388,11.1875 -10.2389,11.1875 2.2074,14.3786 c 1.2142,7.9083 3.7032,20.556 5.5314,28.106 1.8281,7.5502 3.1618,13.8888 2.9638,14.0862 -0.1981,0.1972 -22.8601,1.053 -50.3601,1.9018 l -50,1.5434 -10.3596,10.9026 c -16.1913,17.04 -21.5249,30.3315 -15.9737,39.8075 2.5254,4.3111 13.5212,10.0947 36.3333,19.1107 18.0371,7.1288 31.6829,14.2024 39.8469,20.6557 6.7839,5.3623 7.0314,5.7828 6.1546,10.4579 -2.1714,11.5784 -11.8371,37.3489 -22.7087,60.5457 -6.4464,13.7546 -11.4744,25.194 -11.1735,25.421 0.3011,0.2269 5.0474,4.0296 10.5474,8.4504 5.5,4.4206 10.813,8.3022 11.8068,8.6257 0.9937,0.3235 11.4937,0.3563 23.3333,0.073 l 21.5265,-0.5152 19.3334,-11.718 z m -107.5494,-12.0119 8.9428,-4.6667 -0.8732,-11.3333 c -0.4802,-6.2333 -1.2437,-15.1571 -1.6968,-19.8305 l -0.8234,-8.4971 -10.4262,-6.6947 -10.4261,-6.6946 -6.3871,6.291 c -8.679,8.5484 -12.5425,16.6319 -13.1888,27.5943 l -0.5208,8.8351 12.4744,10.1226 c 6.8611,5.5675 12.8138,9.9916 13.2284,9.8316 0.4147,-0.1601 4.7782,-2.391 9.6968,-4.9577 z m 317.5494,-52.6056 c 13.2161,-5.5987 29.0044,-22.8744 33.8945,-37.0879 7.4607,-21.6849 22.5077,-41.5843 62.7546,-82.9917 35.163,-36.177 40.0176,-45.1378 40.0176,-73.8675 v -15.6052 l 22.8496,-14.5877 c 12.5673,-8.0232 23.3605,-14.7855 23.985,-15.0272 2.3326,-0.9028 23.7659,8.1356 24.3508,10.2686 0.3274,1.194 1.3264,14.1708 2.2202,28.8375 0.8936,14.6667 1.9929,27.36 2.4429,28.2075 0.45,0.8473 4.5699,4.2973 9.1552,7.6666 l 8.3371,6.1259 h 26.5606 26.5608 l 11.4899,-12.8804 c 13.6875,-15.3441 19.4491,-25.1772 24.8196,-42.3583 2.1992,-7.0354 6.6993,-18.335 10.0005,-25.11 5.4554,-11.196 8.0976,-18.6105 10.523,-29.5288 0.4884,-2.1981 4.6756,-7.8281 9.6685,-13 l 8.8071,-9.1225 h 22.4288 22.4286 l 3.8522,-7.6667 c 5.2853,-10.5188 6.7778,-18.6372 8.2734,-45 1.5502,-27.3254 2.9788,-35.9269 7.8839,-47.4676 l 3.7408,-8.801 -4.0776,-6.5323 c -4.4593,-7.1441 -7.6343,-16.2528 -7.6343,-21.9023 0,-3.5466 0.1812,-3.6244 9.8971,-4.2478 10.1213,-0.6496 20.2859,-4.5235 27.228,-10.3772 l 3.1251,-2.6351 -2.904,-25.9227 -2.904,-25.9226 3.7152,-6.4291 c 2.0434,-3.5359 13.3802,-16.3289 25.193,-28.4289 24.4879,-25.0834 26.1808,-27.2586 29.0988,-37.3847 1.1704,-4.0615 9.2326,-21.7883 17.916,-39.3927 16.5644,-33.5824 25.5126,-54.607 28.8267,-67.7322 2.2393,-8.8687 5.8235,-13.2926 16.8081,-20.7468 l 7.3334,-4.9766 6.6666,1.7512 c 17.4068,4.5723 34.2728,7.3294 44.8648,7.3339 20.1,0.013 28.7358,-5.794 39.6,-26.6085 l 5.281,-10.1179 -10.034,-20.0347 -10.0342,-20.0346 10.1612,-20.3726 10.1612,-20.3725 v -40.6391 -40.639 l 8.6716,-11.6834 c 18.9479,-25.5284 18.726,-38.8525 -1.1242,-67.5223 l -8.8807,-12.8264 v -27.111 -27.1112 l 10.5815,-14.4126 c 12.0274,-16.3817 10.9549,-12.4854 14.8736,-54.033 l 2.8296,-30 7.0448,-9.3334 c 9.6129,-12.7356 11.6382,-17.215 12.3534,-27.3226 0.7982,-11.2791 -0.96,-17.3535 -8.2236,-28.4124 -5.8125,-8.8498 -12.1426,-25.5506 -15.5142,-40.9316 -2.888,-13.175 -9.3542,-27.9395 -16.0783,-36.7124 l -6.5335,-8.5243 0.013,-62.3816 0.013,-62.3817 -33.4121,-32.6667 -33.412,-32.6667 -3.5302,-16.3606 -3.5301,-16.3606 -17.4045,-17.064 c -24.0634,-23.5925 -35.4964,-32.2917 -54.6143,-41.5556 -8.868,-4.297 -20.6236,-11.2714 -26.1236,-15.4986 -26.9672,-20.7267 -33.9249,-25.6288 -43.9765,-30.9846 -15.3367,-8.1717 -27.818,-18.4589 -55.3568,-45.6256 l -24,-23.6757 -8,-1.4069 c -13.6055,-2.3928 -75.4495,-5.773 -137.3334,-7.5063 -15.4,-0.4313 -29.2532,-1.0361 -30.7848,-1.3443 -2.0153,-0.4052 -6.4358,2.5872 -16,10.8314 -7.2684,6.2653 -13.388,12.1424 -13.5992,13.0602 -0.2112,0.9178 3.6888,9.3655 8.6667,18.7727 7.8027,14.7455 9.6941,17.3773 13.7173,19.0861 2.5667,1.0903 19.3667,7.3519 37.3334,13.9148 17.9666,6.5628 36.392,13.7544 40.9453,15.9812 10.0528,4.9163 21.1995,14.796 33.2093,29.4347 4.9492,6.0327 9.4495,11.4987 10.0004,12.1468 0.5556,0.6536 10.306,-1.9191 21.8939,-5.7768 12.0049,-3.9964 22.11,-6.6453 23.7549,-6.2269 1.5746,0.4005 9.7628,6.7626 18.1962,14.138 42.2581,36.9565 51.2901,43.528 74.5445,54.2377 8.3661,3.8529 15.6347,7.4803 16.1521,8.0608 0.5174,0.5805 1.6554,4.0555 2.5286,7.7221 2.293,9.628 9.2836,19.4143 25.3222,35.4498 17.0791,17.0756 32.7326,28.8801 48.7859,36.7901 23.3568,11.5087 24.0191,12.4799 23.9597,35.1337 -0.044,16.8826 -2.4629,26.2932 -7.7009,29.962 -7.3043,5.1162 -11.4607,1.3872 -21.5147,-19.3021 l -6.139,-12.6332 -9.0986,-3.3668 c -15.7536,-5.8295 -27.0504,-14.5771 -44.9002,-34.7684 l -11.7268,-13.2651 h -17.6302 -17.6301 l -8.2049,13.8632 c -7.1867,12.1428 -8.7351,13.9615 -12.4763,14.6547 -9.9344,1.8408 -69.6056,10.1488 -72.8923,10.1488 -2.927,0 -5.8068,-2.6421 -15.6224,-14.3333 l -12.0337,-14.3334 -0.7485,-16.6666 c -0.8523,-18.9811 -3.5998,-29.5835 -10.1226,-39.0643 -2.3208,-3.3732 -4.6798,-6.4173 -5.2421,-6.7649 -0.5624,-0.3476 -5.8047,0.5013 -11.6495,1.8864 -5.8448,1.385 -12.0554,2.5389 -13.8016,2.5638 -1.7797,0.025 -11.8625,-5.4774 -22.9481,-12.5246 l -19.7736,-12.5703 -20.3515,-1.5011 c -11.1932,-0.8254 -28.1046,-2.9336 -37.5808,-4.6845 l -17.2294,-3.1836 -16.5604,12.5963 -16.5604,12.5961 -28.9315,0.8575 -28.9316,0.8573 -14.6456,-10.7537 -14.6458,-10.7539 -23.8533,-2.8811 -23.8533,-2.881 -10.6772,-7.837 c -10.1726,-7.4666 -14.9042,-10.1086 -31.6162,-17.6537 -4.0333,-1.8209 -12.7134,-7.2843 -19.2892,-12.1407 l -11.9558,-8.8297 h -64.7224 -64.7224 l -28.5094,28.5324 -28.5092,28.5324 2.8658,18.4676 c 4.9381,31.8229 5.9101,44.2463 5.8784,75.1343 -0.043,41.6084 -3.892,70.2664 -14.2904,106.3934 -21.7476,75.557 -70.0935,142.1054 -139.412,191.9011 -65.9958,47.4089 -154.3316,78.3977 -244.6667,85.8308 -24.1655,1.9884 -85.2837,0.8113 -106,-2.0413 -65.4689,-9.0155 -123.9278,-28.927 -170.9736,-58.2351 -51.1119,-31.8411 -93.3868,-77.2695 -118.3598,-127.1887 -4.9366,-9.8681 -8.4593,-14.5337 -19.8778,-26.3269 l -13.8778,-14.3333 h -27.0616 -27.0614 l -17.1071,15.8293 -17.1069,15.8293 -3.6854,16.0879 c -4.3662,19.0601 -9.5552,30.1341 -18.1182,38.6679 -7.8407,7.8136 -15.584,11.6981 -33.6087,16.8602 l -14.1717,4.0587 -34.1287,33.4847 -34.1287,33.4846 -7.5485,19.8487 c -4.1517,10.9168 -7.9624,20.3144 -8.4681,20.8837 -0.5056,0.5692 -17.6736,6.7502 -38.1511,13.7354 -20.4773,6.9853 -39.5339,14.2873 -42.3476,16.2268 -10.2168,7.042 -16.5917,20.7185 -15.016,32.2144 0.9589,6.9964 5.5225,15.1804 11.6852,20.9554 4.3379,4.0652 4.8385,4.1867 20.4468,4.9648 18.9712,0.9458 25.2647,2.5064 28.2056,6.9947 4.132,6.3063 0.017,13.9934 -19.5581,36.5402 -7.3406,8.4546 -7.5787,8.9813 -9.7311,21.5288 -3.2687,19.0544 -8.3405,29.5728 -27.4879,57.0052 -3.9541,5.6652 -4.0952,6.3613 -4.0952,20.2148 v 14.3474 l 4.3334,3.665 c 6.9134,5.8472 17.1876,9.8598 28.8474,11.2666 5.9506,0.718 15.4692,1.8628 21.1526,2.544 6.4365,0.7716 16.367,3.4939 26.3333,7.2191 17.1148,6.3971 28.4293,9.0832 48.7817,11.5812 l 12.7818,1.5688 3.0253,9.5296 c 1.664,5.2412 5.2828,14.3931 8.0419,20.3375 4.2306,9.115 5.7229,11.08 9.5262,12.5434 3.2299,1.2428 16.5827,1.9047 47.0502,2.3322 l 42.5404,0.5968 14.4016,7.8598 14.4014,7.8598 h 29.7248 29.7247 l 7.8513,-5.3334 c 10.0651,-6.837 18.636,-9.3288 32.0574,-9.3194 12.8669,0.013 17.5277,1.1389 33.9306,8.2266 15.4524,6.6772 18.038,6.4822 37.1284,-2.7994 l 13.9203,-6.768 h 82.2681 82.2682 l 21.2879,-7.1096 21.2878,-7.1096 8.1398,3.8042 c 4.4768,2.0923 15.5768,5.2874 24.6666,7.1 24.5826,4.9023 35.6475,9.5539 52.8034,22.1979 l 6.943,5.1171 h 25.2454 25.2454 l 16.2898,-12 16.2897,-12 h 57.4584 57.4584 l 21.3967,-22.0692 21.3968,-22.0692 23.3217,-8.6327 23.3219,-8.6327 8.724,3.2338 c 21.285,7.8896 39.9486,7.3178 56.6024,-1.734 5.1498,-2.7991 11.3546,-5.4591 13.7885,-5.9111 6.8025,-1.2632 15.9196,1.3868 26.9081,7.8209 20.4254,11.9599 42.1486,13.244 57.6578,3.4083 7.1613,-4.5415 15.619,-16.9556 20.494,-30.0808 1.9066,-5.1333 6.4522,-16.2333 10.1014,-24.6667 3.6491,-8.4333 8.9971,-22.2228 11.8844,-30.6433 5.9572,-17.3736 12.8139,-30.1104 22.9818,-42.69 l 7.005,-8.6667 40.4166,-0.353 40.4166,-0.3532 7.6776,-6.9802 c 4.2227,-3.8392 14.5662,-13.4193 22.9854,-21.2893 15.1866,-14.196 15.3844,-14.3252 25.029,-16.354 13.2463,-2.7864 23.7839,-8.7382 36.2731,-20.4871 11.7665,-11.0691 16.2301,-17.7299 18.4039,-27.4629 0.8122,-3.6374 5.5878,-15.3448 10.6125,-26.0167 5.0246,-10.6719 10.1667,-22.996 11.427,-27.3868 3.7841,-13.1851 13.3581,-25.1059 52.7346,-65.6609 l 22.342,-23.0107 11.7787,-3.3907 c 14.1625,-4.0769 26.7708,-11.058 41.112,-22.7634 19.4911,-15.9088 33.2025,-25.6995 45.6508,-32.5967 13.4363,-7.4448 12.0868,-5.5495 16.5384,-23.2277 0.7385,-2.9334 2.7988,-7.5715 4.5784,-10.307 5.6712,-8.7181 11.6741,-10.5934 52.5091,-16.4041 18.6053,-2.6476 32.8357,-7.0284 43.155,-13.2855 l 7.7651,-4.7082 7.4619,6.3524 c 9.1181,7.7624 21.6746,22.7129 21.6746,25.807 0,3.5907 -8.1432,9.817 -22.452,17.1668 -12.0846,6.2075 -13.622,7.4422 -17.9514,14.4171 -2.6042,4.1955 -8.3818,12.4281 -12.8388,18.2948 -11.6707,15.3613 -18.5456,29.2823 -21.4414,43.416 l -2.428,11.8507 5.6167,13.3164 c 3.0891,7.324 5.9571,13.6569 6.3735,14.0732 0.4162,0.4162 10.6772,-0.5672 22.802,-2.1856 l 22.0452,-2.9426 10.4705,8.6855 10.4704,8.6855 -0.2013,30.5504 c -0.1267,19.1418 -1.2514,41.7342 -3.0132,60.4985 l -2.8119,29.948 7.6799,7.8467 7.6798,7.8466 19.3334,-0.663 c 15.3238,-0.5256 22.0984,-1.4091 32.6666,-4.2603 29.5687,-7.9773 28.9887,-7.8927 31.6418,-4.6163 2.9533,3.6472 3.1368,14.1728 0.3626,20.8121 -1.0976,2.6269 -3.7312,6.7529 -5.8524,9.1689 -8.9542,10.1983 -11.832,34.8889 -5.8569,50.2505 l 2.9619,7.6146 -6.0168,16.9609 -6.0168,16.9611 -0.8314,51.3944 -0.8313,51.3945 -4.7161,8.03 c -2.594,4.4165 -7.7931,14.7075 -11.5536,22.8688 -12.298,26.6901 -14.3512,28.8004 -34.6399,35.6023 l -12.9799,4.3517 -7.7585,16.6036 c -8.4903,18.1699 -7.9397,17.6329 -24.5959,23.9875 -24.1305,9.2064 -39.9902,26.4981 -45.9337,50.0814 -3.8148,15.1367 -12.3689,20.274 -36.3747,21.8456 -19.0006,1.244 -23.8133,2.8848 -30.636,10.4458 -5.8685,6.5036 -9.9865,14.4214 -22.5488,43.3548 -12.5998,29.0201 -37.203,82.582 -38.6569,84.1573 -0.644,0.6979 -8.7745,4.3123 -18.0677,8.0323 l -16.8968,6.7633 -5.4344,16.2453 c -2.989,8.9348 -6.0344,16.781 -6.7678,17.4358 -1.6937,1.5125 -27.5548,8.9065 -40.5848,11.6038 -5.6036,1.16 -14.9692,1.9179 -21.5296,1.7423 -10.8112,-0.2895 -11.9844,-0.052 -17.0208,3.4377 -4.9349,3.4199 -5.3269,4.1164 -4.4704,7.943 0.5164,2.3069 0.903,9.8944 0.859,16.861 -0.072,11.3326 -0.6834,14.4222 -5.8071,29.3334 -8.1219,23.6364 -7.5804,22.8805 -18.9912,26.5106 -16.9211,5.3831 -25.6672,12.0552 -31.6642,24.156 -3.5936,7.2515 -3.6166,7.4684 -2.0666,19.4398 2.7645,21.3509 6.757,34.1324 13.3705,42.8032 1.7812,2.3352 3.2385,4.8978 3.2385,5.6948 0,0.7968 -2.6756,6.7764 -5.9458,13.2877 -7.6398,15.2116 -17.7435,26.1167 -34.0222,36.7201 -6.9842,4.5494 -15.6181,10.9327 -19.1864,14.185 l -6.4876,5.9134 1.5302,45.3114 c 2.0825,61.6712 1.5162,57.7872 9.1702,62.9079 3.4512,2.309 7.475,4.4929 8.9416,4.853 3.4887,0.8568 10.9788,-0.2614 16,-2.3885 z m 283.7821,-303.9592 c -3.7865,-1.7631 -10.2365,-5.3498 -14.3333,-7.9704 l -7.4488,-4.7651 v -8.6176 c 0,-19.2031 4.7824,-28.7488 14.4029,-28.7488 5.9587,0 11.8722,3.8483 22.0603,14.356 l 6.4631,6.6659 -0.4631,13.6088 c -0.4223,12.4052 -0.7416,13.8341 -3.6109,16.1557 -4.174,3.3773 -8.7394,3.1943 -17.0702,-0.6845 z m -364.0279,228.3652 c 3.922,-2.0644 4.8679,-3.7211 4.892,-8.568 0.028,-5.5846 -4.983,-10.1658 -11.119,-10.1658 -2.576,0 -5.3915,0.4375 -6.2566,0.972 -1.6209,1.0019 -7.1753,12.5347 -6.3821,13.2516 0.2447,0.2212 2.5448,1.6691 5.1115,3.2176 5.2396,3.1612 9.4521,3.5571 13.7542,1.2926 z m -1067.4611,-1316.8262 6.9598,-10.3076 -7.0607,-20 c -8.0136,-22.6997 -11.4692,-29.9656 -21.8768,-46 -21.6971,-33.4273 -49.322,-57.2792 -66.3877,-57.3203 -13.8368,-0.033 -33.0312,21.6339 -33.061,37.3203 -0.027,14.2936 17.7838,53.7681 33.9904,75.3333 12.2232,16.2648 46.0282,30.952 71.8095,31.199 l 8.6667,0.083 z m 484.2581,-11.696 c 11.7416,-2.7676 20.1545,-7.6605 30.0936,-17.5023 8.2357,-8.1552 16.6885,-22.0208 16.6885,-27.3754 0,-6.6168 -8.6255,-18.535 -34.1793,-47.227 -19.5075,-21.9032 -32.0347,-37.7872 -36.0612,-45.7245 -5.0448,-9.9445 -9.8519,-15.8971 -16.0495,-19.874 -7.1092,-4.562 -19.4147,-8.2348 -27.6568,-8.2548 -7.5316,-0.019 -17.9964,-5.2723 -23.6451,-11.8716 -2.6273,-3.0693 -6.8565,-9.9011 -9.3981,-15.1813 -2.5416,-5.2804 -6.3125,-11.6108 -8.3797,-14.0675 -3.325,-3.9515 -4.311,-4.3785 -8.546,-3.7013 -6.8548,1.0961 -18.8027,6.1764 -42.878,18.2317 -19.2668,9.6476 -21.1703,10.9208 -22.2886,14.9091 -0.6725,2.3984 -3.8153,13.6606 -6.984,25.0273 -3.1688,11.3667 -6.5888,21.6565 -7.6001,22.8665 -1.0112,1.2099 -10.2,7.7456 -20.4195,14.5238 l -18.5808,12.3238 0.029,6.8096 c 0.016,3.7454 1.1232,9.2096 2.4603,12.143 2.9227,6.412 17.5965,25.1374 21.8263,27.8526 1.6596,1.0654 10.8175,3.997 20.3508,6.5147 l 17.3333,4.5777 10.6667,-2.927 c 17.6647,-4.8475 26.1055,-9.9296 47.3592,-28.5151 24.3772,-21.3168 33.8164,-22.7103 42.5832,-6.2867 1.7956,3.3639 1.6061,4.5642 -2.5061,15.878 -8.0172,22.0572 -8.0076,19.4119 -0.139,38.4731 l 6.9767,16.9005 11.3731,4.8859 c 6.2552,2.6872 15.0436,5.6843 19.5297,6.66 11.0549,2.4047 27.6751,2.3747 38.0411,-0.069 z m 229.1534,-193.8277 c 4.1958,-2.1356 12.3624,-7.4459 18.148,-11.8007 l 10.5192,-7.9177 17.2454,-36.4867 17.2453,-36.4865 -3.5719,-9.1044 c -5.5525,-14.1524 -18.4154,-28.7043 -33.2122,-37.5732 -4.6179,-2.7679 -9.678,-4.748 -12.1332,-4.748 -8.8202,0 -24.0163,15.1478 -40.4426,40.3142 -5.8704,8.9939 -16.7228,25.1847 -24.1165,35.9798 l -13.4432,19.6274 5.898,12.6214 c 4.7407,10.1446 7.6897,14.4041 15.0285,21.706 10.5503,10.497 22.754,17.6633 30.1686,17.7157 2.9885,0.021 8.1414,-1.5441 12.6666,-3.8473 z m -322.2841,-30.786 c 8.9499,-2.4863 19.9128,-14.21 19.9128,-21.2948 0,-3.5532 -9.4497,-13.8218 -15.2544,-16.5763 -9.7835,-4.6425 -16.3595,-1.3959 -22.7613,11.2376 -9.881,19.4991 -1.3572,32.0395 18.1029,26.6335 z m 3926.2597,942.1056 -12.5308,-9.8965 -30.5746,-1.3758 c -32.541,-1.4642 -43.0782,-2.9605 -46.337,-6.58 -2.5585,-2.8414 -6.7572,-13.3358 -11.8364,-29.5845 l -3.9594,-12.6667 -48.8634,-49 -48.8634,-49 h -13.5635 -13.5635 l -28.5876,-29.6666 c -15.7233,-16.3167 -41.3547,-43.3083 -56.9587,-59.9812 l -28.3708,-30.3147 -41.4261,-0.352 -41.4261,-0.3522 -10.5019,-11.8934 c -10.954,-12.4055 -16.9836,-22.3504 -16.9836,-28.0122 0,-5.0778 -4.8469,-16.9304 -10.4777,-25.6221 -17.1079,-26.4075 -46.5502,-49.8595 -67.3919,-53.6807 -10.3881,-1.9045 -17.0131,-5.9729 -30.4725,-18.7133 l -11.1622,-10.566 -7.7802,-26.7916 -7.7803,-26.7916 2.888,-3.0743 c 3.8211,-4.0672 7.5029,-14.8432 10.0421,-29.3909 l 2.0674,-11.8441 -15.6379,-28.8023 -15.638,-28.8021 -13.3284,-4.7462 c -17.2445,-6.1408 -21.5205,-8.484 -23.9085,-13.1018 -2.515,-4.8632 -6.8219,-26.3007 -8.8258,-43.9283 -1.5077,-13.2649 -1.0412,-44.1132 0.8028,-53.0767 0.8326,-4.047 -0.1541,-5.1154 -33.2484,-36 l -34.1065,-31.829 -0.021,-48.726 -0.021,-48.726 -6.3333,-4.785 c -8.136,-6.1469 -17.2243,-10.6477 -29.326,-14.5232 -5.62,-1.7997 -9.9029,-3.9604 -10.2417,-5.1666 -0.3203,-1.1403 -1.857,-8.9732 -3.4148,-17.4066 -3.7963,-20.5506 -7.0714,-31.2178 -14.1291,-46.0205 -3.444,-7.2232 -7.0595,-17.6072 -8.6552,-24.8589 -5.6371,-25.6174 -6.7607,-29.5947 -10.6197,-37.5932 -2.1744,-4.5067 -5.902,-11.1504 -8.2835,-14.7639 -5.7984,-8.7977 -5.6399,-16.1376 0.6648,-30.7635 6.0459,-14.0256 8.1781,-23.3097 7.0624,-30.7497 -1.1573,-7.7175 1.1027,-18.4672 6.7641,-32.1748 l 4.512,-10.9245 V 3233.064 3129.9769 l 8.1679,-11.9884 c 7.4091,-10.8748 11.65,-18.7913 17.6235,-32.8975 1.1433,-2.7 6.7717,-10.5 12.5076,-17.3333 22.6938,-27.036 28.2853,-36.0948 47.9946,-77.7576 8.326,-17.6 15.8875,-32.75 16.8032,-33.6667 0.9158,-0.9166 8.7967,-3.7218 17.5131,-6.2338 l 15.848,-4.5672 66.7711,-66.6072 66.771,-66.6071 8.6339,-1.6185 c 15.0663,-2.8244 24.3495,-9.129 29.9291,-20.3259 1.8904,-3.7935 3.437,-8.7647 3.437,-11.0472 0,-6.8397 7.8107,-18.3899 27.2504,-40.2972 1.1668,-1.3148 44.3507,-5.6299 56.9054,-5.6863 1.1856,0 9.1108,-6.5616 17.6114,-14.5694 18.2155,-17.1598 28.1478,-24.496 43.5662,-32.1792 13.9205,-6.9367 27.2358,-15.8764 38.6667,-25.9604 11.7898,-10.4007 24.0025,-18.1923 37.9866,-24.2354 l 11.7211,-5.0652 3.5479,-12.7554 c 6.1024,-21.9395 9.8074,-24.9046 33.2366,-26.5988 25.4478,-1.8402 34.662,-6.3244 59.1168,-28.7703 12.302,-11.2913 21.6535,-16.5147 37.5768,-20.9891 6.519,-1.8317 12.219,-3.8786 12.6667,-4.5488 0.4477,-0.6701 6.9641,-8.1512 14.4808,-16.6248 l 13.6667,-15.4064 0.032,-8.4865 c 0.048,-12.9037 6.8032,-26.7296 21.5548,-44.1173 l 3.0802,-3.6307 40.8023,-3.1175 40.8023,-3.1174 12.5116,-9.1834 c 13.2421,-9.7193 14.944,-10.196 23.5593,-6.597 7.3788,3.0822 11.8803,8.0438 18.0585,19.9044 4.9975,9.5938 14.1486,20.7057 17.0519,20.7057 0.622,0 5.1997,-2.6215 10.1725,-5.8253 10.8008,-6.9588 22.3287,-12.1047 43.2318,-19.2982 l 15.5233,-5.3421 21.2987,5.4585 21.2986,5.4586 20.9255,-12.2258 20.9253,-12.2257 h 40.0287 40.0288 l 17.6377,-12 17.6378,-12 h 41.3169 41.3168 l 22.5384,-12 22.5384,-12 h 18.6827 18.6826 l 22.7148,-22.4401 22.7148,-22.4402 29.3334,-2.8923 29.3333,-2.8921 8.7227,-9.0351 c 17.8464,-18.4857 36.7507,-64.6817 39.79,-97.2338 1.1673,-12.5022 5.7841,-30.4743 8.5351,-33.2252 0.356,-0.3562 17.966,-1.4946 39.1332,-2.53 21.167,-1.0354 38.5842,-1.904 38.7046,-1.9302 0.12,-0.027 2.048,-3.0202 4.2836,-6.6534 l 4.0646,-6.6058 -4.8126,-13.4181 -4.8125,-13.4181 6.6853,-10.9762 c 10.9455,-17.9706 15.4727,-20.3513 44.8032,-23.5609 9.8535,-1.0783 15.9627,-2.6432 24.6667,-6.3187 10.6239,-4.4861 12.9861,-4.9589 28.9028,-5.7841 15.4479,-0.8009 18.3729,-1.3564 26.8901,-5.1056 11.2084,-4.9337 15.1039,-5.2284 18.5699,-1.4044 2.1851,2.4108 2.5999,5.3488 2.9688,21.0281 0.3771,16.0267 0.084,19.1484 -2.4319,25.8716 -3.6382,9.7242 -8.2678,13.2991 -22.0145,16.9992 -13.8091,3.717 -19.5279,7.5016 -23.4876,15.544 -2.7584,5.6028 -3.1615,8.3331 -3.1615,21.4191 v 14.9977 l 29.3334,13.1727 c 16.1333,7.2448 37.7174,17.1847 47.9646,22.0884 21.5083,10.2927 30.1147,13.404 42.9319,15.5208 12.1028,1.9987 22.6621,-0.5673 33.9904,-8.2603 4.4636,-3.0312 13.0719,-7.801 19.1295,-10.5996 12.7112,-5.8726 21.1321,-12.334 40.6502,-31.1912 17.7276,-17.1273 26.8662,-24.3128 33.083,-26.0126 5.8953,-1.612 17.8117,-8.6812 28.5089,-16.9126 l 7.8073,-6.0076 20.9671,-0.021 20.9671,-0.021 4.3333,6.2704 c 6.6927,9.6846 5.6107,19.4988 -5.0195,45.5245 -2.9226,7.1555 -5.3138,13.6633 -5.3138,14.4617 0,0.7986 2.4282,3.8236 5.3962,6.7226 l 5.3962,5.2705 42.7385,0.4483 42.7385,0.4481 9.9954,6.5251 c 9.6354,6.2901 16.7906,9.2365 22.4018,9.2248 6.0488,-0.013 16.7382,-6.8099 29.3536,-18.6654 16.7832,-15.7721 26.7747,-23.096 36.3467,-26.6426 9.0971,-3.3707 15.7199,-7.5442 25.7056,-16.1991 l 7.4059,-6.4188 53.2608,0.6783 53.2608,0.6781 17.4056,8.8812 17.4056,8.8811 16.8591,-8.9195 16.859,-8.9196 h 35.8119 35.8117 l 18.2324,9.3333 c 10.0279,5.1334 19.8935,9.3271 21.9236,9.3194 4.7791,-0.019 15.1246,-7.8154 35.1284,-26.4756 13.9543,-13.017 16.35,-14.7292 21.4683,-15.3439 7.1011,-0.8529 116.6243,-3.3544 187.7611,-4.2887 71.58,-0.94 91.2642,-2.1798 105.3757,-6.6377 l 11.0937,-3.5044 12.7652,4.9839 c 7.021,2.7412 22.6654,10.0284 34.7654,16.194 19.5834,9.9785 23.7574,11.5789 38,14.5698 24.515,5.148 41.3264,10.7007 56.4228,18.6359 l 13.7562,7.2307 8.3355,-1.9331 c 9.5345,-2.2112 39.8419,-7.5049 40.3065,-7.0403 0.517,0.5168 12.5123,41.13 12.5123,42.3631 0,0.6324 -8.1456,10.0248 -18.1013,20.8717 -9.9558,10.8471 -18.6526,21.1023 -19.326,22.7894 -1.8134,4.542 1.9098,10.5749 17.3628,28.1336 27.3178,31.0408 28.9117,38.1129 13.7473,60.9989 l -4.55,6.8667 2.9793,14.4667 2.9792,14.4666 -6.253,10.2359 c -5.6696,9.2811 -8.01,12.0828 -17.8951,21.4227 -1.6812,1.5885 -5.9632,8.3152 -9.5155,14.9481 l -6.4585,12.06 1.7944,31.3333 c 3.0553,53.3475 4.7925,113.1616 3.8359,132.0704 l -0.9142,18.0704 5.5254,6.3843 c 3.039,3.5112 6.6437,8.5796 8.0104,11.2628 2.7388,5.3775 6.7789,18.1677 6.7789,21.4607 0,1.1537 -3.3367,6.5332 -7.4149,11.9544 -4.0782,5.421 -10.0042,15.3181 -13.1687,21.9934 -3.1645,6.6754 -11.2229,20.537 -17.9076,30.8036 l -12.1539,18.6667 -0.013,36.6875 -0.013,36.6876 15.8764,15.8349 15.8762,15.8349 33.1238,-0.883 c 18.218,-0.4858 38.3005,-1.2426 44.628,-1.6818 l 11.5042,-0.7986 9.8291,11.8341 c 5.4059,6.5087 11.3119,14.6503 13.1244,18.0921 l 3.2955,6.2582 -3.2824,3.4938 c -7.0243,7.477 -55.6799,28.6403 -65.8455,28.6403 -4.3359,0 -14.9188,5.8989 -23.0964,12.8737 l -6.9665,5.9422 0.8154,34.2586 0.8155,34.2588 6.3164,8.6667 c 10.1441,13.9187 12.132,18.6044 19.3935,45.7151 5.0973,19.0312 10.0301,30.0184 17.9332,39.9441 l 5.3258,6.6892 v 55.5348 55.5349 l 12.6667,18.2016 12.6667,18.2017 -0.056,41.0893 -0.056,41.0893 -12.5955,18 -12.5953,18 -0.016,79.547 -0.016,79.5469 -5.2154,6.598 c -10.5422,13.3368 -14.699,25.0524 -18.1366,51.1168 l -1.961,14.8671 -9.0101,9.9681 c -13.3019,14.7161 -22.7731,26.6643 -25.7277,32.4557 -3.4146,6.693 -3.3615,16.4744 0.1401,25.8332 1.5309,4.0918 2.2936,8.1146 1.7159,9.05 -0.572,0.9262 -7.8338,10.553 -16.1372,21.3928 -8.3034,10.8399 -15.639,21.0399 -16.3015,22.6667 -0.6624,1.6268 -1.8744,8.0577 -2.6931,14.2911 -3.8968,29.666 -9.0668,39.258 -23.3826,43.3822 -12.4923,3.5988 -20.5575,8.3027 -29.3592,17.1235 -10.1072,10.1291 -13.8443,18.5093 -11.2095,25.1365 0.9529,2.3968 5.3456,7.7572 9.7617,11.912 11.8546,11.1532 10.3708,12.0416 -28.4946,17.061 -25.7007,3.319 -34.3426,5.7205 -35.9678,9.995 -2.219,5.8364 -4.0122,23.9298 -5.2773,53.2475 -0.6928,16.0551 -1.7436,29.6275 -2.3352,30.1609 -0.5916,0.5335 -9.2044,2.8643 -19.1396,5.1796 l -18.0639,4.2098 -44.6242,44.9626 c -61.526,61.9926 -67.0622,66.2003 -89.9483,68.3656 -13.6716,1.2934 -21.3477,3.9619 -28.2996,9.838 -4.2821,3.6196 -4.3333,3.8011 -4.3333,15.3776 0,18.9394 -0.3074,19.6583 -9.1542,21.414 -16.796,3.3334 -29.7149,7.4399 -46.1792,14.6784 -9.5333,4.1914 -23.3333,9.582 -30.6666,11.9791 l -13.3334,4.3583 -26.6602,30.4758 -26.6603,30.4759 h -13.5055 c -14.5217,0 -21.7582,-1.7712 -29.8406,-7.3037 -10.2735,-7.0324 -18.0999,-5.0832 -22.8658,5.6948 -8.502,19.2271 -11.1484,23.698 -19.9189,33.6511 l -9.5268,10.8113 -16.8443,-0.8324 c -23.6212,-1.1675 -46.5001,-3.2925 -53.1756,-4.9392 -4.8772,-1.2032 -7.2711,-0.8965 -17.2213,2.2057 -12.6184,3.9343 -85.9826,40.5427 -97.114,48.4596 -8.0611,5.7332 -28.3971,15.3376 -47.1,22.245 l -13.7668,5.0842 -13.4599,-2.4696 -13.4599,-2.4697 -14.7734,7.6016 -14.7734,7.6016 h -63.7634 -63.7635 l -13.9219,7.3015 c -25.5984,13.4254 -38.2722,14.6097 -59.3705,5.5478 l -11.4696,-4.9262 -13.5377,8.0384 -13.5379,8.0385 h -138.6832 -138.6832 l -6.7999,-4.6775 c -11.2445,-7.7348 -21.961,-9.929 -81.0712,-16.5989 l -35.2685,-3.9796 -14.9756,11.2484 c -17.3785,13.0533 -10.0445,11.4736 -68.4872,14.7523 -60.9608,3.42 -103.8614,8.455 -135.2688,15.8762 l -13.993,3.3063 -14.1854,-6.8969 c -15.5326,-7.5519 -21.6234,-8.5523 -25.9186,-4.2571 -1.4518,1.4519 -6.3885,9.7619 -10.9704,18.4667 -4.5817,8.7046 -9.2305,16.3189 -10.3305,16.9205 -1.1,0.6016 -6.5688,3.2004 -12.1528,5.7751 -8.8609,4.0857 -14.2881,7.6689 -29.1805,19.2661 -3.2194,2.5069 -6.9598,2.6223 -109.3334,3.3705 -58.3,0.426 -123.0692,1.1484 -143.9314,1.6054 l -37.9316,0.8305 -13.264,10.496 -13.264,10.496 h -20.3658 -20.3656 l -12.5308,-9.8965 z m -30.3322,-795.4462 c 3.4365,-2.2052 12.5016,-10.4552 20.1448,-18.3333 12.2469,-12.6235 48.2906,-52.6023 55.5649,-61.6313 l 2.6647,-3.3072 22.0469,3.1677 22.0468,3.1679 14.4253,-13.1127 c 7.934,-7.212 14.7922,-13.7492 15.2406,-14.5272 0.4482,-0.778 1.5428,-7.1145 2.4322,-14.0812 2.8438,-22.2729 8.099,-45.6611 12.955,-57.6552 l 4.7188,-11.6553 -10.3314,-14.7138 c -13.8525,-19.7286 -25.094,-32.692 -35.5965,-41.0492 l -8.7048,-6.9265 h -27.4924 -27.4924 l -22.4659,11.2476 c -12.3561,6.1861 -27.7994,14.3964 -34.3185,18.2448 -11.0725,6.5368 -24.7196,17.8372 -27.1433,22.476 -0.5838,1.1175 -2.433,15.6463 -4.1094,32.2865 l -3.0478,30.2548 -13.622,14.4119 c -7.4922,7.9264 -13.8714,14.1117 -14.1759,13.7451 -0.3047,-0.3667 -5.4448,-7.2936 -11.4227,-15.3932 -13.2513,-17.9547 -25.8137,-30.2683 -35.3193,-34.6202 -3.9243,-1.7965 -11.8899,-4.2498 -17.7013,-5.4516 l -10.566,-2.1852 -8.5036,8.9756 c -16.1995,17.0988 -18.5932,29.3832 -10.3326,53.0268 l 4.5486,13.0191 -5.3422,15.9692 -5.342,15.9693 3.4943,10.4923 c 5.996,18.0043 11.8784,25.0689 22.8365,27.4261 3.5188,0.757 8.1604,-1.2876 32.5584,-14.3422 l 28.4546,-15.2251 5.1813,-14.4971 c 2.8499,-7.9734 5.6457,-14.9644 6.2132,-15.5354 0.5675,-0.5711 2.6211,0.212 4.5636,1.74 5.3324,4.1944 7.5916,13.7778 7.5916,32.203 v 15.7542 l 4.9229,5.6705 c 14.7511,16.9912 28.3726,29.0039 32.888,29.0039 0.709,0 4.1006,-1.8043 7.537,-4.0094 z m 245.3188,-218.6525 c 6.9666,-0.7691 21.5032,-1.9497 32.3034,-2.6236 22.6884,-1.4155 33.2362,-3.9627 55.6966,-13.4501 l 15.3333,-6.4771 41.1624,-1.9915 c 47.8227,-2.3138 40.6492,0.132 66.8376,-22.7832 8.8,-7.7 16.4301,-14.0028 16.9559,-14.0062 0.5257,0 5.286,3.8936 10.5784,8.6602 l 9.6226,8.6667 h 47.1759 47.1757 l 16.2458,-12.1385 16.2457,-12.1386 31.8317,0.7715 31.8317,0.7715 -1.0922,-5.633 c -2.4006,-12.381 -0.023,-21.5558 7.305,-28.1874 2.5265,-2.2866 3.7073,-2.2418 30.3762,1.1521 49.3416,6.2795 49.7476,6.5087 49.7476,28.1003 v 13.8824 l 7.06,5.3304 c 9.3886,7.0884 15.8251,9.6132 24.5075,9.6132 10.0431,0 17.702,-4.0964 30.2445,-16.176 l 10.4786,-10.0919 2.371,-13.9613 c 3.1698,-18.6643 6.915,-28.2019 13.0646,-33.271 l 4.8873,-4.0285 42.2529,0.8819 42.2528,0.8818 23.6095,-18.8794 c 12.9852,-10.3838 24.3925,-18.8795 25.3495,-18.8795 0.9569,0 6.6034,1.7932 12.5478,3.9849 15.7076,5.7916 34.8644,9.3484 50.3504,9.3484 h 13.2242 l 7.8997,-6.1838 c 10.5427,-8.2527 18.7933,-11.7504 42.2305,-17.903 19.831,-5.206 32.2372,-9.5693 44.1304,-15.5211 9.7542,-4.8812 25.2779,-8.3921 37.1064,-8.3921 10.4474,0 10.5199,-0.024 28.12,-9.5055 19.6027,-10.5596 34.0294,-19.547 36.8067,-22.9296 1.3695,-1.668 1.7791,-6.6916 1.6339,-20.0388 l -0.1936,-17.8129 7.4317,-6.3491 7.4317,-6.3492 24.9343,7.5134 24.9344,7.5133 43.0732,-0.021 43.0731,-0.021 7.7689,-5.2757 c 16.3827,-11.1252 30.6571,-32.6564 33.5063,-50.5401 1.571,-9.8604 5.2046,-17.5628 13.7694,-29.1879 3.3783,-4.5855 6.1424,-9.0995 6.1424,-10.0313 0,-2.0842 -19.7669,-21.6223 -23.0116,-22.7452 -3.6194,-1.2528 -7.902,0.9328 -20.1716,10.2944 -7.8693,6.0044 -13.6648,9.3044 -19.0618,10.8544 -16.2906,4.6782 -23.8903,9.4234 -47.5031,29.6601 l -11.3128,9.6953 -26.4696,-0.362 -26.4695,-0.362 -2.6654,-5.3333 c -2.4596,-4.9215 -2.701,-8.5389 -3.1259,-46.8472 l -0.4604,-41.5139 11.9127,-17.8194 c 16.3176,-24.4084 15.4113,-22.1331 13.0554,-32.779 -2.6017,-11.757 -4.2754,-23.0356 -6.0424,-40.7168 -1.7182,-17.1938 -5.1084,-28.9664 -12.1213,-42.0928 l -5.2193,-9.769 v -46.4328 -46.433 l -6.781,-8.0182 c -10.5945,-12.528 -22.0142,-19.8732 -43.8145,-28.1819 l -12.5953,-4.8004 -4.8012,-12.7199 c -5.178,-13.7178 -10.2079,-23.1666 -14.3072,-26.8765 -2.9224,-2.6447 -9.038,-3.0168 -81.266,-4.9459 l -42.8987,-1.1456 -10.1123,5.2988 c -12.8309,6.7235 -21.7822,15.8138 -28.4161,28.8572 l -5.2231,10.2696 1.6932,8.6667 c 22.8036,116.7263 -2.3678,223.1699 -72.5193,306.6667 -21.0963,25.1094 -52.9027,53.6322 -80.1211,71.8494 -58.396,39.0846 -128.6596,65.8315 -199.7764,76.0482 -54.2716,7.7966 -113.7055,7.3414 -163.7277,-1.2542 -163.5902,-28.1104 -287.7724,-132.374 -340.6103,-285.9768 -4.7652,-13.8526 -6.3395,-16.85 -11.73,-22.3333 l -6.2261,-6.3333 -10.7168,0.023 c -18.7964,0.04 -26.6643,2.5128 -58.7168,18.4495 -16.1334,8.0215 -32.6334,16.808 -36.6667,19.5256 -10.2191,6.8853 -13.6287,8.5131 -26.7225,12.7571 -23.1056,7.4893 -37.8763,19.596 -54.4218,44.6065 l -9.6836,14.6381 0.8444,14.6667 c 0.4646,8.0667 1.1486,15.9475 1.52,17.5129 0.5674,2.3907 -0.9956,3.8404 -9.7638,9.0576 -5.7416,3.4163 -15.428,9.7855 -21.5252,14.1538 l -11.0858,7.9424 -37.5809,0.013 -37.5808,0.013 -24,21.3138 -24,21.3137 -10.9035,0.013 c -15.5648,0.013 -30.2593,2.2116 -41.5058,6.2075 l -9.7427,3.4616 -15.0837,30.1703 -15.0838,30.1704 5.4931,10 c 7.2451,13.1894 18.7197,24.5249 32.0767,31.6878 l 10.5837,5.6756 25.0473,-8.3102 25.0475,-8.3103 7.2339,3.5477 c 9.1089,4.4675 22.0748,16.5414 34.5134,32.1392 l 9.646,12.0959 36.3759,17.7842 36.3757,17.784 31.6299,-2.0079 c 33.2504,-2.1107 71.4479,-4.1425 101.6297,-5.406 9.9,-0.4144 26.4,-1.3871 36.6667,-2.1615 13.1253,-0.99 21.0415,-0.9888 26.6667,0 4.4,0.7766 11.9,2.1168 16.6666,2.9784 l 8.6667,1.5666 19.0644,-7.5204 19.0644,-7.5204 8.2689,4.2553 c 7.2987,3.756 9.5206,4.2512 18.9356,4.2211 13.2447,-0.043 20.5412,-2.7454 35.0914,-12.9992 l 10.648,-7.5039 43.797,0.013 43.797,0.013 15.7709,13.3222 15.7709,13.3222 h 34.8134 34.8134 l 12.0823,9.2132 c 6.6453,5.0672 15.6824,12.5037 20.0824,16.5256 l 8,7.3124 -3.3037,3.5504 c -1.8171,1.9526 -6.6171,5.4442 -10.6667,7.7592 -10.1793,5.8189 -18.3235,13.6588 -22.2611,21.4293 l -3.3261,6.5639 -6.8879,-6.6888 c -10.8654,-10.5518 -19.119,-16.1342 -27.3073,-18.4698 -4.1693,-1.1893 -12.7157,-5.103 -18.9923,-8.6974 -20.2708,-11.6086 -37.0214,-13.0215 -60.0113,-5.0619 l -11.4451,3.9627 -7.2326,-3.3099 c -11.1594,-5.1068 -34.0384,-8.3003 -77.2326,-10.7799 l -14,-0.8037 -29.5777,27.7473 -29.5779,27.7474 -0.089,18.1913 -0.089,18.1913 16.3333,17.485 c 15.8103,16.9248 16.4828,17.4642 21,16.8434 2.5667,-0.3526 10.3667,-1.2705 17.3333,-2.0396 z m 408.9721,-648.3087 11.0279,-10.9705 v -19.483 c 0,-15.0376 -0.601,-21.8324 -2.6339,-29.7813 -7.0856,-27.7044 -24.3876,-44.7799 -52.0745,-51.3927 l -11.1027,-2.6517 -16.0945,6.7429 c -22.0735,9.248 -42.0546,19.82 -54.7611,28.9742 l -10.6667,7.6845 -0.3332,19.2575 -0.333,19.2573 5.4649,4.5192 c 8.0973,6.6963 25.7839,16.5983 50.5347,28.2928 l 22,10.3947 23.9721,0.063 23.9721,0.064 z m 323.4756,-736.4524 c -1.125,-2.9322 1.9286,-5.871 3.4844,-3.3535 1.3043,2.1101 0.4164,5.4431 -1.45,5.4431 -0.6778,0 -1.5933,-0.9403 -2.0344,-2.0896 z m 10.4215,-15.2518 c 2.4409,-7.002 10.9068,-11.8644 12.6677,-7.2757 1.015,2.6451 -3.032,7.1559 -8.4941,9.4677 -5.7392,2.4292 -5.7775,2.4091 -4.1736,-2.192 z"
       style="fill:#000000;stroke-width:1.33333" />
  </g>
</svg>
