<?xml version="1.0" encoding="UTF-8" standalone="no"?>
<svg
   viewBox="0 0 9354.667 9354.667"
   height="9354.667"
   width="9354.667"
   id="svg2"
   version="1.1"
   sodipodi:docname="favicon.svg"
   inkscape:version="1.4.4 (1:1.4.4+202605061435+dcaf3e7d9e)"
   xmlns:inkscape="http://www.inkscape.org/namespaces/inkscape"
   xmlns:sodipodi="http://sodipodi.sourceforge.net/DTD/sodipodi-0.dtd"
   xmlns="http://www.w3.org/2000/svg"
   xmlns:svg="http://www.w3.org/2000/svg"
   xmlns:rdf="http://www.w3.org/1999/02/22-rdf-syntax-ns#"
   xmlns:cc="http://creativecommons.org/ns#"
   xmlns:dc="http://purl.org/dc/elements/1.1/">
  <sodipodi:namedview
     id="namedview1"
     pagecolor="#ffffff"
     bordercolor="#000000"
     borderopacity="0.25"
     inkscape:showpageshadow="2"
     inkscape:pageopacity="0.0"
     inkscape:pagecheckerboard="0"
     inkscape:deskcolor="#d1d1d1"
     inkscape:zoom="0.01"
     inkscape:cx="40650"
     inkscape:cy="25650"
     inkscape:window-width="1920"
     inkscape:window-height="1009"
     inkscape:window-x="0"
     inkscape:window-y="0"
     inkscape:window-maximized="1"
     inkscape:current-layer="g10" />
  <metadata
     id="metadata8">
    <rdf:RDF>
      <cc:Work
         rdf:about="">
        <dc:format>image/svg+xml</dc:format>
        <dc:type
           rdf:resource="http://purl.org/dc/dcmitype/StillImage" />
        <dc:title />
      </cc:Work>
    </rdf:RDF>
  </metadata>
  <defs
     id="defs6" />
  <g
     id="g10"
     transform="matrix(1.1538485,0,0,1.1538485,-722.10747,-666.73404)">
    <path
       id="path837"
       style="fill:#000000;stroke-width:1.33333"
       d="m 7346.0769,2045.5913 c -3.2527,0.1072 -8.1191,4.0351 -9.8735,9.0678 -1.6039,4.6011 -1.5667,4.6212 4.1725,2.192 5.4621,-2.3118 9.509,-6.8222 8.494,-9.4673 -0.4953,-1.2905 -1.5202,-1.8345 -2.793,-1.7925 z m -18.3523,20.0145 c -1.4011,0.086 -2.7518,2.197 -1.9432,4.3045 0.4411,1.1493 1.3568,2.0905 2.0346,2.0905 1.8664,0 2.7533,-3.3336 1.449,-5.4437 -0.4376,-0.7081 -0.9922,-0.9849 -1.5404,-0.9513 z m -25.636,19.9197 c -2.9021,-0.068 -6.8933,1.2399 -13.198,4.0151 -8.5172,3.7492 -11.4425,4.3043 -26.8904,5.1052 -15.9167,0.8252 -18.279,1.2979 -28.9029,5.784 -8.704,3.6755 -14.8126,5.2406 -24.6661,6.3189 -29.3305,3.2096 -33.857,5.5901 -44.8025,23.5607 l -6.6862,10.9755 4.8124,13.4181 4.8123,13.4181 -4.0641,6.6066 c -2.2356,3.6332 -4.1643,6.627 -4.2843,6.654 -0.1204,0.026 -17.5367,0.8943 -38.7037,1.9297 -21.1672,1.0354 -38.7776,2.1744 -39.1336,2.5306 -2.751,2.7509 -7.3673,20.7222 -8.5346,33.2244 -3.0393,32.5521 -21.9441,78.7484 -39.7905,97.2341 l -8.7225,9.0356 -29.3328,2.8912 -29.3346,2.8928 -22.7144,22.4402 -22.7144,22.4402 h -18.6824 -18.6824 l -22.5384,11.9996 -22.5383,11.9995 h -41.3173 -41.3172 l -17.638,12.0013 -17.638,11.9996 h -40.0274 -40.029 l -20.9253,12.2247 -20.9252,12.2264 -21.2993,-5.4589 -21.2993,-5.459 -15.5221,5.3422 c -20.9031,7.1935 -32.4309,12.3397 -43.2317,19.2985 -4.9728,3.2038 -9.5511,5.8263 -10.1731,5.8263 -2.9033,0 -12.0548,-11.1131 -17.0523,-20.7069 -6.1782,-11.8606 -10.679,-16.8223 -18.0578,-19.9045 -8.6153,-3.599 -10.317,-3.1211 -23.5591,6.5982 l -12.5125,9.1829 -40.8026,3.118 -40.801,3.1162 -3.0807,3.6309 c -14.7516,17.3877 -21.5069,31.2149 -21.5549,44.1186 l -0.032,8.4856 -13.6669,15.407 c -7.5167,8.4736 -14.0334,15.9539 -14.4811,16.624 -0.4477,0.6702 -6.1475,2.7166 -12.6665,4.5483 -15.9233,4.4744 -25.2743,9.6983 -37.5763,20.9896 -24.4548,22.4459 -33.6699,26.9307 -59.1177,28.7709 -23.4292,1.6942 -27.1339,4.6596 -33.2363,26.5991 l -3.5479,12.7546 -11.7203,5.0662 c -13.9841,6.0431 -26.1979,13.8338 -37.9877,24.2345 -11.4309,10.084 -24.7459,19.0243 -38.6664,25.961 -15.4184,7.6832 -25.3497,15.0185 -43.5652,32.1783 -8.5006,8.0078 -16.427,14.5691 -17.6126,14.5691 -12.5547,0.056 -55.7385,4.3727 -56.9053,5.6875 -19.4397,21.9073 -27.2492,33.4569 -27.2492,40.2966 0,2.2825 -1.5475,7.253 -3.4379,11.0465 -5.5796,11.1969 -14.8624,17.5016 -29.9287,20.326 l -8.6345,1.62 -66.7704,66.6062 -66.7705,66.6079 -15.8488,4.567 c -8.7164,2.512 -16.5969,5.3176 -17.5127,6.2342 -0.9157,0.9167 -8.4775,16.0662 -16.8035,33.6662 -19.7093,41.6628 -25.3011,50.7218 -47.9949,77.7578 -5.7359,6.8333 -11.3641,14.6333 -12.5074,17.3333 -5.9735,14.1062 -10.2137,22.0229 -17.6228,32.8977 l -8.169,11.9877 v 103.0875 103.0874 l -4.511,10.923 c -5.6614,13.7076 -7.9214,24.4574 -6.7641,32.1749 1.1157,7.44 -1.0177,16.7241 -7.0636,30.7497 -6.3047,14.6259 -6.462,21.9672 -0.6636,30.7649 2.3815,3.6135 6.108,10.2571 8.2824,14.7638 3.859,7.9985 4.983,11.9759 10.6201,37.5933 1.5957,7.2517 5.2108,17.6342 8.6548,24.8574 7.0577,14.8027 10.3327,25.4706 14.129,46.0212 1.5578,8.4334 3.0956,16.2658 3.4159,17.4061 0.3388,1.2062 4.6208,3.3681 10.2408,5.1678 12.1017,3.8755 21.1901,8.3765 29.3261,14.5234 l 6.3341,4.7836 0.02,48.7262 0.022,48.7262 34.1063,31.8296 c 33.0943,30.8846 34.0807,31.9518 33.2481,35.9988 -1.844,8.9635 -2.3101,39.8133 -0.8024,53.0782 2.0039,17.6276 6.3108,39.0641 8.8258,43.9273 2.388,4.6178 6.6633,6.9608 23.9078,13.1016 l 13.3283,4.7463 15.6389,28.8031 15.6372,28.8014 -2.0668,11.8438 c -2.5392,14.5477 -6.2217,25.3249 -10.0428,29.3921 l -2.8877,3.074 7.7796,26.7921 7.7814,26.7905 11.1617,10.5658 c 13.4594,12.7404 20.084,16.8101 30.4721,18.7146 20.8417,3.8212 50.2837,27.2732 67.3916,53.6807 5.6308,8.6917 10.4779,20.543 10.4779,25.6208 0,5.6618 6.0306,15.6071 16.9846,28.0126 l 10.5015,11.8929 41.4256,0.3521 41.4256,0.3521 28.3714,30.3146 c 15.604,16.6729 41.2362,43.666 56.9595,59.9827 l 28.5864,29.6664 h 13.5636 13.5637 l 48.8633,48.9987 48.8633,49.0004 3.9592,12.6665 c 5.0792,16.2487 9.2786,26.7437 11.8371,29.5851 3.2588,3.6195 13.7951,5.1154 46.3361,6.5796 l 30.5754,1.3761 12.5311,9.8973 -0.01,0.01 12.5294,9.8972 h 20.3666 20.3649 l 13.2641,-10.4965 13.264,-10.4964 37.9318,-0.8294 c 20.8622,-0.457 85.6324,-1.1804 143.9324,-1.6064 102.3736,-0.7482 106.1124,-0.8633 109.3318,-3.3702 14.8924,-11.5972 20.3197,-15.1807 29.1806,-19.2664 5.584,-2.5747 11.0536,-5.1722 12.1536,-5.7738 1.1,-0.6016 5.7489,-8.2173 10.3306,-16.9219 4.5819,-8.7048 9.5186,-17.0139 10.9704,-18.4658 4.2952,-4.2952 10.3861,-3.2947 25.9187,4.2572 l 14.1849,6.8961 13.9935,-3.3059 c 31.4074,-7.4212 74.3084,-12.4559 135.2692,-15.8759 58.4427,-3.2787 51.1083,-1.6986 68.4868,-14.7519 l 14.9754,-11.2497 35.2692,3.9795 c 59.1102,6.6699 69.8259,8.8656 81.0704,16.6004 l 6.7996,4.6769 h 138.6833 138.6833 l 13.5383,-8.0386 13.5382,-8.0387 11.4681,4.9258 c 21.0983,9.0619 33.7732,7.8784 59.3716,-5.547 l 13.9208,-7.3023 h 63.7642 63.7642 l 14.7722,-7.6003 14.774,-7.6019 13.4604,2.4697 13.4586,2.4696 13.7668,-5.0849 c 18.7029,-6.9074 39.0401,-16.5106 47.1012,-22.2438 11.1314,-7.9169 84.4955,-44.5262 97.1139,-48.4605 9.9502,-3.1022 12.3444,-3.4088 17.2216,-2.2056 6.6755,1.6467 29.5534,3.7719 53.1746,4.9394 l 16.8441,0.8328 9.5266,-10.8113 c 8.7705,-9.9531 11.4177,-14.4239 19.9197,-33.651 4.7659,-10.778 12.5916,-12.7284 22.8651,-5.696 8.0824,5.5325 15.319,7.3041 29.8407,7.3041 h 13.506 l 26.6601,-30.4755 26.6601,-30.4755 13.3335,-4.3587 c 7.3333,-2.3971 21.1334,-7.7878 30.6667,-11.9792 16.4643,-7.2385 29.3827,-11.3458 46.1787,-14.6792 8.8468,-1.7557 9.1542,-2.4733 9.1542,-21.4127 0,-11.5765 0.051,-11.7586 4.3333,-15.3782 6.9519,-5.8761 14.6287,-8.5446 28.3003,-9.838 22.8861,-2.1653 28.4227,-6.3724 89.9487,-68.365 l 44.623,-44.9633 18.0646,-4.2098 c 9.9352,-2.3153 18.5478,-4.6461 19.1394,-5.1796 0.5916,-0.5334 1.6431,-14.1056 2.3359,-30.1607 1.2651,-29.3177 3.0572,-47.411 5.2762,-53.2474 1.6252,-4.2745 10.2676,-6.6764 35.9683,-9.9954 38.8654,-5.0194 40.3496,-5.9076 28.495,-17.0608 -4.4161,-4.1548 -8.809,-9.5147 -9.7619,-11.9115 -2.6348,-6.6272 1.1019,-15.0076 11.2091,-25.1367 8.8017,-8.8208 16.8677,-13.5246 29.36,-17.1234 14.3158,-4.1242 19.4845,-13.7163 23.3813,-43.3823 0.8187,-6.2334 2.0307,-12.6647 2.6931,-14.2915 0.6625,-1.6268 7.9991,-11.8272 16.3025,-22.6671 8.3034,-10.8398 15.5645,-20.4662 16.1365,-21.3924 0.5777,-0.9354 -0.1838,-4.9574 -1.7147,-9.0492 -3.5016,-9.3588 -3.5551,-19.141 -0.1405,-25.834 2.9546,-5.7914 12.4255,-17.7398 25.7274,-32.4559 l 9.0103,-9.9684 1.9602,-14.867 c 3.4376,-26.0644 7.5951,-37.7795 18.1373,-51.1163 l 5.2152,-6.5982 0.015,-79.547 0.017,-79.5469 12.5954,-18.0003 12.5954,-18.0002 0.056,-41.0887 0.056,-41.0887 -12.6665,-18.2017 -12.6665,-18.2016 v -55.536 -55.5342 l -5.3269,-6.6896 c -7.9031,-9.9257 -12.8352,-20.9133 -17.9325,-39.9445 -7.2615,-27.1107 -9.2493,-31.7961 -19.3934,-45.7148 l -6.3171,-8.6667 -0.8142,-34.2586 -0.8159,-34.2587 6.9672,-5.9414 c 8.1776,-6.9748 18.7593,-12.8747 23.0952,-12.8747 10.1656,0 58.8219,-21.1619 65.8462,-28.6389 l 3.2822,-3.4954 -3.2957,-6.2579 c -1.8125,-3.4418 -7.7176,-11.583 -13.1235,-18.0917 l -9.8296,-11.8337 -11.5053,0.799 c -6.3275,0.4392 -26.4085,1.195 -44.6265,1.6808 l -33.1245,0.8836 -15.8759,-15.8352 -15.8759,-15.8353 0.012,-36.6877 0.013,-36.6877 12.1537,-18.6654 c 6.6847,-10.2666 14.7426,-24.1285 17.9071,-30.8039 3.1645,-6.6753 9.091,-16.5723 13.1692,-21.9933 4.0782,-5.4212 7.4141,-10.8018 7.4141,-11.9555 0,-3.293 -4.0388,-16.0827 -6.7776,-21.4602 -1.3667,-2.6832 -4.9726,-7.752 -8.0116,-11.2632 l -5.525,-6.3832 0.9141,-18.0713 c 0.9566,-18.9088 -0.7804,-78.7224 -3.8357,-132.0699 l -1.7943,-31.3337 6.4594,-12.0605 c 3.5523,-6.6329 7.8335,-13.3581 9.5147,-14.9466 9.8851,-9.3399 12.2257,-12.1418 17.8953,-21.4229 l 6.2528,-10.2358 -2.9791,-14.4675 -2.9792,-14.4659 4.55,-6.8673 c 15.1644,-22.886 13.5696,-29.9575 -13.7482,-60.9983 -15.453,-17.5587 -19.1754,-23.5924 -17.362,-28.1344 0.6734,-1.6871 9.3698,-11.9418 19.3256,-22.7889 9.9557,-10.8469 18.1018,-20.2387 18.1018,-20.8711 0,-1.2331 -11.9955,-41.8465 -12.5125,-42.3633 -0.4646,-0.4646 -30.7722,4.8288 -40.3067,7.04 l -8.3349,1.933 -13.7566,-7.2312 c -15.0964,-7.9352 -31.9079,-13.487 -56.4229,-18.635 -14.2426,-2.9909 -18.4162,-4.5923 -37.9996,-14.5708 -12.1,-6.1656 -27.7454,-13.4529 -34.7664,-16.1941 l -12.7647,-4.9833 -11.094,3.5039 c -14.1115,4.4579 -33.796,5.6988 -105.376,6.6388 -71.1368,0.9343 -180.6588,3.4347 -187.7599,4.2876 -5.1183,0.6147 -7.5142,2.3274 -21.4685,15.3444 -20.0038,18.6602 -30.3496,26.4566 -35.1287,26.4756 -2.0301,0.01 -11.896,-4.1867 -21.9239,-9.3201 l -18.2322,-9.3319 h -35.8108 -35.8126 l -16.8593,8.9189 -16.8594,8.9189 -17.4044,-8.88 -17.4061,-8.8816 -53.2609,-0.6788 -53.261,-0.677 -7.4056,6.4187 c -9.9857,8.6549 -16.6083,12.8285 -25.7054,16.1992 -9.572,3.5466 -19.5642,10.8694 -36.3474,26.6415 -12.6154,11.8555 -23.3044,18.6524 -29.3532,18.6654 -5.6112,0.012 -12.7659,-2.9351 -22.4013,-9.2252 l -9.9954,-6.5237 -42.7391,-0.4486 -42.7391,-0.4485 -5.3947,-5.2711 c -2.968,-2.899 -5.3963,-5.9232 -5.3963,-6.7218 0,-0.7984 2.3908,-7.3069 5.3134,-14.4624 10.6302,-26.0257 11.7116,-35.839 5.0189,-45.5236 l -4.3334,-6.2715 -20.9675,0.022 -20.9658,0.02 -7.8085,6.0074 c -10.6972,8.2314 -22.6132,15.3015 -28.5085,16.9135 -6.2168,1.6998 -15.3546,8.8845 -33.0822,26.0118 -19.5181,18.8572 -27.9392,25.3189 -40.6504,31.1915 -6.0576,2.7986 -14.6656,7.5685 -19.1292,10.5997 -11.3283,7.693 -21.8884,10.2591 -33.9912,8.2604 -12.8172,-2.1168 -21.4238,-5.2277 -42.9321,-15.5204 -10.2472,-4.9037 -31.8312,-14.8433 -47.9645,-22.0881 l -29.3329,-13.1726 v -14.9991 c 0,-13.086 0.4036,-15.815 3.162,-21.4178 3.9597,-8.0424 9.6772,-11.8271 23.4863,-15.5441 13.7467,-3.7001 18.3771,-7.2756 22.0153,-16.9998 2.5159,-6.7232 2.8095,-9.8446 2.4324,-25.8713 -0.3689,-15.6793 -0.7839,-18.6177 -2.969,-21.0285 -1.5164,-1.673 -3.1154,-2.5574 -5.3726,-2.6102 z m -354.5658,606.5588 11.1024,2.6508 c 27.6869,6.6128 44.9888,23.6878 52.0744,51.3922 2.0329,7.9489 2.6338,14.7439 2.6338,29.7815 v 19.483 l -11.0279,10.9704 -11.028,10.9721 -23.9721,-0.064 -23.9721,-0.063 -22.0001,-10.3949 c -24.7508,-11.6945 -42.4367,-21.5973 -50.534,-28.2936 l -5.4657,-4.5195 0.3334,-19.2562 0.3335,-19.2579 10.6657,-7.6849 c 12.7065,-9.1542 32.6889,-19.726 54.7624,-28.974 z m 498.0141,29.4903 42.8982,1.1443 c 72.228,1.9291 78.3443,2.3014 81.2667,4.9461 4.0993,3.7099 9.1288,13.159 14.3068,26.8768 l 4.8005,12.7206 12.5954,4.8006 c 21.8003,8.3087 33.2195,15.6538 43.814,28.1818 l 6.781,8.0183 v 46.4326 46.4326 l 5.2203,9.7686 c 7.0129,13.1264 10.4032,24.8987 12.1214,42.0925 1.767,17.6812 3.4396,28.961 6.0413,40.718 2.3559,10.6459 3.2634,8.3709 -13.0542,32.7793 l -11.9132,17.8191 0.4604,41.5135 c 0.4249,38.3083 0.6668,41.9258 3.1264,46.8473 l 2.6643,5.3338 26.4706,0.3605 26.4688,0.3622 11.314,-9.6941 c 23.6128,-20.2367 31.2118,-24.983 47.5024,-29.6612 5.397,-1.55 11.1923,-4.8493 19.0616,-10.8537 12.2696,-9.3616 16.5525,-11.5478 20.1719,-10.295 3.2447,1.1229 23.0107,20.6607 23.0107,22.7449 0,0.9318 -2.7629,5.4471 -6.1412,10.0326 -8.5648,11.6251 -12.1991,19.3269 -13.7701,29.1873 -2.8492,17.8837 -17.1227,39.4156 -33.5054,50.5408 l -7.7696,5.2745 -43.0725,0.022 -43.0743,0.02 -24.9335,-7.5139 -24.9353,-7.5122 -7.4309,6.3493 -7.4327,6.3493 0.1947,17.8124 c 0.1452,13.3472 -0.264,18.3702 -1.6335,20.0382 -2.7773,3.3826 -17.2052,12.3698 -36.8079,22.9294 -17.6001,9.4815 -17.6718,9.5062 -28.1192,9.5062 -11.8285,0 -27.3533,3.5113 -37.1075,8.3925 -11.8932,5.9518 -24.2978,10.3144 -44.1288,15.5204 -23.4372,6.1526 -31.6886,9.651 -42.2313,17.9037 l -7.8998,6.1835 h -13.2234 c -15.486,0 -34.6436,-3.5572 -50.3512,-9.3488 -5.9444,-2.1917 -11.5912,-3.9847 -12.5481,-3.9847 -0.957,0 -12.3647,8.495 -25.3499,18.8788 l -23.6082,18.8804 -42.2533,-0.8819 -42.2533,-0.8819 -4.8868,4.0286 c -6.1496,5.0691 -9.8945,14.6059 -13.0643,33.2702 l -2.3715,13.9614 -10.4778,10.0919 c -12.5425,12.0796 -20.2022,16.1772 -30.2453,16.1772 -8.6824,0 -15.1184,-2.5262 -24.507,-9.6146 l -7.0602,-5.3303 v -13.8819 c 0,-21.5916 -0.407,-21.8211 -49.7486,-28.1006 -26.6689,-3.3939 -27.8491,-3.4376 -30.3756,-1.151 -7.328,6.6316 -9.7046,15.8059 -7.304,28.1869 l 1.0918,5.6333 -31.8314,-0.7719 -31.833,-0.7718 -16.2448,12.1384 -16.2466,12.1383 h -47.1757 -47.1757 l -9.623,-8.6666 c -5.2924,-4.7666 -10.052,-8.6599 -10.5777,-8.6599 -0.5258,0 -8.1559,6.3055 -16.9559,14.0055 -26.1884,22.9152 -19.0154,20.47 -66.8381,22.7838 l -41.1615,1.9923 -15.3342,6.4763 c -22.4604,9.4874 -33.0084,12.0347 -55.6968,13.4502 -10.8002,0.6739 -25.3353,1.8546 -32.3019,2.6237 v 0.01 c -6.9666,0.7691 -14.7666,1.6871 -17.3333,2.0397 -4.5172,0.6208 -5.1894,0.082 -20.9997,-16.8424 l -16.3329,-17.4857 0.088,-18.1915 0.09,-18.1915 29.5783,-27.7468 29.5766,-27.7468 14.0004,0.8023 c 43.1942,2.4796 66.0736,5.6741 77.233,10.7809 l 7.233,3.3092 11.4443,-3.9626 c 22.9899,-7.9596 39.7407,-6.5458 60.0115,5.0628 6.2766,3.5944 14.8228,7.5079 18.9921,8.6972 8.1883,2.3356 16.4414,7.9173 27.3068,18.4691 l 6.8893,6.6895 3.3261,-6.5643 c 3.9376,-7.7705 12.0815,-15.6107 22.2608,-21.4296 4.0496,-2.315 8.8486,-5.8068 10.6657,-7.7594 l 3.3042,-3.5496 -7.9997,-7.3125 c -4.4,-4.0219 -13.437,-11.4586 -20.0823,-16.5258 l -12.0825,-9.2134 h -34.8139 -34.8121 l -15.771,-13.3216 -15.7709,-13.3233 -43.7971,-0.012 -43.797,-0.014 -10.6488,7.5038 c -14.5502,10.2538 -21.8468,12.9569 -35.0915,12.9999 -9.415,0.03 -11.6359,-0.4656 -18.9346,-4.2216 l -8.2688,-4.2554 -19.065,7.5207 -19.0649,7.5207 -8.6666,-1.5675 c -4.7666,-0.8616 -12.2664,-2.2009 -16.6664,-2.9775 -5.6252,-0.9888 -13.5416,-0.99 -26.6669,0 -10.2667,0.7744 -26.7657,1.7472 -36.6657,2.1616 -30.1818,1.2635 -68.3796,3.2941 -101.63,5.4048 l -31.6299,2.0076 -36.3762,-17.7836 -36.3762,-17.7835 -9.645,-12.0961 c -12.4386,-15.5978 -25.4054,-27.6719 -34.5143,-32.1394 l -7.2329,-3.5479 -25.0487,8.3112 -25.0469,8.3095 -10.5845,-5.6757 c -13.357,-7.1629 -24.83,-18.498 -32.0751,-31.6874 l -5.4945,-10.0005 15.0837,-30.1708 15.0837,-30.1691 9.7432,-3.4615 c 11.2465,-3.9959 25.942,-6.1959 41.5068,-6.2089 l 10.9027,-0.012 23.9992,-21.3146 24.0009,-21.3128 37.5814,-0.014 37.5797,-0.014 11.0856,-7.9422 c 6.0972,-4.3683 15.7845,-10.7364 21.5261,-14.1527 8.7682,-5.2172 10.3309,-6.6669 9.7635,-9.0576 -0.3714,-1.5654 -1.0554,-9.4461 -1.52,-17.5128 l -0.8447,-14.6673 9.684,-14.6385 c 16.5455,-25.0105 31.3165,-37.1168 54.4221,-44.6061 13.0938,-4.244 16.5037,-5.8726 26.7228,-12.7579 4.0333,-2.7176 20.5322,-11.5039 36.6656,-19.5254 32.0525,-15.9367 39.9202,-18.4088 58.7166,-18.4488 l 10.7182,-0.024 6.2258,6.3341 c 5.3905,5.4833 6.9652,8.481 11.7304,22.3336 52.8379,153.6028 177.0193,257.8653 340.6095,285.9757 50.0222,8.5956 109.4569,9.0509 163.7285,1.2543 71.1168,-10.2167 141.3788,-36.9636 199.7748,-76.0482 27.2184,-18.2172 59.0262,-46.7391 80.1225,-71.8485 70.1515,-83.4968 95.3224,-189.9411 72.5188,-306.6674 l -1.6927,-8.6666 5.222,-10.2697 c 6.6339,-13.0434 15.5862,-22.1337 28.4171,-28.8572 z m -3971.3718,470.0811 -15.4155,0.6568 c -17.3792,0.7403 -21.8871,2.1689 -31.9768,10.1444 -8.4515,6.6804 -19.5618,12.0044 -27.2577,13.0592 -7.7,1.0554 -16.0941,-2.7734 -32.1377,-14.6588 l -11.9555,-8.8563 h -18.3066 -18.3066 l -8.7209,6.5999 c -11.139,8.4312 -18.3745,12.5475 -26.8716,15.2851 l -6.7861,2.1853 -16.5208,-8.0082 c -21.5975,-10.4692 -27.9078,-11.9045 -38.9221,-8.8562 -4.5763,1.2665 -14.4088,5.5634 -21.8511,9.5485 l -13.5315,7.2448 h -41.5373 -41.5372 l -17.5974,-12.1282 -17.5991,-12.1283 -16.6663,0.623 c -18.7498,0.7009 -25.0679,2.4175 -33.5088,9.1101 l -5.7044,4.5229 -30.7277,1.3457 -30.726,1.3457 -12.3212,-8.345 -12.3229,-8.3451 h -29.4564 -29.4582 l -17.5601,11.9996 -17.5618,11.9996 h -103.0146 -103.0147 l -14.6808,7.7966 -14.6808,7.7983 -13.3639,-2.666 -13.3656,-2.6643 -18.266,7.0484 c -21.7155,8.3804 -31.019,12.9088 -43.77,21.3044 -5.2271,3.4416 -11.5274,7.01 -14.0003,7.9303 -10.7862,4.0133 -13.2903,5.7368 -18.6384,12.8205 l -5.6638,7.5004 1.7046,17.7531 1.7028,17.7531 -4.5737,7.1466 c -4.9465,7.728 -13.3032,15.8115 -16.3447,15.8115 -6.7225,0 -12.5854,-7.3564 -15.4595,-19.3967 -0.8668,-3.6315 -1.9476,-16.1473 -2.4003,-27.8128 l -0.8226,-21.2096 -7.3345,-2.5424 c -11.4942,-3.9854 -21.9905,-2.865 -30.9477,3.3041 -3.907,2.691 -9.5511,5.7559 -12.543,6.8115 -7.6236,2.6897 -27.3664,5.7818 -48.3081,7.5647 l -17.7988,1.5149 -15.4611,9.337 -15.4612,9.337 -34.8883,-1.5522 -34.8884,-1.5523 -25.6157,12.8206 -25.6157,12.8222 -17.7903,-9.3894 -17.7903,-9.3894 h -28.7913 -28.7895 l -11.1498,8.5058 c -6.1317,4.6784 -13.4761,9.2449 -16.3211,10.1478 -6.9001,2.1899 -13.9626,6.2024 -33.7305,19.1597 l -16.5581,10.8536 h -48.0389 -48.039 l -6.3781,20.0874 -6.3781,20.089 -28.082,13.5247 -28.082,13.5264 -7.6087,-4.8682 c -19.4173,-12.4219 -38.8083,-13.9621 -52.3435,-4.1573 -3.0776,2.2295 -12.5489,7.3208 -21.0471,11.314 -8.4983,3.9931 -21.34,10.899 -28.5356,15.3461 -7.1955,4.4472 -15.6879,8.869 -18.8737,9.8278 -8.7044,2.6196 -14.9375,6.131 -28.1073,15.837 l -11.9488,8.8071 h -30.6448 -30.6464 l -21.9679,12.8612 -21.9662,12.8629 -44.7653,-0.8769 c -24.6201,-0.4818 -59.763,-1.2194 -78.0963,-1.6402 -18.3333,-0.4208 -54.9345,-1.2577 -81.3345,-1.8586 l -48,-1.0918 -4.1116,4.5043 c -2.2617,2.4775 -4.7823,6.77 -5.6012,9.5384 -2.4648,8.3326 -4.2859,26.6913 -4.2859,43.1961 v 15.5662 l -15.0008,13.2741 -15.0007,13.2742 -29.9998,0.8549 c -16.5,0.4705 -33.8999,1.6399 -38.6665,2.5983 -6.2464,1.256 -14.9968,5.1288 -31.3336,13.8683 -35.5397,19.0121 -63.4845,31.0679 -72.0162,31.0679 -7.8526,0 -22.2266,5.0054 -40.8178,14.2136 l -19.759,9.7856 h -29.48183 -29.48353 l -7.55285,5.8618 c -11.7056,9.0815 -25.0741,14.6521 -43.55499,18.1492 -15.75564,2.9813 -28.17763,7.0465 -39.12857,12.8053 -9.1872,4.8312 -12.39197,5.8517 -18.376,5.8517 -8.40594,0 -14.02157,-2.0898 -25.23823,-9.3895 -14.02559,-9.1279 -32.86943,-11.6583 -37.08209,-4.9799 -1.93873,3.0736 2.23275,11.486 13.73799,27.7028 11.75163,16.5642 16.08747,24.1603 16.08747,28.1886 0,8.6732 -13.03626,26.9273 -28.88939,40.454 -14.17647,12.096 -28.89943,19.3561 -39.25044,19.3561 h -7.82876 l -31.68405,28.2309 c -17.42532,15.5266 -36.03104,32.1289 -41.34771,36.8925 l -9.66703,8.6599 0.0271,8.775 c 0.0376,11.7453 4.68266,24.544 13.08969,36.0664 3.65428,5.0085 7.2234,10.2171 7.93032,11.5747 0.74051,1.422 1.64493,31.0079 2.1345,69.8004 0.46739,37.0334 1.21196,74.2653 1.65546,82.7377 l 0.80742,15.4053 -17.15556,15.815 c -9.43561,8.6982 -21.20568,19.6814 -26.15568,24.4071 l -9.00011,8.5922 v 33.0974 33.0975 l 6.99934,6.3798 c 3.85,3.5088 13.35144,12.6996 21.11311,20.4242 17.45648,17.3732 20.72498,23.5203 22.52313,42.3582 1.40347,14.703 2.91086,19.6367 11.26664,36.8705 5.96176,12.2963 10.98147,30.003 14.74007,51.9914 1.82792,10.6936 4.67341,46.1296 4.68541,58.3425 l 0.005,4.8496 11.73552,2.8996 11.73553,2.8996 13.79385,-8.1893 13.79385,-8.191 10.80454,7.3328 10.80453,7.3328 26.66687,0.5434 26.66518,0.5433 27.92117,14.8958 c 15.35603,8.1923 28.30912,15.5248 28.78445,16.294 0.47532,0.7691 1.59646,9.758 2.49166,19.9756 0.89519,10.2176 2.64125,22.6196 3.88137,27.5606 l 2.25468,8.9832 20.00101,10.0428 19.9993,10.0429 2.93854,23.3322 c 1.6164,12.8334 2.96717,24.0945 3.00117,25.0233 0.0337,0.9289 10.0354,12.3108 22.2269,25.294 l 22.16595,23.6065 -0.7465,33.3717 c -0.7051,31.4835 -2.1989,45.3904 -5.94474,55.3717 -3.646,9.7149 -3.59274,9.8673 6.25114,17.8208 5.0631,4.0908 10.5535,9.3296 12.1993,11.6408 3.8215,5.3668 4.1026,4.5584 -16.36503,46.9268 l -15.96897,33.0552 9.43175,12.5463 c 7.8487,10.4421 10.16095,12.6666 13.78705,13.2573 2.3964,0.3902 17.5565,1.6919 33.6899,2.8928 l 29.3346,2.1836 13.8429,10.8231 c 23.7165,18.5417 34.3629,32.981 35.7719,48.5197 l 0.7093,7.8237 -20.4953,9.3607 -20.4953,9.3606 v 14.5607 14.5623 l 20.8829,7.0941 20.8846,7.0959 34.45,32.0344 34.4482,32.0361 15.9995,44.0916 16.0011,44.0933 9.1643,3.167 c 10.5409,3.6432 23.8278,5.6201 38.1773,5.6791 l 10.0106,0.041 11.8862,9.3336 11.8862,9.3335 h 31.7873 31.7856 l 20.9844,10.5236 c 42.4386,21.2845 73.0941,45.6804 108.4855,86.3347 l 11.832,13.5924 v 26.9005 26.9005 l 15.6677,16.707 15.666,16.7053 12.6665,-0.7076 c 8.9974,-0.5032 16.3891,-1.908 25.5175,-4.8479 l 12.851,-4.1387 3.0164,-7.651 c 5.4196,-13.7495 12.2985,-25.7831 16.6241,-29.0824 2.3336,-1.78 4.6172,-3.2364 5.0747,-3.2364 0.4573,0 5.4162,5.6999 11.0195,12.6665 l 10.1884,12.6665 h 10.8621 c 13.7688,0 17.6882,1.1609 25.9525,7.6934 3.6768,2.9063 12.8292,8.4413 20.3396,12.2992 l 13.655,7.0145 14.1172,-1.8366 c 7.7639,-1.0102 14.9357,-1.8365 15.9385,-1.8365 4.8893,0 10.8435,25.5817 10.8435,46.59 0,10.4812 0.5092,15.4815 1.6673,16.3887 0.9167,0.718 6.1661,3.0064 11.6661,5.0849 l 10.0005,3.7781 60.6666,-2.3139 c 33.3667,-1.273 66.0661,-2.6297 72.6661,-3.0147 l 11.9996,-0.6991 11.3343,8.274 c 12.6143,9.2098 27.0891,16.65 36.0749,18.5435 v 0 c 3.2587,0.6858 12.5251,1.0376 20.5918,0.7804 19.5389,-0.6229 32.6274,-4.7546 47.653,-15.0448 l 10.9637,-7.5105 31.359,-3.0553 c 17.2468,-1.6811 32.5974,-3.075 34.1131,-3.096 1.5156,-0.022 7.5157,-3.6378 13.3334,-8.0353 11.8754,-8.9764 19.8797,-12.2023 30.2081,-12.1773 8.9161,0.022 16.0181,2.5571 25.8882,9.2439 10.3815,7.0332 23.0453,13.2046 42.5969,20.7576 l 16.1162,6.2258 6.3917,-3.5716 c 5.3624,-2.9971 8.4559,-3.667 19.2173,-4.1624 15.5309,-0.7149 27.4326,1.7405 38.3854,7.9219 6.5516,3.6974 9.188,4.3684 19.0227,4.831 11.6751,0.5492 14.0333,0.029 32.334,-7.1382 l 6.2478,-2.4476 11.4054,7.5901 11.4038,7.5884 18.3472,-0.032 c 20.2502,-0.036 28.9196,-1.4554 33.1516,-5.4302 1.5425,-1.4489 10.0449,-6.4448 18.8957,-11.1008 20.2757,-10.6661 32.7331,-19.9932 53.1052,-39.7684 l 16.14,-15.6677 h 38.1163 38.118 l 6.4086,-7.4005 c 11.0247,-12.729 16.2831,-21.8932 20.6155,-35.9327 7.7816,-25.2168 10.3788,-27.5222 32.0158,-28.4137 l 14.3118,-0.5891 14.9297,12.4431 14.9296,12.4447 23.4711,0.014 c 26.8498,0.011 33.7165,-1.4067 47.7072,-9.8448 10.9125,-6.5816 26.2844,-11.3449 47.7444,-14.7959 l 17.3147,-2.7845 13.352,-10.1732 c 24.7907,-18.8894 22.0142,-15.3276 22.0272,-28.2969 0.01,-13.9489 1.5319,-19.7553 6.4103,-24.4291 4.3943,-4.21 15.8888,-7.1055 22.9293,-5.7756 10.9456,2.0675 16.0662,8.2164 21.5042,25.8223 2.176,7.0455 4.1117,10.1853 9.7567,15.8301 12.3556,12.3556 23.8402,13.6497 43.3908,4.8852 25.1298,-11.2659 39.9064,-15.8945 62.6673,-19.6286 6.9667,-1.143 13.9341,-2.359 15.4832,-2.7033 1.5491,-0.3441 16.7779,-15.5643 33.8423,-33.8219 l 31.0255,-33.1956 16.1586,-2.1616 c 38.2222,-5.1139 61.0109,-0.9427 82.064,15.021 3.9824,3.0198 8.6522,5.4912 10.3763,5.4912 5.3639,0 19.4936,-5.3443 24.3834,-9.2219 9.4121,-7.4636 13.0666,-8.6345 28.6677,-9.1897 l 14.6673,-0.523 7.9997,6.2901 c 11.5482,9.0807 19.7135,12.6149 29.1822,12.6309 l 7.8508,0.014 15.4832,-15.6677 c 8.5155,-8.6166 19.9819,-18.7211 25.4819,-22.4537 5.5,-3.7328 28.0008,-15.969 50.0008,-27.1917 22,-11.2225 44.0042,-22.7184 48.8989,-25.5463 l 8.9003,-5.1407 h 31.425 31.4268 l 10.9433,-8.1148 c 12.964,-9.6123 21.3688,-14.0709 30.0438,-15.9385 3.4991,-0.7533 8.5601,-2.6992 11.2481,-4.3249 2.6879,-1.6256 8.5896,-5.2162 13.1133,-7.9794 4.5238,-2.7631 13.3865,-6.7908 19.6964,-8.951 6.3099,-2.1601 14.7033,-6.1537 18.6519,-8.8732 13.8627,-9.5476 25.2048,-25.3193 29.0773,-40.4353 6.2215,-24.2848 19.934,-41.6608 45.7148,-57.9278 l 11.9556,-7.5444 15.9978,0.9039 15.9994,0.904 3.6359,-7.1924 c 13.4933,-26.6939 31.7596,-43.878 54.5813,-51.3465 5.8798,-1.9241 11.3327,-4.176 12.1181,-5.0053 0.7854,-0.8293 4.5779,-9.6084 8.428,-19.5084 l 7.001,-18.0002 14.8332,-5.3338 14.8331,-5.332 9.227,-21.0014 9.2269,-20.9997 h 62.0292 62.0275 l 11.8269,-9.342 11.8286,-9.342 26.8108,-3.206 26.8107,-3.2043 5.288,-5.1204 c 11.6296,-11.2576 45.4703,-48.4926 54.3342,-59.7847 9.0278,-11.501 10.7416,-14.4457 19.786,-33.9997 2.2048,-4.7667 6.2167,-11.2171 8.9155,-14.3338 l 4.9071,-5.6672 15.5627,-0.032 c 27.2484,-0.057 31.8426,-2.477 40.4472,-21.301 2.8493,-6.2334 6.2164,-13.4191 7.4818,-15.969 l 2.3004,-4.6363 27.0985,-2.2395 c 14.9041,-1.2321 27.297,-2.4466 27.5403,-2.6981 0.2432,-0.2513 3.2172,-4.234 6.61,-8.8512 l 6.1699,-8.3958 -3.162,-44.271 -3.1602,-44.271 17.0709,-17.6448 c 18.1367,-18.7467 31.8238,-34.6269 31.8448,-36.9483 0.029,-3.141 7.3171,-16.8795 15.9538,-30.0743 l 9.1626,-14.0004 0.9005,-22.667 0.9005,-22.6653 -11.9725,-12.7088 -11.9725,-12.7089 -1.6588,-60.3093 -1.6589,-60.3094 15.1751,-15.6491 c 21.4464,-22.1138 30.3025,-34.6486 48.3386,-68.4242 l 15.8234,-29.6325 -5.1695,-16.1298 c -8.7323,-27.2459 -6.9797,-40.741 6.7522,-51.9931 l 6.1107,-5.007 6.9824,2.3207 c 7.7931,2.5884 19.9933,13.9065 35.6889,33.1093 13.661,16.7135 16.6123,18.0668 39.2979,18.0138 l 13.3334,-0.032 29.3329,-14.9364 29.3329,-14.9365 2.7676,-10.0005 c 3.378,-12.2087 7.5294,-20.4555 16.4327,-32.6387 l 6.7996,-9.3048 v -33.133 -33.133 l -6.522,-7.563 c -8.71,-10.098 -16.29,-22.2346 -28.7065,-45.962 l -10.3272,-19.7353 5.4826,-9.0763 c 6.8675,-11.3661 8.0742,-15.5752 8.0742,-28.1953 0,-9.2936 -0.465,-11.0019 -5.855,-21.5651 -4.4896,-8.7987 -6.0644,-13.5936 -6.7607,-20.5816 -1.0861,-10.9014 1.4501,-24.6982 6.6862,-36.3661 l 3.5445,-7.8964 -16.013,-23.9975 c -8.8069,-13.1986 -19.3655,-29.9194 -23.4642,-37.1583 l -7.453,-13.1625 -9.1592,-2.9503 c -11.2566,-3.6254 -26.0129,-12.3771 -43.6109,-25.8663 -16.5755,-12.7054 -27.3165,-19.2351 -35.7719,-21.7461 -10.8098,-3.2103 -18.0788,-8.319 -33.8101,-23.7622 l -15.0008,-14.7249 v -11.9809 -11.9827 l -27.0866,-27.4252 c -35.372,-35.8151 -41.7834,-44.5191 -44.2727,-60.0927 -1.4878,-9.3079 -5.4854,-15.8036 -16.4937,-26.8057 -11.5183,-11.5118 -15.7163,-14.051 -26.5129,-16.0299 -10.2378,-1.8766 -22.1504,-8.3274 -39.7515,-21.5295 -28.0405,-21.0327 -34.0348,-24.8371 -42.2499,-26.8125 -4.3649,-1.0494 -14.2983,-10.822 -14.2983,-14.0663 0,-1.2407 1.8144,-7.6172 4.0321,-14.1714 l 4.032,-11.9183 -3.3837,-12.8442 c -7.1374,-27.0914 -12.1837,-37.6907 -20.5952,-43.2571 l -5.1001,-3.3753 -31.8262,0.8498 -31.8263,0.8514 -17.2537,-10.7792 -17.2554,-10.7774 h -29.0892 -29.0891 l -32.9891,-16.6393 -32.9892,-16.6393 -14.542,-17.9697 c -10.015,-12.3768 -15.824,-18.4308 -18.6654,-19.4526 -18.7762,-6.7513 -46.935,-15.9673 -48.7889,-15.9673 -1.2552,0 -7.919,2.6309 -14.8094,5.8449 -6.8906,3.214 -15.5287,6.847 -19.1953,8.0742 -3.6667,1.2271 -11.3471,5.8448 -17.0676,10.2612 -13.9728,10.7876 -20.7433,13.7295 -31.5994,13.7295 -10.6949,0 -18.0568,-3.1169 -31.2761,-13.242 l -9.5333,-7.3023 -79.2609,-3.3787 c -97.6086,-4.1598 -126.7095,-4.3046 -154.5253,-0.7718 l -20.5952,2.6152 -18.6553,-12.7545 z m -685.5539,221.6783 c 2.4552,0 7.5154,1.9802 12.1333,4.7481 14.7968,8.8689 27.66,23.4206 33.2125,37.573 l 3.5716,9.1033 -17.2452,36.488 -17.2453,36.4862 -10.5185,7.9168 c -5.7856,4.3548 -13.9517,9.6659 -18.1475,11.8015 -4.5252,2.3032 -9.678,3.8686 -12.6665,3.8476 -7.4146,-0.052 -19.6188,-7.2189 -30.1691,-17.7159 -7.3388,-7.3019 -10.2888,-11.5609 -15.0295,-21.7055 l -5.8974,-12.6225 13.4435,-19.627 c 7.3937,-10.7951 18.2456,-26.9862 24.116,-35.9801 16.4263,-25.1664 31.6219,-40.3135 40.4421,-40.3135 z m 3622.0262,9.3336 h 27.4929 27.4912 l 8.7056,6.9249 c 10.5025,8.3572 21.7434,21.3212 35.5959,41.0498 l 10.3323,14.7146 -4.7193,11.6543 c -4.856,11.9941 -10.1105,35.3823 -12.9543,57.6552 -0.8894,6.9667 -1.9842,13.3037 -2.4324,14.0817 -0.4484,0.778 -7.3071,7.3147 -15.2411,14.5267 l -14.4252,13.1134 -22.0475,-3.1687 -22.0458,-3.1671 -2.666,3.3076 c -7.2743,9.029 -43.3178,49.0079 -55.5647,61.6314 -7.6432,7.8781 -16.7084,16.1268 -20.1449,18.332 -3.4364,2.2051 -6.8269,4.01 -7.5359,4.01 -4.5154,0 -18.1365,-12.0133 -32.8876,-29.0045 l -4.9241,-5.6706 v -15.754 c 0,-18.4252 -2.2594,-28.0076 -7.5918,-32.202 -1.9425,-1.528 -3.996,-2.3112 -4.5635,-1.7401 -0.5675,0.571 -3.3623,7.5622 -6.2122,15.5356 l -5.1814,14.4964 -28.4544,15.2258 c -24.398,13.0546 -29.0403,15.0993 -32.5591,14.3423 -10.9581,-2.3572 -16.8403,-9.4226 -22.8363,-27.4269 l -3.4938,-10.4913 5.3422,-15.9707 5.3422,-15.969 -4.55,-13.0186 c -8.2606,-23.6436 -5.8655,-35.9286 10.334,-53.0274 l 8.5024,-8.9747 10.5659,2.1853 c 5.8114,1.2018 13.778,3.654 17.7023,5.4505 9.5056,4.3519 22.067,16.6662 35.3183,34.6209 5.9779,8.0996 11.1177,15.0268 11.4224,15.3935 0.3045,0.3666 6.6842,-5.8184 14.1764,-13.7448 l 13.6228,-14.4134 3.0469,-30.2537 c 1.6764,-16.6402 3.5261,-31.1691 4.1099,-32.2866 2.4237,-4.6388 16.07,-15.939 27.1425,-22.4758 6.5191,-3.8484 21.9635,-12.0595 34.3196,-18.2456 z m -2998.4964,37.9132 c 0.1454,0 0.2803,0.012 0.4063,0.037 1.5316,0.3082 15.3852,0.9127 30.7852,1.344 61.8839,1.7333 123.7287,5.1126 137.3342,7.5054 l 7.9997,1.4067 23.9992,23.6758 c 27.5388,27.1667 40.0198,37.4552 55.3565,45.6269 10.0516,5.3558 17.0093,10.2566 43.9765,30.9833 5.5,4.2272 17.2555,11.2014 26.1235,15.4984 19.1179,9.2639 30.5518,17.9634 54.6152,41.5559 l 17.4043,17.0641 3.531,16.3617 3.5293,16.36 33.4123,32.6658 33.4123,32.6675 -0.014,62.3813 -0.014,62.3812 6.5339,8.5245 c 6.7241,8.7729 13.191,23.5381 16.079,36.7131 3.3716,15.381 9.7011,32.0815 15.5136,40.9313 7.2636,11.0589 9.0214,17.1329 8.2232,28.412 -0.7152,10.1076 -2.7405,14.5881 -12.3534,27.3237 l -7.045,9.3335 -2.8285,29.9999 c -3.9187,41.5476 -2.8464,37.6511 -14.8738,54.0328 l -10.5811,14.4117 v 27.112 27.1104 l 8.8799,12.8273 c 19.8502,28.6698 20.0719,41.9936 1.124,67.522 l -8.6718,11.6831 v 40.6384 40.6402 l -10.1613,20.3717 -10.1596,20.3734 10.0327,20.0348 10.0343,20.0332 -5.2812,10.119 c -10.8642,20.8145 -19.4991,26.6206 -39.5991,26.6076 -10.592,0 -27.4584,-2.7605 -44.8652,-7.3328 l -6.6659,-1.7519 -7.3345,4.9765 c -10.9846,7.4542 -14.5675,11.8788 -16.8068,20.7475 -3.3141,13.1252 -12.2624,34.1495 -28.8268,67.7319 -8.6834,17.6044 -16.7469,35.3311 -17.9173,39.3926 -2.918,10.1261 -4.6097,12.3017 -29.0976,37.3851 -11.8128,12.1 -23.1508,24.8931 -25.1942,28.429 l -3.7138,6.4289 2.903,25.922 2.9047,25.9238 -3.1264,2.6339 c -6.9421,5.8537 -17.1059,9.7283 -27.2272,10.3779 -9.7159,0.6234 -9.8972,0.7004 -9.8972,4.247 0,5.6495 3.1748,14.7595 7.6341,21.9036 l 4.0777,6.5322 -3.7409,8.8004 c -4.9051,11.5407 -6.3327,20.1414 -7.8829,47.4668 -1.4956,26.3628 -2.9887,34.4818 -8.274,45.0006 l -3.8526,7.6662 h -22.4283 -22.4283 l -8.8072,9.1237 c -4.9929,5.1719 -9.1803,10.8019 -9.6687,13 -2.4254,10.9183 -5.0682,18.3315 -10.5236,29.5275 -3.3012,6.775 -7.8013,18.0759 -10.0005,25.1113 -5.3705,17.1811 -11.1309,27.0141 -24.8184,42.3582 l -11.4901,12.8798 h -26.5619 -26.5602 l -8.3366,-6.1259 c -4.5853,-3.3693 -8.7058,-6.8189 -9.1558,-7.6662 -0.45,-0.8475 -1.549,-13.5406 -2.4426,-28.2073 -0.8938,-14.6667 -1.8934,-27.6446 -2.2208,-28.8386 -0.5849,-2.133 -22.017,-11.1707 -24.3496,-10.2679 -0.6245,0.2417 -11.4183,7.0046 -23.9856,15.0278 l -22.8499,14.5877 v 15.6051 c 0,28.7297 -4.8542,37.6892 -40.0172,73.8662 -40.2469,41.4074 -55.2946,61.3068 -62.7553,82.9917 -4.8901,14.2135 -20.6787,31.4901 -33.8948,37.0888 v 0.01 c -5.0212,2.1271 -12.5107,3.2452 -15.9994,2.3884 -1.4666,-0.3601 -5.4914,-2.544 -8.9426,-4.853 -7.654,-5.1207 -7.0868,-1.2365 -9.1693,-62.9077 l -1.5303,-45.312 6.4865,-5.9143 c 3.5683,-3.2523 12.2026,-9.6355 19.1868,-14.1849 16.2787,-10.6034 26.3819,-21.5082 34.0217,-36.7198 3.2702,-6.5113 5.9465,-12.4909 5.9465,-13.2877 0,-0.797 -1.457,-3.3591 -3.2382,-5.6943 -6.6135,-8.6708 -10.6062,-21.4525 -13.3707,-42.8034 -1.55,-11.9714 -1.5268,-12.1876 2.0668,-19.4391 5.997,-12.1008 14.7427,-18.7734 31.6638,-24.1565 11.4108,-3.6301 10.8702,-2.8748 18.9921,-26.5112 5.1237,-14.9112 5.734,-18.0003 5.806,-29.3329 0.044,-6.9666 -0.3418,-14.5541 -0.8582,-16.861 -0.8565,-3.8266 -0.4645,-4.5223 4.4704,-7.9422 5.0364,-3.4897 6.209,-3.7274 17.0202,-3.4379 6.5604,0.1756 15.9259,-0.5834 21.5295,-1.7434 13.03,-2.6973 38.8906,-10.091 40.5843,-11.6035 0.7334,-0.6548 3.7801,-8.5001 6.7691,-17.4349 l 5.4336,-16.2466 16.8966,-6.7623 c 9.2932,-3.72 17.4239,-7.334 18.0679,-8.0319 1.4539,-1.5753 26.0565,-55.1378 38.6563,-84.1579 12.5623,-28.9334 16.6817,-36.8517 22.5502,-43.3553 6.8227,-7.561 11.634,-9.2017 30.6346,-10.4457 24.0058,-1.5716 32.5614,-6.7093 36.3762,-21.846 5.9435,-23.5833 21.8028,-40.874 45.9333,-50.0804 16.6562,-6.3546 16.1047,-5.8174 24.595,-23.9873 l 7.7593,-16.6037 12.9797,-4.352 c 20.2887,-6.8019 22.3415,-8.9125 34.6395,-35.6026 3.7605,-8.1613 8.9604,-18.452 11.5544,-22.8685 l 4.7159,-8.0302 0.8311,-51.3939 0.8311,-51.3956 6.0176,-16.9609 6.0158,-16.9609 -2.9622,-7.6138 c -5.9751,-15.3616 -3.0957,-40.053 5.8585,-50.2513 2.1212,-2.416 4.754,-6.5408 5.8516,-9.1677 2.7742,-6.6393 2.5911,-17.1663 -0.3622,-20.8135 -2.6531,-3.2764 -2.073,-3.3596 -31.6417,4.6177 -10.5682,2.8512 -17.3437,3.7333 -32.6675,4.2589 l -19.3324,0.6635 -7.6798,-7.8457 -7.6798,-7.8474 2.8116,-29.9473 c 1.7618,-18.7643 2.8863,-41.3572 3.013,-60.499 l 0.2014,-30.5499 -10.4711,-8.687 -10.4693,-8.6852 -22.0458,2.9436 c -12.1248,1.6184 -22.3863,2.6015 -22.8025,2.1853 -0.4164,-0.4163 -3.2839,-6.7492 -6.373,-14.0732 l -5.6164,-13.3165 2.4273,-11.8506 c 2.8958,-14.1337 9.7708,-28.0549 21.4415,-43.4162 4.457,-5.8667 10.235,-14.0993 12.8392,-18.2948 4.3294,-6.9749 5.8665,-8.2092 17.9511,-14.4167 14.3088,-7.3498 22.4521,-13.5768 22.4521,-17.1675 0,-3.0941 -12.557,-18.0445 -21.6751,-25.8069 l -7.4615,-6.3528 -7.7644,4.7092 c -10.3193,6.2571 -24.5502,10.6367 -43.1555,13.2843 -40.835,5.8107 -46.8382,7.6859 -52.5094,16.404 -1.7796,2.7355 -3.8403,7.3752 -4.5788,10.3086 -4.4516,17.6782 -3.1014,15.7825 -16.5377,23.2273 -12.4483,6.8972 -26.1595,16.6876 -45.6506,32.5964 -14.3412,11.7054 -26.9499,18.6866 -41.1124,22.7635 l -11.7795,3.3905 -22.342,23.0106 c -39.3765,40.555 -48.9504,52.4766 -52.7345,65.6617 -1.2603,4.3908 -6.4012,16.7144 -11.4258,27.3863 -5.0247,10.6719 -9.8011,22.3795 -10.6133,26.0169 -2.1738,9.733 -6.6365,16.3933 -18.403,27.4624 -12.4892,11.7489 -23.0267,17.7004 -36.273,20.4868 -9.6446,2.0288 -9.8434,2.1589 -25.03,16.3549 -8.4192,7.87 -18.7626,17.45 -22.9853,21.2892 l -7.6781,6.979 -40.4167,0.3538 -40.415,0.3538 -7.0061,8.6666 c -10.1679,12.5796 -17.0247,25.3164 -22.9819,42.69 -2.8873,8.4205 -8.2354,22.2098 -11.8845,30.6431 -3.6492,8.4334 -8.1937,19.5328 -10.1003,24.6661 -4.875,13.1252 -13.334,25.5395 -20.4953,30.081 -15.5092,9.8357 -37.2315,8.5525 -57.6569,-3.4074 -10.9885,-6.4341 -20.1065,-9.0852 -26.909,-7.822 -2.4339,0.452 -8.6372,3.1118 -13.787,5.9109 -16.6538,9.0518 -35.3174,9.6247 -56.6024,1.7351 l -8.7242,-3.2348 -23.3221,8.6328 -23.3221,8.6328 -21.3975,22.0695 -21.3957,22.0695 h -57.4589 -57.4589 l -16.2889,11.9995 -16.2906,11.9996 h -25.245 -25.245 l -6.9435,-5.117 c -17.1559,-12.644 -28.2196,-17.2959 -52.8022,-22.1982 -9.0898,-1.8126 -20.191,-5.0069 -24.6678,-7.0992 l -8.1402,-3.8035 -21.2875,7.1094 -21.2874,7.1094 h -82.2688 -82.2672 l -13.9208,6.7674 c -19.0904,9.2816 -21.6754,9.4769 -37.1278,2.7997 -16.4029,-7.0877 -21.0634,-8.2135 -33.9303,-8.2265 -13.4214,-0.01 -21.993,2.483 -32.0581,9.32 l -7.8508,5.332 h -29.7256 -29.7239 l -14.4015,-7.8592 -14.4015,-7.8592 -42.5411,-0.5975 c -30.4675,-0.4275 -43.8205,-1.0898 -47.0504,-2.3326 -3.8033,-1.4634 -5.2959,-3.4279 -9.5265,-12.5429 -2.7591,-5.9444 -6.3764,-15.0967 -8.0404,-20.3379 l -3.0266,-9.5299 -12.7816,-1.5675 c -20.3524,-2.498 -31.6672,-5.1843 -48.782,-11.5814 -9.9663,-3.7252 -19.8969,-6.4478 -26.3334,-7.2194 -5.6834,-0.6812 -15.2015,-1.8262 -21.1521,-2.5442 -11.6598,-1.4068 -21.9337,-5.4194 -28.8471,-11.2666 l -4.3333,-3.6647 v -14.3474 c 0,-13.8535 0.1406,-14.5491 4.0947,-20.2143 19.1474,-27.4324 24.2191,-37.9508 27.4878,-57.0052 2.1524,-12.5475 2.3908,-13.0749 9.7314,-21.5295 19.5751,-22.5468 23.6895,-30.2341 19.5575,-36.5404 -2.9409,-4.4883 -9.2344,-6.0485 -28.2056,-6.9943 -15.6083,-0.7781 -16.1082,-0.8995 -20.4461,-4.9647 -6.1627,-5.775 -10.7259,-13.9593 -11.6848,-20.9557 -1.5757,-11.4959 4.7992,-25.1718 15.016,-32.2138 2.8137,-1.9395 21.8691,-9.2427 42.3464,-16.228 20.4775,-6.9852 37.6463,-13.1654 38.1519,-13.7346 0.5057,-0.5693 4.3169,-9.9678 8.4686,-20.8846 l 7.5477,-19.8487 34.1284,-33.4834 34.13,-33.485 14.1713,-4.0591 c 18.0247,-5.1621 25.768,-9.0458 33.6087,-16.8594 8.563,-8.5338 13.7525,-19.608 18.1187,-38.6681 l 3.685,-16.0875 17.1065,-15.8302 17.1064,-15.8285 h 27.0613 27.063 l 13.8768,14.3322 c 11.4185,11.7932 14.9408,16.4585 19.8774,26.3266 24.973,49.9192 67.2488,95.3488 118.3607,127.1899 47.0458,29.3081 105.5044,49.2186 170.9733,58.2341 20.7163,2.8526 81.8351,4.0298 106.0006,2.0414 90.3351,-7.4331 178.6712,-38.4214 244.667,-85.8303 69.3185,-49.7957 117.6635,-116.345 139.4111,-191.902 10.3984,-36.127 14.2469,-64.7848 14.2899,-106.3932 0.032,-30.888 -0.939,-43.3112 -5.8771,-75.1341 l -2.8658,-18.4674 28.5086,-28.5323 28.5102,-28.5322 h 64.7223 64.7222 l 11.9556,8.8291 c 6.5758,4.8564 15.2551,10.3209 19.2884,12.1418 16.712,7.5451 21.4437,10.1866 31.6163,17.6532 l 10.6776,7.8373 23.8536,2.8809 23.8536,2.881 14.6453,10.7538 14.6453,10.7537 28.9317,-0.8582 28.9317,-0.8565 16.5597,-12.5971 16.5614,-12.5954 17.2284,3.184 c 9.4762,1.7509 26.3882,3.8583 37.5814,4.6837 l 20.3514,1.5014 19.7742,12.57 c 11.0856,7.0472 21.1683,12.5494 22.948,12.5244 1.7462,-0.025 7.9558,-1.1778 13.8006,-2.5628 5.8448,-1.3851 11.0885,-2.235 11.6509,-1.8874 0.5623,0.3476 2.9198,3.3926 5.2406,6.7658 6.5228,9.4808 9.2718,20.0831 10.1241,39.0642 l 0.7482,16.6664 12.0334,14.3338 c 9.8156,11.6912 12.695,14.3322 15.622,14.3322 3.2867,0 62.9585,-8.307 72.8929,-10.1478 3.7412,-0.6932 5.2886,-2.5126 12.4753,-14.6554 l 8.2062,-13.8633 h 17.6295 17.6295 l 11.7271,13.2657 c 17.8498,20.1913 29.1471,28.9387 44.9007,34.7682 l 9.0983,3.3668 6.1394,12.6326 c 10.054,20.6893 14.21,24.4181 21.5143,19.3019 5.238,-3.6688 7.6578,-13.0782 7.7018,-29.9608 0.059,-22.6538 -0.6034,-23.6251 -23.9602,-35.1338 -16.0533,-7.91 -31.7064,-19.7154 -48.7855,-36.791 -16.0386,-16.0355 -23.0299,-25.8206 -25.3229,-35.4486 -0.8732,-3.6666 -2.0115,-7.1416 -2.5289,-7.7221 -0.5174,-0.5805 -7.7856,-4.2078 -16.1517,-8.0607 -23.2544,-10.7097 -32.287,-17.2811 -74.5451,-54.2376 -8.4334,-7.3754 -16.6203,-13.7387 -18.1949,-14.1392 -1.6449,-0.4184 -11.7505,2.2311 -23.7554,6.2275 -11.5879,3.8577 -21.3378,6.4308 -21.8934,5.7772 -0.5509,-0.6481 -5.0513,-6.1142 -10.0005,-12.1469 -12.0098,-14.6387 -23.1564,-24.5181 -33.2092,-29.4344 -4.5533,-2.2268 -22.9799,-9.4197 -40.9465,-15.9825 -17.9667,-6.5629 -34.7659,-12.8238 -37.3326,-13.9141 -4.0232,-1.7088 -5.915,-4.3414 -13.7177,-19.0869 -4.9779,-9.4072 -8.8779,-17.8543 -8.6667,-18.7721 0.2112,-0.9178 6.3308,-6.7956 13.5992,-13.0609 8.9665,-7.7289 13.412,-10.8421 15.5932,-10.8672 z m -963.7195,26.2166 c 2.5234,-0.1357 5.2674,0.545 8.3247,1.9957 5.8047,2.7545 15.2547,13.0235 15.2547,16.5767 0,7.0848 -10.9631,18.8079 -19.913,21.2942 -19.4601,5.406 -27.9845,-7.1339 -18.1035,-26.633 4.4013,-8.6855 8.8855,-12.9349 14.4371,-13.2336 z m -17.682,53.4387 c 2.2198,0.02 3.3969,1.0007 5.8906,3.9643 2.0672,2.4567 5.839,8.786 8.3806,14.0664 2.5416,5.2802 6.7706,12.1126 9.3979,15.1819 5.6487,6.5993 16.1138,11.8519 23.6454,11.8709 8.2421,0.02 20.5462,3.6934 27.6554,8.2554 6.1976,3.9769 11.0054,9.9295 16.0502,19.874 4.0265,7.9373 16.5539,23.8218 36.0614,45.725 25.5538,28.692 34.1791,40.6097 34.1791,47.2265 0,5.3546 -8.4527,19.2209 -16.6884,27.3761 -9.9391,9.8418 -18.3513,14.735 -30.0929,17.5026 v 0 c -10.366,2.4437 -26.9852,2.4741 -38.0401,0.069 -4.4861,-0.9757 -13.2753,-3.9719 -19.5305,-6.6591 l -11.3732,-4.8868 -6.9757,-16.9 c -7.8686,-19.0612 -7.8784,-16.4163 0.1388,-38.4735 4.1122,-11.3138 4.3008,-12.5137 2.5052,-15.8776 -8.7668,-16.4236 -18.2061,-15.0301 -42.5833,6.2867 -21.2537,18.5855 -29.6938,23.6678 -47.3585,28.5153 l -10.6675,2.9267 -17.3333,-4.577 c -9.5333,-2.5177 -18.6901,-5.4499 -20.3497,-6.5153 -4.2298,-2.7152 -18.9047,-21.4414 -21.8274,-27.8534 -1.3371,-2.9334 -2.4435,-8.3964 -2.4595,-12.1418 l -0.029,-6.8097 18.5808,-12.3246 c 10.2195,-6.7782 19.4079,-13.3135 20.4191,-14.5234 1.0113,-1.21 4.4315,-11.5001 7.6003,-22.8668 3.1687,-11.3667 6.3116,-22.6282 6.9841,-25.0266 1.1183,-3.9883 3.021,-5.2618 22.2878,-14.9094 24.0753,-12.0553 36.0231,-17.136 42.8779,-18.2321 1.0588,-0.1693 1.916,-0.2689 2.6559,-0.2624 z m -458.1458,89.1108 c 17.0657,0.041 44.6908,23.8928 66.3879,57.3201 10.4076,16.0344 13.8646,23.2995 21.8782,45.9992 l 7.0603,20.001 -6.9604,10.3069 -6.9588,10.3086 -8.6683,-0.083 c -25.7813,-0.247 -59.5847,-14.9351 -71.8079,-31.1999 -16.2066,-21.5652 -34.0182,-61.0386 -33.9912,-75.3322 0.03,-15.6864 19.2234,-37.3537 33.0602,-37.3207 z m 1512.4758,1171.9865 c -9.6205,0 -14.4032,9.5458 -14.4032,28.7489 v 8.6176 l 7.4496,4.765 c 4.0968,2.6206 10.5473,6.2078 14.3338,7.9709 8.3308,3.8788 12.8952,4.0612 17.0692,0.6839 2.8693,-2.3216 3.1883,-3.75 3.6106,-16.1552 l 0.4638,-13.6094 -6.4628,-6.6658 c -10.1881,-10.5077 -16.1023,-14.3559 -22.061,-14.3559 z m -359.8453,98.0009 6.83,6.6659 c 7.5413,7.3625 11.9454,14.7366 11.9454,19.9993 0,11.5264 -17.2605,29.5129 -31.3522,32.6709 -8.3321,1.8673 -10.2282,2.9768 -19.2122,11.2361 -11.5842,10.6496 -22.6067,17.5732 -45.3087,28.4578 -11.3974,5.4647 -23.9636,12.0076 -27.9228,14.5403 -7.0851,4.5322 -7.1868,4.69 -6.4797,9.9616 0.4424,3.2985 3.4095,9.5385 7.7238,16.2449 20.7732,32.292 21.1963,34.3895 14.4269,71.4795 -1.3978,7.6581 -2.5407,14.4131 -2.5407,15.0109 0,0.5979 4.465,3.2969 9.9226,5.9973 l 9.9227,4.9088 7.2447,-3.5462 c 14.6946,-7.1952 38.6751,-7.8081 47.5075,-1.2137 4.5228,3.3767 6.7609,11.5245 7.6866,27.9855 l 0.7718,13.7346 -8.5278,8.0488 c -23.4995,22.1816 -30.9591,25.1393 -65.8615,26.11 l -24.0008,0.6669 -19.3324,11.7186 -19.3341,11.7186 -21.5261,0.5146 c -11.8396,0.2833 -22.3403,0.2507 -23.334,-0.073 -0.9938,-0.3235 -6.3066,-4.2054 -11.8066,-8.626 -5.5,-4.4208 -10.2461,-8.2231 -10.5472,-8.45 -0.3009,-0.227 4.7271,-11.6664 11.1735,-25.421 10.8716,-23.1968 20.538,-48.968 22.7094,-60.5464 0.8768,-4.6751 0.6292,-5.0952 -6.1547,-10.4575 -8.164,-6.4533 -21.8109,-13.5273 -39.848,-20.6561 -22.8121,-9.016 -33.8068,-14.7995 -36.3322,-19.1106 -5.5512,-9.476 -0.2189,-22.7674 15.9724,-39.8074 l 10.361,-10.9027 49.9991,-1.5437 c 27.5,-0.8488 50.1616,-1.7037 50.3597,-1.9009 0.198,-0.1974 -1.1358,-6.5365 -2.9639,-14.0867 -1.8282,-7.55 -4.3159,-20.1974 -5.5301,-28.1057 l -2.2073,-14.3795 10.2375,-11.1871 10.2392,-11.1871 15.5999,-2.3105 c 28.1778,-4.1734 57.6611,-15.7763 102.5441,-40.3558 z m -3.03,161.7329 c 6.136,0 11.1474,4.58 11.1194,10.1646 -0.024,4.8469 -0.9699,6.5041 -4.8919,8.5685 -4.3021,2.2645 -8.5153,1.8697 -13.7549,-1.2915 -2.5667,-1.5485 -4.8673,-2.9966 -5.112,-3.2178 -0.7932,-0.7169 4.7623,-12.2503 6.3832,-13.2522 0.8651,-0.5345 3.6802,-0.9716 6.2562,-0.9716 z m -410.271,2.6575 6.3713,3.074 c 3.5045,1.6906 11.022,7.717 16.7053,13.3909 l 10.334,10.3154 v 18.0019 18.0019 l -6.8419,5.7451 c -13.7948,11.585 -19.0577,21.9656 -13.4926,26.616 1.2833,1.0724 6.997,4.2058 12.697,6.9621 11.401,5.5128 23.2835,16.0293 26.2065,23.1969 1.6538,4.0552 1.5082,4.7985 -2.0618,10.5472 -4.4169,7.1121 -15.9511,15.6228 -23.8908,17.6278 -7.2779,1.8377 -18.6324,-0.9002 -36.1342,-8.7123 l -13.5992,-6.07 -8.0471,5.4623 c -11.2366,7.6306 -14.7389,12.6795 -16.2618,23.4338 -0.6883,4.86 -2.1321,10.5375 -3.2077,12.6174 -4.695,9.0792 -14.2864,15.3182 -29.6866,19.3087 -10.2182,2.6474 -27.2091,2.5944 -34.9358,-0.11 -8.0566,-2.8199 -11.4025,-5.0569 -20.783,-13.8886 -8.5258,-8.0268 -16.663,-12.7308 -28.6287,-16.5513 -4.0334,-1.2879 -8.0463,-3.0206 -8.9189,-3.8509 -0.8726,-0.8302 -1.9786,-6.6093 -2.4578,-12.8426 l -0.8717,-11.3343 13.8954,-5.6892 13.8954,-5.6909 5.8805,-12.9678 c 7.949,-17.5274 14.8863,-27.6994 20.1398,-29.5309 5.9119,-2.0608 25.0907,-1.8061 48.8091,0.65 l 20.3717,2.1091 11.1075,8.3789 c 13.0834,9.8677 21.3204,13.4438 28.0532,12.1807 5.7421,-1.0772 11.8546,-6.0272 14.0817,-11.4038 1.4013,-3.3834 1.3276,-4.535 -0.4723,-7.282 -2.3452,-3.5792 -10.4954,-9.5243 -18.916,-13.7972 -8.9046,-4.5186 -19.0143,-14.4801 -20.8236,-20.519 -2.2115,-7.3814 0.2221,-18.3226 6.0141,-27.046 6.6191,-9.9689 20.2765,-22.9003 28.3698,-26.8599 z m -240.1949,73.3246 c 7.0815,-0.2013 15.1846,6.1966 26.1574,20.6561 l 3.8238,5.0392 -1.6622,22.4841 c -1.8324,24.7824 -1.1994,32.0714 3.3092,38.0825 6.5139,8.6845 16.6444,32.8882 16.6444,39.7667 0,4.3203 -6.5546,14.1427 -13.2742,19.8944 -3.1292,2.6786 -7.2728,5.4226 -9.2083,6.0971 -7.1832,2.5035 -22.1293,-4.7237 -33.0924,-16.0011 -6.8793,-7.0766 -16.426,-23.7165 -16.426,-28.6304 0,-2.004 1.2547,-10.6327 2.7879,-19.175 l 2.7879,-15.5306 -8.1842,-12.7629 -8.1843,-12.7614 2.1701,-8.3771 c 2.6322,-10.1583 4.7031,-14.4003 11.4342,-23.4254 6.0421,-8.1015 15.7218,-15.2085 20.9167,-15.3562 z m 404.0859,13.2336 10.4271,6.6946 10.4254,6.6947 0.8243,8.4973 c 0.4531,4.6734 1.2159,13.5968 1.6961,19.8301 l 0.8735,11.3343 -8.9426,4.6668 c -4.9186,2.5667 -9.2828,4.7978 -9.6975,4.9579 -0.4146,0.16 -6.3674,-4.2654 -13.2285,-9.8329 l -12.4735,-10.1224 0.5196,-8.8342 c 0.6463,-10.9624 4.5106,-19.0461 13.1896,-27.5945 z m 4044.0954,792.306 c -37.3461,-0.1672 -55.6558,4.0502 -91.7733,21.1368 -41.3229,19.5495 -77.0685,45.8518 -136.212,100.2302 -64.5204,59.3216 -98.8485,100.6536 -206.9603,249.1864 -107.5643,147.7798 -149.202,193.5619 -208.3906,229.1347 -15.581,9.3647 -30.2156,22.9503 -88.6249,82.2723 -38.4791,39.0805 -77.1561,80.6485 -85.9488,92.3726 -30.7876,41.0505 -45.7739,80.3875 -43.8173,115.0125 0.8287,14.6686 1.7466,17.3215 8.24,23.8147 4.0188,4.0192 10.9106,8.1009 15.3156,9.0712 12.4237,2.7363 22.3972,0.4639 51.8256,-11.8084 14.981,-6.2472 37.8966,-14.7302 50.9233,-18.8516 50.4472,-15.9604 88.8294,-41.0443 143.2045,-93.5897 83.3714,-80.5656 101.0168,-95.9091 135.5857,-117.8935 7.4345,-4.7277 22.3931,-17.4315 33.2413,-28.2309 10.8482,-10.799 30.4075,-29.7611 43.4653,-42.1365 32.3746,-30.6829 36.9841,-40.1546 39.1506,-80.456 2.1335,-39.6885 7.3333,-53.8422 28.1497,-76.6186 19.7768,-21.6392 46.0753,-37.052 124.2767,-72.8387 18.2083,-8.3326 37.9711,-18.4972 43.9172,-22.5875 28.3573,-19.5063 44.72,-23.7611 104.1674,-27.0867 65.1758,-3.6464 78.4456,-7.7043 114.5453,-35.0288 10.268,-7.7718 40.547,-25.4869 67.5017,-39.4908 58.7192,-30.5067 77.3223,-42.2563 95.1943,-60.1283 22.6836,-22.6835 32.7261,-50.441 29.2771,-80.9248 -1.4149,-12.5079 -2.9234,-15.7181 -12.2637,-26.1066 -33.679,-37.4593 -81.657,-59.4587 -137.3342,-62.9703 -17.0011,-1.0724 -25.9134,-2.8582 -33.7576,-6.7657 -5.8621,-2.9202 -19.7174,-8.2941 -30.7903,-11.9421 -17.8953,-5.8954 -23.6863,-6.648 -52.1083,-6.7759 z m 676.7468,130.1606 -3.8001,5.8889 c -6.958,10.7826 -27.3395,31.2644 -42.9219,43.1301 -8.4675,6.4478 -35.8796,24.4659 -60.9154,40.0393 -56.1777,34.9443 -78.0417,51.0787 -97.4693,71.9264 -20.577,22.0806 -28.7269,39.6996 -28.7269,62.129 0,15.9908 0.4205,17.3949 6.4052,21.3179 3.5234,2.3098 12.3169,4.8409 19.5406,5.6266 7.2235,0.7854 13.9209,1.5855 14.8822,1.7773 3.8376,0.7642 49.1638,-15.0002 67.5728,-23.5015 59.5271,-27.4897 111.9514,-71.5673 131.8448,-110.8535 17.6583,-34.8722 17.5131,-70.2336 -0.4316,-105.6705 z m -2686.0703,554.4218 c -39.0153,0.1684 -39.1224,0.1836 -63.9504,9.0847 -46.0675,16.5145 -54.0496,18.3629 -72.2396,16.7205 -9.1187,-0.8234 -17.6455,-1.5038 -18.9481,-1.5268 -1.3028,-0.017 -15.6901,5.7665 -31.9735,12.851 -32.4465,14.117 -64.3071,25.2969 -150.2987,52.7413 -31.2078,9.96 -67.6506,22.3206 -80.9824,27.4709 l -24.2395,9.3641 -10.9417,17.0506 c -13.0591,20.3502 -24.528,44.1305 -32.207,66.7874 -7.6905,22.6921 -8.1019,56.7939 -0.8024,66.5825 9.0449,12.1291 16.9406,16.2364 33.7712,17.5652 8.7016,0.6967 19.5514,0.9903 24.1109,0.6737 4.5592,-0.3161 21.0808,-1.1162 36.713,-1.779 37.092,-1.5726 76.8765,-7.6357 171.3204,-26.1049 85.8898,-16.7962 141.4303,-25.8424 183.5281,-29.8949 53.9925,-5.1977 178.2458,1.1937 234.9102,12.0842 14.3294,2.7541 51.1005,11.2919 81.7137,18.9719 75.6888,18.9889 92.0517,20.8506 211.1531,24.033 111.0143,2.9661 116.8443,2.5137 128.8317,-9.9988 5.7937,-6.047 6.3205,-8.0164 5.3337,-19.9164 -0.9045,-10.9058 -3.0633,-16.0851 -12.3973,-29.7459 -28.0539,-41.0584 -105.1152,-100.6418 -146.9928,-113.6533 -5.2106,-1.619 -15.2273,-6.7067 -22.2591,-11.3072 -29.7175,-19.4411 -64.5535,-25.6506 -130.5092,-23.2629 -53.3349,1.9307 -62.4156,0.027 -117.2994,-24.5984 -37.7407,-16.9332 -58.4427,-24.2687 -76.9199,-27.2559 -5.8621,-0.9477 -13.8552,-4.1214 -17.7633,-7.0535 -11.236,-8.4304 -30.7668,-17.6116 -46.8134,-22.0068 -11.3059,-3.0962 -23.9278,-4.0042 -53.8483,-3.8763 z"
       sodipodi:nodetypes="sssssssssscssssscccsssssscccccccccccccccccccsssssscccsscssssssccsssccssccccsssssccccssssssssssccccssssscccsscccssssscccsscccccssscccccccccssssssscssscsscccccsscccccccssssscsssscccssssssscsssssssssssssssscsscccccccccccssscccssscsscsscccccsssssscsscssscccssssssscsssscsssssscccccccccssssscccsssscccsssssssscsssssssccsscccccsscccsscccsscsscccsssscssccccssssssscccccccssssssscsssscccsscssscsssscccccccscsscssccssccccccscsssscssscsscccccccssscccscssscccsscccsscccsccccccsssscssssscssssssscssccssssccccccssccccccssccccccccccccccccscccccssssccsssccccccccccccsscccccccssssscccccccsccssscccsssscccccssssssssscscccsssccsscccsssssscccccccccsssscccsssccssssccsscsscccccccccccsscccccsscccccsscsssscssscssssccssccccscccssssscssssscccsssscccsssccccsscscsssssssscssssscsscsssccccsssssssscccssssccccccccccccssscssscssscccsscccccccccscssccsscccssccccsccsssscsscsssscccsssssssscssccccccccccsssssssccscccscscccssssccssscsccscsssscccssssscsssscsssccccscssssscsssscsssscssssscccccccsssssccsccccscccccccscscssssscccccssscssscccssssscccsssssscsssccsssccsssssssssssssscccssssssscssscccccsssssscccssccccsscssssssccsscssscsssssssccccssssssssccccccccccccssccccccsscscccccssscccsssscsssssssssssccccssscccccssssssssscccccssscccccccccsscsssssscsssccccsscsssssssssssssssssssssssssssssscsssssccsccssssscsssscsssssssssscccsssssscsssscssccssssssssssccsscsscccsssssssssscsssscccsscssscssscsccccsssssssccsssssssscccsssccssssssscssccssssssscccssscccsscsssccscsssssssssssssssssssssssssssssscsssssssssssccsscssscssscssssssssssssssssscssc" />
  </g>
</svg>
